<?xml version="1.0" standalone="no"?>
<!DOCTYPE svg PUBLIC "-//W3C//DTD SVG 20010904//EN"
 "http://www.w3.org/TR/2001/REC-SVG-20010904/DTD/svg10.dtd">
<svg version="1.0" xmlns="http://www.w3.org/2000/svg"
 width="700.000000pt" height="700.000000pt" viewBox="0 0 700.000000 700.000000"
 preserveAspectRatio="xMidYMid meet">
<metadata>
Created by potrace 1.11, written by Peter Selinger 2001-2013
</metadata>
<g transform="translate(0.000000,700.000000) scale(0.100000,-0.100000)"
fill="#000000" stroke="none">
<path d="M1887 5992 c-78 -86 -35 -336 149 -859 166 -475 575 -1518 646 -1652
244 -457 443 -743 603 -866 119 -91 230 -126 386 -122 103 2 108 3 160 38 104
70 198 178 243 280 12 30 49 135 81 234 79 247 131 378 240 600 139 282 181
354 486 830 433 675 756 1227 776 1326 8 42 -33 49 -89 16 -56 -33 -700 -691
-880 -899 -19 -22 -153 -170 -173 -192 -6 -6 -39 -45 -75 -86 -36 -41 -69 -80
-75 -86 -5 -6 -41 -46 -80 -90 -115 -131 -315 -325 -404 -392 -93 -70 -217
-133 -301 -153 -68 -17 -244 -16 -325 1 -84 17 -144 50 -218 119 -203 191
-414 582 -682 1266 -163 417 -282 624 -399 692 -29 17 -50 16 -69 -5z"/>
<path d="M3399 5525 c-2 -1 -21 -6 -42 -9 -123 -19 -266 -142 -335 -286 -50
-106 -73 -197 -77 -310 -9 -253 94 -484 266 -599 174 -116 377 -93 528 61 71
72 116 146 151 250 34 99 41 144 41 265 0 186 -70 371 -184 487 -61 62 -150
117 -212 130 -39 8 -132 16 -136 11z"/>
<path d="M1875 4408 c6 -20 5 -21 -6 -8 -8 8 -13 13 -12 11 2 -2 -3 -11 -9
-20 -7 -9 -8 -13 -4 -9 5 4 15 3 22 -3 11 -9 15 -7 20 5 5 13 10 14 20 5 7 -6
19 -7 25 -3 7 4 9 3 5 -4 -3 -6 -1 -14 5 -17 7 -5 3 -12 -10 -22 -12 -8 -18
-19 -15 -25 4 -7 0 -7 -12 0 -11 5 -26 7 -34 5 -12 -4 -12 -3 -1 5 9 7 10 12
2 16 -18 12 -24 -22 -7 -39 20 -21 21 -32 1 -15 -13 11 -13 8 0 -29 8 -23 14
-45 15 -49 1 -19 33 -102 41 -108 5 -3 6 -10 3 -16 -4 -5 4 -4 17 2 l24 13
-20 -23 -20 -23 21 11 c17 9 25 7 47 -14 27 -25 43 -32 32 -14 -3 6 -1 10 4
10 6 0 11 -5 11 -11 0 -5 5 -7 10 -4 6 4 5 -5 -2 -20 -11 -24 -9 -28 18 -50
16 -13 26 -27 22 -31 -5 -4 -8 -1 -8 7 0 12 -2 11 -11 -1 -9 -12 -10 -12 -5 3
4 11 2 17 -5 15 -6 -2 -10 -7 -10 -11 1 -4 1 -14 1 -22 0 -18 34 -15 53 4 9
10 6 18 -19 40 -27 24 -29 30 -18 46 7 10 11 22 8 27 -3 5 0 15 6 23 10 12 10
18 0 30 -7 9 -11 18 -8 21 3 2 12 -6 21 -20 14 -21 14 -25 2 -30 -8 -3 -15
-10 -15 -16 0 -8 6 -8 20 0 29 15 25 35 -15 77 -31 33 -37 35 -60 25 -15 -7
-24 -8 -21 -3 3 5 -1 12 -10 15 -24 9 -28 7 -15 -8 9 -11 8 -15 -5 -20 -20 -8
-51 8 -35 18 6 4 11 2 11 -3 0 -6 4 -11 9 -11 5 0 9 11 9 25 0 14 -4 25 -9 25
-5 0 -9 -5 -9 -12 0 -6 -3 -8 -6 -5 -4 4 -1 13 6 22 14 17 0 21 -17 4 -6 -6
-9 -18 -5 -27 3 -9 -4 -6 -17 7 -13 13 -20 26 -16 29 3 4 9 1 13 -5 8 -13 52
18 52 37 0 7 -6 5 -16 -4 -17 -18 -24 -19 -41 -8 -8 5 -8 12 3 26 7 11 17 16
21 12 4 -4 1 -11 -7 -16 -8 -5 -11 -12 -7 -16 10 -11 39 17 33 33 -3 8 -1 11
4 8 6 -3 10 -1 10 4 0 6 5 11 11 11 5 0 7 -4 4 -10 -3 -5 -2 -10 3 -10 6 0 13
7 16 16 8 22 8 24 -6 20 -7 -1 -10 -1 -5 1 16 9 6 21 -18 21 -14 0 -25 -4 -25
-9 0 -5 5 -9 11 -9 5 0 7 -5 3 -11 -5 -8 -10 -6 -16 5 -5 9 -7 20 -4 25 9 14
57 10 63 -5 3 -8 8 -12 12 -10 4 3 7 -4 7 -14 0 -10 -3 -17 -7 -14 -9 5 -21
-27 -14 -35 3 -3 11 1 16 9 9 12 10 11 5 -4 -4 -11 0 -26 10 -37 9 -10 14 -24
11 -31 -4 -8 -6 -7 -6 5 -1 20 -12 22 -30 5 -11 -10 -13 -10 -7 0 4 6 2 12 -3
12 -6 0 -11 5 -11 11 0 8 5 8 15 -1 25 -21 17 5 -9 29 l-24 23 3 -38 c2 -20
11 -44 20 -53 14 -14 17 -14 26 -1 9 12 10 12 5 -3 -5 -15 -2 -17 15 -12 11 4
27 1 35 -6 12 -10 18 -9 31 3 17 18 12 41 -17 78 -16 21 -21 23 -32 11 -11
-12 -10 -13 5 -8 11 4 16 3 12 -3 -12 -20 -32 -10 -32 16 0 16 2 21 7 14 5 -9
9 -9 14 -1 4 6 0 14 -8 17 -9 3 -16 11 -16 18 0 6 -8 19 -17 27 -10 9 -27 28
-37 43 -10 14 -21 24 -24 21 -3 -2 -11 3 -19 13 -8 9 -12 11 -8 5 3 -7 1 -13
-4 -13 -6 0 -11 8 -11 18 0 14 -2 15 -10 2 -6 -10 -10 -11 -10 -2 0 6 -5 12
-11 12 -6 0 -8 -9 -4 -22z m99 -58 c-6 -5 -24 21 -24 34 0 6 6 1 14 -10 8 -10
12 -21 10 -24z m-74 -50 c0 -5 -2 -10 -4 -10 -3 0 -8 5 -11 10 -3 6 -1 10 4
10 6 0 11 -4 11 -10z m30 -10 c0 -5 -4 -10 -10 -10 -5 0 -10 5 -10 10 0 6 5
10 10 10 6 0 10 -4 10 -10z m-36 -25 c-4 -8 -11 -12 -16 -9 -6 4 -5 10 3 15
19 12 19 11 13 -6z m192 -47 c4 -7 3 -8 -4 -4 -8 5 -12 0 -12 -13 0 -23 15
-28 23 -8 4 9 6 9 6 0 1 -17 -16 -26 -31 -16 -15 10 -17 35 -3 45 13 10 13 10
21 -4z m-141 -106 c-6 -6 -35 18 -35 29 0 5 9 1 20 -8 11 -9 17 -19 15 -21z
m108 24 c4 -11 1 -13 -10 -9 -10 4 -14 2 -10 -4 4 -6 -9 -10 -34 -10 -30 0
-37 3 -25 9 9 5 20 7 25 4 4 -3 17 1 27 9 10 8 20 15 20 15 1 0 4 -7 7 -14z
m9 -72 c-6 -11 -11 -13 -16 -5 -4 6 -2 11 3 11 6 0 11 4 11 9 0 5 -11 9 -25 9
-26 0 -34 -13 -12 -21 8 -4 8 -6 1 -6 -7 -1 -22 8 -35 19 -13 10 -18 19 -11
20 6 0 12 -5 12 -11 0 -8 4 -8 15 1 8 6 19 9 24 6 5 -4 13 -1 17 5 11 18 27
-18 16 -37z"/>
<path d="M5130 4419 c0 -5 -4 -8 -9 -4 -6 3 -14 -3 -20 -12 -6 -10 -11 -14
-11 -9 0 5 -13 -5 -30 -24 -16 -18 -27 -37 -23 -43 3 -6 2 -7 -4 -4 -13 8 -71
-72 -137 -188 -6 -11 -19 -32 -29 -47 -10 -14 -19 -35 -20 -46 0 -12 -4 -20
-8 -19 -4 1 -7 -2 -7 -7 0 -5 -4 -12 -9 -15 -17 -13 -63 -112 -57 -123 4 -6 3
-8 -3 -5 -5 3 -21 -15 -34 -41 -14 -26 -34 -65 -46 -87 -97 -182 -342 -689
-336 -698 3 -7 2 -9 -2 -4 -7 6 -31 -34 -35 -58 0 -3 -9 -24 -20 -47 -14 -32
-16 -46 -8 -56 9 -10 8 -12 -1 -10 -12 3 -23 -20 -46 -91 -5 -18 -4 -22 6 -17
8 4 6 1 -3 -7 -9 -7 -28 -56 -42 -108 -14 -52 -29 -107 -34 -124 -5 -16 -9
-46 -8 -67 1 -20 -3 -34 -8 -31 -5 3 -7 -6 -4 -21 3 -14 2 -28 -2 -31 -16 -10
3 -197 21 -203 5 -2 7 -7 4 -11 -12 -21 69 -141 95 -141 6 0 9 -4 5 -9 -6 -11
22 -29 72 -47 24 -8 31 -8 26 0 -3 6 0 6 8 -1 18 -18 133 -18 123 0 -6 9 -4 9
7 0 15 -15 33 -17 25 -4 -4 5 4 7 16 3 14 -3 19 -1 14 6 -5 8 -1 10 9 6 9 -4
26 -2 38 4 66 32 143 65 150 64 4 -1 7 2 7 6 0 5 6 9 13 9 6 0 64 21 127 46
63 24 136 50 162 58 26 7 44 17 41 23 -3 5 -1 6 5 2 10 -6 146 20 167 32 5 3
23 7 40 9 16 2 32 8 33 13 2 6 8 8 13 5 5 -4 35 -1 66 5 32 6 76 13 98 17 22
3 43 10 47 17 6 8 8 8 8 0 0 -8 11 -9 38 -4 60 13 116 22 135 22 9 -1 17 2 17
6 0 4 15 7 33 8 28 1 73 7 135 19 9 2 27 4 40 4 13 1 21 5 17 10 -3 5 0 13 6
17 8 4 9 3 5 -4 -5 -8 1 -12 18 -12 13 0 27 6 29 13 4 9 6 9 6 -1 1 -7 5 -11
9 -8 11 6 75 20 152 31 14 2 39 7 55 10 17 4 37 8 45 10 8 2 25 4 38 4 13 1
21 4 19 9 -3 4 14 7 37 8 24 0 51 4 62 9 10 4 29 9 42 11 57 7 132 28 132 36
0 5 5 6 10 3 15 -9 78 14 76 28 -4 26 -18 35 -66 42 -36 5 -55 3 -67 -7 -9 -7
-14 -8 -10 -2 4 7 0 14 -8 18 -8 3 -17 1 -21 -5 -3 -5 -11 -6 -17 -2 -15 11
-38 10 -56 -1 -10 -6 -12 -5 -7 2 5 9 -11 12 -56 12 -63 1 -302 9 -388 13 -25
2 -51 -1 -57 -6 -7 -5 -13 -6 -13 -1 0 5 -67 9 -150 10 -98 1 -147 -2 -143 -9
4 -6 1 -7 -8 -1 -23 14 -62 17 -53 3 5 -8 3 -9 -7 -3 -19 12 -70 13 -93 1 -10
-5 -16 -5 -13 0 3 4 -26 8 -63 8 -40 1 -66 -3 -63 -9 4 -5 1 -6 -8 0 -23 14
-59 16 -59 2 0 -9 -3 -10 -8 -2 -4 6 -34 14 -67 18 -54 5 -112 13 -155 21 -17
3 -34 8 -104 36 -26 10 -53 16 -59 12 -6 -3 -7 -1 -3 5 3 6 -3 16 -16 23 -28
15 -83 73 -116 122 -13 20 -27 37 -29 37 -2 0 -1 -5 3 -12 4 -7 3 -8 -4 -4 -6
4 -8 14 -5 23 5 12 3 14 -7 8 -8 -5 -11 -4 -7 3 8 12 -2 44 -12 38 -8 -6 -7
191 2 200 4 4 1 14 -6 22 -9 13 -9 14 1 8 7 -4 12 -2 13 6 2 28 8 56 27 120
11 36 18 69 14 72 -3 3 0 6 7 6 8 0 11 8 8 20 -3 13 -1 18 6 13 6 -4 8 2 5 15
-4 12 -2 20 3 16 5 -3 9 0 9 6 0 6 9 31 20 56 12 24 18 50 14 56 -4 7 -3 8 4
4 7 -4 12 -1 12 7 0 8 6 27 14 43 52 108 66 145 60 156 -4 7 -3 10 1 5 8 -6
132 226 138 257 1 6 4 13 7 16 14 14 39 83 34 92 -4 7 -2 8 4 4 7 -4 12 -2 12
4 0 7 6 26 14 43 39 85 62 222 44 260 -9 18 -58 24 -58 6z m44 -17 c3 -5 -1
-9 -9 -9 -8 0 -12 4 -9 9 3 4 7 8 9 8 2 0 6 -4 9 -8z m-84 -76 c0 -3 -4 -8
-10 -11 -5 -3 -10 -1 -10 4 0 6 5 11 10 11 6 0 10 -2 10 -4z m-165 -406 c3 -5
1 -10 -4 -10 -6 0 -11 5 -11 10 0 6 2 10 4 10 3 0 8 -4 11 -10z m5 -80 c0 -5
-5 -10 -11 -10 -5 0 -7 5 -4 10 3 6 8 10 11 10 2 0 4 -4 4 -10z m-160 -80 c0
-5 -2 -10 -4 -10 -3 0 -8 5 -11 10 -3 6 -1 10 4 10 6 0 11 -4 11 -10z m-43
-195 c0 -8 -4 -12 -9 -9 -5 3 -6 10 -3 15 9 13 12 11 12 -6z m-81 -20 c-1 -8
-5 -17 -8 -21 -5 -4 -4 16 1 34 3 9 9 -1 7 -13z m-36 -585 c0 -5 -2 -10 -4
-10 -3 0 -8 5 -11 10 -3 6 -1 10 4 10 6 0 11 -4 11 -10z m-240 -74 c0 -3 -4
-8 -10 -11 -5 -3 -10 -1 -10 4 0 6 5 11 10 11 6 0 10 -2 10 -4z m240 0 c0 -3
-4 -8 -10 -11 -5 -3 -10 -1 -10 4 0 6 5 11 10 11 6 0 10 -2 10 -4z m-287 -121
c-3 -9 -8 -14 -10 -11 -3 3 -2 9 2 15 9 16 15 13 8 -4z m287 -45 c0 -5 -2 -10
-4 -10 -3 0 -8 5 -11 10 -3 6 -1 10 4 10 6 0 11 -4 11 -10z m80 6 c0 -3 -4 -8
-10 -11 -5 -3 -10 -1 -10 4 0 6 5 11 10 11 6 0 10 -2 10 -4z m-360 -40 c0 -2
-7 -7 -16 -10 -8 -3 -12 -2 -9 4 6 10 25 14 25 6z m360 -46 c0 -5 -5 -10 -11
-10 -5 0 -7 5 -4 10 3 6 8 10 11 10 2 0 4 -4 4 -10z m80 0 c0 -5 -2 -10 -4
-10 -3 0 -8 5 -11 10 -3 6 -1 10 4 10 6 0 11 -4 11 -10z m-365 -29 c3 -5 2
-12 -3 -15 -5 -3 -9 1 -9 9 0 17 3 19 12 6z m1160 -51 c3 -5 1 -10 -4 -10 -6
0 -11 5 -11 10 0 6 2 10 4 10 3 0 8 -4 11 -10z m245 6 c0 -3 -4 -8 -10 -11 -5
-3 -10 -1 -10 4 0 6 5 11 10 11 6 0 10 -2 10 -4z m-1405 -54 c-3 -3 -11 0 -18
7 -9 10 -8 11 6 5 10 -3 15 -9 12 -12z m85 14 c0 -3 -4 -8 -10 -11 -5 -3 -10
-1 -10 4 0 6 5 11 10 11 6 0 10 -2 10 -4z m155 -6 c3 -5 1 -10 -4 -10 -6 0
-11 5 -11 10 0 6 2 10 4 10 3 0 8 -4 11 -10z m765 -40 c0 -5 -5 -10 -11 -10
-5 0 -7 5 -4 10 3 6 8 10 11 10 2 0 4 -4 4 -10z m80 6 c0 -3 -4 -8 -10 -11 -5
-3 -10 -1 -10 4 0 6 5 11 10 11 6 0 10 -2 10 -4z m75 -6 c3 -5 1 -10 -4 -10
-6 0 -11 5 -11 10 0 6 2 10 4 10 3 0 8 -4 11 -10z m800 0 c3 -5 1 -10 -4 -10
-6 0 -11 5 -11 10 0 6 2 10 4 10 3 0 8 -4 11 -10z m-1960 -39 c3 -5 2 -12 -3
-15 -5 -3 -9 1 -9 9 0 17 3 19 12 6z m159 1 c3 -5 -1 -9 -9 -9 -8 0 -12 4 -9
9 3 4 7 8 9 8 2 0 6 -4 9 -8z m170 0 c3 -5 -1 -9 -9 -9 -8 0 -12 4 -9 9 3 4 7
8 9 8 2 0 6 -4 9 -8z m486 2 c0 -8 -19 -13 -24 -6 -3 5 1 9 9 9 8 0 15 -2 15
-3z m785 -3 c3 -5 2 -12 -3 -15 -5 -3 -9 1 -9 9 0 17 3 19 12 6z m-1000 -41
c3 -5 1 -10 -4 -10 -6 0 -11 5 -11 10 0 6 2 10 4 10 3 0 8 -4 11 -10z m85 6
c0 -3 -4 -8 -10 -11 -5 -3 -10 -1 -10 4 0 6 5 11 10 11 6 0 10 -2 10 -4z m560
-6 c0 -5 -2 -10 -4 -10 -3 0 -8 5 -11 10 -3 6 -1 10 4 10 6 0 11 -4 11 -10z
m80 0 c0 -5 -5 -10 -11 -10 -5 0 -7 5 -4 10 3 6 8 10 11 10 2 0 4 -4 4 -10z
m80 6 c0 -3 -4 -8 -10 -11 -5 -3 -10 -1 -10 4 0 6 5 11 10 11 6 0 10 -2 10 -4z
m-915 -46 c-3 -5 -12 -10 -18 -10 -7 0 -6 4 3 10 19 12 23 12 15 0z m-685 -34
c0 -3 -4 -8 -10 -11 -5 -3 -10 -1 -10 4 0 6 5 11 10 11 6 0 10 -2 10 -4z m75
-6 c3 -5 1 -10 -4 -10 -6 0 -11 5 -11 10 0 6 2 10 4 10 3 0 8 -4 11 -10z m325
0 c0 -5 -5 -10 -11 -10 -5 0 -7 5 -4 10 3 6 8 10 11 10 2 0 4 -4 4 -10z m75 0
c3 -5 1 -10 -4 -10 -6 0 -11 5 -11 10 0 6 2 10 4 10 3 0 8 -4 11 -10z m720 0
c3 -5 1 -10 -4 -10 -6 0 -11 5 -11 10 0 6 2 10 4 10 3 0 8 -4 11 -10z m-518
-45 c0 -8 -4 -12 -9 -9 -5 3 -6 10 -3 15 9 13 12 11 12 -6z m-517 -109 c0 -3
-4 -8 -10 -11 -5 -3 -10 -1 -10 4 0 6 5 11 10 11 6 0 10 -2 10 -4z m195 -45
c3 -5 2 -12 -3 -15 -5 -3 -9 1 -9 9 0 17 3 19 12 6z m-195 -41 c0 -5 -2 -10
-4 -10 -3 0 -8 5 -11 10 -3 6 -1 10 4 10 6 0 11 -4 11 -10z m117 -65 c0 -8 -4
-12 -9 -9 -5 3 -6 10 -3 15 9 13 12 11 12 -6z"/>
<path d="M1886 4371 c-3 -5 -15 -7 -26 -4 -12 3 -20 0 -20 -7 0 -6 6 -10 13
-7 6 2 20 -3 30 -11 16 -14 19 -14 35 2 15 15 15 18 2 26 -19 12 -27 12 -34 1z
m24 -11 c0 -5 -5 -10 -11 -10 -5 0 -7 5 -4 10 3 6 8 10 11 10 2 0 4 -4 4 -10z"/>
<path d="M2100 4155 c-10 -12 -8 -20 9 -41 27 -35 26 -50 -3 -70 -16 -10 -23
-21 -19 -31 4 -11 2 -14 -5 -9 -20 12 -13 -3 13 -32 14 -15 25 -30 25 -34 0
-14 -32 -38 -43 -31 -7 4 -8 0 -3 -12 7 -18 6 -18 -14 0 -11 10 -20 24 -20 32
0 8 -4 11 -10 8 -9 -5 -14 7 -12 26 1 4 -10 9 -24 12 -23 4 -23 3 -9 -13 8 -9
12 -20 8 -25 -5 -4 -3 -6 3 -2 6 3 16 -13 23 -39 7 -24 17 -44 22 -44 5 0 9
-7 9 -15 0 -12 4 -14 17 -6 13 7 23 5 34 -4 13 -13 15 -10 15 25 -1 31 -4 39
-16 35 -12 -4 -12 -3 1 7 9 7 19 20 22 28 4 8 5 0 2 -18 -3 -28 -1 -33 13 -28
15 5 15 4 0 -8 -10 -7 -18 -19 -18 -25 0 -6 19 7 41 29 23 23 44 38 48 34 3
-4 0 -9 -7 -11 -7 -3 -20 -12 -28 -21 -15 -15 -15 -17 6 -34 12 -10 19 -18 14
-18 -4 0 -15 7 -24 15 -15 14 -18 14 -30 0 -11 -13 -8 -20 19 -47 28 -28 34
-30 57 -19 15 6 23 7 19 1 -3 -5 -1 -10 4 -10 6 0 11 -5 11 -11 0 -5 -4 -7
-10 -4 -5 3 -10 1 -10 -4 0 -6 5 -11 10 -11 6 0 10 -5 10 -11 0 -8 -5 -7 -15
1 -9 7 -19 10 -22 6 -4 -4 -1 -12 7 -17 12 -9 12 -10 -3 -5 -15 5 -17 2 -12
-15 4 -11 1 -26 -5 -34 -10 -12 -9 -16 4 -21 9 -3 16 -11 16 -16 0 -6 -7 -5
-16 3 -13 11 -15 11 -14 -2 4 -26 0 -39 -11 -39 -8 0 -7 6 2 17 12 15 12 16
-5 9 -19 -7 -19 -6 -1 14 10 11 13 20 8 20 -6 0 -16 -7 -23 -15 -9 -11 -9 -20
2 -42 8 -15 22 -43 31 -61 9 -19 17 -40 17 -48 0 -8 18 -33 40 -56 23 -22 39
-42 37 -44 -2 -3 -16 8 -30 22 -15 15 -27 23 -27 17 0 -5 5 -14 12 -21 7 -7 8
-12 4 -12 -5 0 -3 -7 4 -15 7 -9 14 -25 15 -38 1 -12 3 -26 4 -30 0 -5 11 -5
24 -2 21 7 21 6 4 -7 -17 -13 -18 -17 -5 -49 8 -19 13 -40 11 -47 -3 -7 1 -10
11 -6 9 3 13 10 10 15 -3 5 3 6 13 2 16 -6 16 -5 5 10 -8 9 -17 15 -20 14 -4
-1 -7 0 -8 3 0 3 -6 15 -12 27 -10 18 -9 21 6 18 9 -2 20 -4 25 -4 4 -1 7 -6
7 -12 0 -8 -5 -8 -15 1 -18 15 -20 -1 -3 -18 17 -17 25 -15 31 8 3 14 -1 25
-13 32 -14 9 -16 15 -7 30 7 10 15 18 20 18 4 0 5 -4 2 -10 -3 -5 -1 -10 4
-10 6 0 11 -5 11 -11 0 -8 -5 -8 -15 1 -8 7 -15 8 -15 2 0 -5 6 -15 14 -21 19
-16 44 13 27 33 -15 17 12 30 37 17 9 -4 24 -6 32 -4 8 3 6 -1 -5 -10 -11 -8
-16 -19 -12 -23 4 -5 13 -2 18 6 9 12 10 12 5 -3 -5 -15 -2 -17 15 -12 11 4
27 1 35 -6 11 -9 18 -9 26 -1 7 7 19 12 27 12 10 -1 4 -7 -12 -16 -20 -11 -32
-12 -47 -4 -14 8 -26 8 -41 -1 -12 -6 -19 -7 -16 -2 3 4 -6 16 -19 26 -28 21
-32 12 -7 -15 16 -17 9 -24 -19 -19 -16 2 -7 -18 12 -32 11 -8 17 -17 13 -20
-3 -4 1 -7 11 -7 10 0 14 5 10 11 -4 8 0 8 15 0 15 -8 27 -9 41 -1 26 14 84
-14 76 -37 -4 -9 -1 -13 6 -10 15 5 11 39 -5 49 -7 4 -3 6 9 6 16 -2 20 -7 16
-23 -3 -11 -1 -17 3 -13 10 9 48 -50 40 -62 -3 -5 -1 -11 5 -15 19 -11 10 42
-11 69 -11 14 -17 30 -14 36 3 5 2 10 -2 10 -5 0 -24 34 -42 75 -19 41 -38 75
-43 75 -5 0 -1 -12 8 -27 16 -27 16 -27 -9 2 -31 35 -36 25 -7 -15 17 -24 18
-29 5 -34 -19 -7 -47 3 -39 15 3 5 -6 14 -20 20 -14 7 -23 16 -20 20 3 5 -2 9
-11 9 -9 0 -13 -5 -9 -11 4 -8 0 -8 -15 0 -16 9 -26 9 -42 0 -12 -6 -19 -7
-16 -2 3 4 -6 16 -19 26 -28 21 -32 12 -7 -15 9 -10 11 -18 6 -18 -6 0 -14 8
-18 18 -6 15 -8 15 -26 -7 -10 -12 -16 -27 -13 -32 3 -5 0 -9 -6 -9 -7 0 -9 7
-6 16 4 9 1 24 -6 33 -11 14 -11 14 3 3 32 -25 50 32 19 61 -10 10 -12 9 -7
-5 9 -25 0 -22 -14 3 -8 15 -8 19 0 15 6 -4 11 0 11 9 0 9 -4 13 -10 10 -9 -5
-12 1 -9 21 0 4 -5 11 -13 16 -10 8 -10 9 2 5 8 -2 14 -10 12 -16 -3 -13 14
-15 23 -2 3 5 -5 17 -17 26 -21 14 -24 14 -37 -2 -13 -17 -13 -17 -7 1 5 14 2
17 -9 12 -9 -3 -13 -2 -10 4 3 6 1 10 -4 10 -6 0 -11 5 -11 11 0 8 5 7 15 -1
9 -7 18 -10 22 -7 3 4 14 2 24 -3 14 -8 21 -5 33 12 9 12 16 17 16 11 0 -6 -7
-16 -15 -23 -11 -9 -12 -16 -4 -26 13 -16 51 -14 45 3 -3 7 1 10 10 6 7 -3 14
-1 14 5 0 6 -6 13 -12 15 -10 4 -10 6 -1 6 21 2 25 -20 7 -40 -21 -23 -8 -25
18 -2 10 9 18 12 18 7 0 -12 -60 -48 -60 -37 0 4 -5 1 -11 -7 -9 -12 -10 -12
-5 3 4 12 2 17 -6 14 -11 -3 -13 -35 -3 -45 2 -2 17 4 34 13 24 12 36 13 51 5
14 -8 26 -8 40 0 14 8 26 8 40 0 11 -6 24 -8 29 -6 5 3 11 0 14 -7 4 -10 -2
-13 -19 -9 -13 2 -27 8 -30 13 -3 5 -11 9 -17 9 -7 -1 -2 -9 10 -19 12 -10 19
-21 16 -25 -3 -3 -12 3 -19 13 -9 12 -21 17 -37 14 -14 -3 -28 0 -31 6 -4 6
-13 11 -19 11 -7 -1 -2 -9 10 -19 12 -10 19 -21 16 -25 -3 -3 -12 3 -20 13 -8
12 -20 17 -33 14 -23 -6 -25 -14 -8 -31 17 -17 33 -15 18 3 -9 10 -9 15 -1 15
11 0 15 -13 12 -37 -2 -14 15 -18 22 -5 2 4 3 2 1 -4 -1 -6 11 -11 27 -11 23
0 26 3 18 14 -6 7 -15 10 -20 7 -5 -3 -9 0 -9 6 0 7 8 9 22 4 20 -6 21 -5 9
10 -9 10 -10 16 -2 16 11 0 15 -13 12 -36 -1 -7 7 -14 18 -17 20 -5 41 9 41
27 0 6 -5 5 -12 -2 -7 -7 -16 -12 -22 -12 -11 0 25 29 37 30 13 0 8 -27 -8
-40 -16 -13 -21 -35 -7 -26 5 3 15 -6 22 -19 7 -14 17 -25 22 -25 12 0 10 8
-8 35 -11 18 -13 29 -5 43 6 11 7 23 3 27 -4 5 -1 5 6 1 7 -4 3 12 -10 38 -12
25 -26 46 -30 46 -13 0 -9 -18 5 -23 7 -3 7 -6 1 -6 -6 -1 -26 13 -43 30 -18
17 -36 28 -39 24 -4 -4 1 -11 11 -16 9 -6 17 -14 17 -18 0 -14 -30 -22 -47
-13 -13 8 -13 10 0 15 17 6 15 50 -3 72 -9 11 -9 15 -1 15 6 0 11 -4 11 -9 0
-5 7 -17 16 -26 12 -12 19 -13 30 -4 16 13 19 39 4 39 -5 0 -10 -7 -10 -15 0
-8 -4 -15 -10 -15 -5 0 -6 7 -3 17 4 11 3 14 -5 9 -18 -11 -14 0 5 15 14 12
16 12 8 0 -5 -9 -4 -12 3 -7 13 8 -15 76 -31 76 -5 0 -3 -8 4 -17 8 -9 9 -14
3 -10 -7 4 -17 0 -24 -9 -12 -13 -10 -14 14 -10 23 4 26 2 16 -9 -6 -8 -17
-12 -24 -9 -7 3 -18 -1 -25 -9 -9 -11 -8 -17 4 -27 8 -7 15 -17 15 -23 0 -6
-7 -2 -15 10 -17 25 -41 21 -50 -8 -4 -10 -11 -19 -16 -19 -5 0 -2 11 6 24 15
23 15 25 -2 35 -17 11 -17 11 1 9 10 -2 21 2 23 9 2 7 -3 10 -14 8 -10 -2 -24
-4 -31 -4 -7 -1 -12 -7 -11 -13 3 -25 -1 -38 -12 -38 -8 0 -8 4 1 14 9 12 8
15 -9 13 -12 -1 -21 -5 -21 -9 0 -4 -5 -8 -11 -8 -6 0 -4 9 5 21 8 12 12 28 9
36 -5 12 -1 14 14 9 28 -9 49 17 28 34 -8 7 -15 17 -15 23 0 6 7 1 16 -11 8
-12 20 -20 25 -17 5 4 19 -1 31 -10 20 -14 20 -16 4 -13 -10 2 -21 -2 -23 -9
-2 -7 3 -10 14 -8 10 2 24 4 32 4 7 1 11 7 8 15 -4 9 -1 13 6 10 8 -3 14 7 15
27 2 26 -1 30 -14 25 -13 -5 -14 -3 -6 7 13 16 2 37 -18 34 -22 -4 -40 -17
-40 -29 0 -7 5 -7 14 1 16 14 29 -9 19 -35 -5 -14 -3 -15 18 -5 23 11 23 11 5
-3 -15 -12 -22 -13 -34 -4 -9 8 -10 14 -3 16 20 7 11 20 -14 20 -26 0 -34 -13
-12 -21 9 -4 9 -6 0 -6 -22 -2 -24 18 -6 43 20 27 61 57 48 35 -5 -7 -4 -10 2
-6 7 5 5 18 -6 40 -9 19 -19 30 -22 24 -4 -5 -11 -7 -17 -3 -6 3 -17 -3 -25
-14 -7 -11 -17 -17 -20 -13 -4 3 1 12 11 19 15 12 13 13 -17 9 -19 -2 -38 -8
-43 -13 -6 -6 -19 0 -34 15 -30 30 -27 41 4 13 22 -21 37 -27 28 -11 -4 5 18
8 49 7 42 -2 55 1 55 12 0 13 -28 67 -113 222 -79 144 -76 141 -97 115z m35
-35 c-3 -5 0 -11 5 -13 6 -3 5 -4 -2 -2 -7 1 -12 8 -10 14 1 6 -2 11 -8 11 -5
0 -10 5 -10 11 0 8 5 8 15 -1 8 -7 13 -16 10 -20z m21 -67 l-30 -16 25 -20 24
-20 -25 8 c-22 7 -23 6 -11 -9 9 -10 10 -16 2 -16 -11 0 -15 13 -12 38 1 6 -3
12 -9 12 -5 0 -10 -5 -10 -12 0 -6 -3 -8 -7 -5 -9 10 39 52 62 54 15 1 12 -2
-9 -14z m22 -17 c-7 -8 -17 -12 -22 -9 -4 3 -2 9 5 14 22 13 31 11 17 -5z m17
-16 c3 -5 1 -10 -4 -10 -6 0 -11 5 -11 10 0 6 2 10 4 10 3 0 8 -4 11 -10z
m-52 -70 c4 0 5 5 2 10 -3 6 -1 10 5 10 7 0 9 -8 5 -20 -7 -21 10 -28 18 -7 4
9 6 9 6 0 1 -6 -4 -15 -11 -19 -12 -8 -68 51 -68 71 0 5 8 -2 18 -17 9 -16 20
-28 25 -28z m42 40 c-3 -5 -12 -10 -18 -10 -7 0 -6 4 3 10 19 12 23 12 15 0z
m23 -14 c-15 -9 -15 -13 3 -38 12 -16 25 -26 30 -23 5 4 6 -1 3 -10 -4 -10 -1
-14 7 -12 8 2 11 2 7 0 -14 -8 -8 -25 6 -20 10 4 13 1 9 -9 -3 -7 1 -14 8 -14
7 0 10 -3 6 -6 -8 -9 -67 38 -61 48 3 5 0 15 -6 23 -11 13 -16 12 -37 -5 -29
-22 -43 -25 -43 -9 0 5 4 8 9 5 5 -3 19 2 31 12 21 17 21 19 6 34 -15 15 -15
17 4 23 11 4 17 11 14 17 -5 7 -2 8 6 3 11 -7 11 -10 -2 -19z m36 -39 c7 -6 6
-7 -4 -4 -8 2 -16 12 -17 23 -2 13 -1 15 4 4 3 -8 11 -19 17 -23z m-194 -62
c0 -8 -2 -15 -4 -15 -2 0 -6 7 -10 15 -3 8 -1 15 4 15 6 0 10 -7 10 -15z m214
-54 c-4 -3 -9 0 -11 7 -4 10 -8 10 -19 1 -8 -7 -17 -9 -21 -5 -3 3 -1 6 5 6 7
0 12 5 12 10 0 6 -6 10 -12 9 -25 -3 -38 1 -38 12 0 8 6 7 17 -2 15 -12 16
-12 10 4 -5 14 1 12 28 -9 20 -15 33 -30 29 -33z m-164 41 c0 -4 -9 -8 -20 -9
-11 -1 -20 2 -20 5 0 4 9 8 20 9 11 1 20 -2 20 -5z m200 -97 c-15 -18 1 -20
18 -3 28 28 9 -3 -23 -38 -19 -21 -35 -33 -35 -26 0 7 5 12 11 12 8 0 7 5 -1
15 -7 9 -10 18 -6 22 3 3 6 1 6 -5 0 -7 5 -12 10 -12 6 0 10 6 9 13 -3 24 1
37 12 37 8 0 8 -5 -1 -15z m65 -55 c3 -5 1 -10 -4 -10 -6 0 -11 5 -11 10 0 6
2 10 4 10 3 0 8 -4 11 -10z m-115 -20 c0 -5 -8 -10 -17 -10 -15 0 -16 2 -3 10
19 12 20 12 20 0z m9 -42 c7 -11 7 -18 1 -18 -5 0 -10 5 -10 11 0 6 -9 9 -19
6 -13 -3 -18 0 -15 7 7 19 30 15 43 -6z m-53 -76 c-17 -16 -18 -16 -5 5 7 12
15 20 18 17 3 -2 -3 -12 -13 -22z m44 -122 c0 -5 -5 -10 -11 -10 -5 0 -7 5 -4
10 3 6 8 10 11 10 2 0 4 -4 4 -10z m63 -117 c-5 -12 -3 -14 8 -8 11 6 12 5 2
-5 -7 -8 -16 -11 -19 -7 -7 6 2 37 10 37 3 0 2 -7 -1 -17z m272 -74 c4 -6 0
-9 -10 -7 -10 2 -20 -3 -22 -10 -3 -7 1 -10 11 -6 9 3 16 4 16 1 0 -10 -27
-15 -41 -6 -11 7 -10 11 6 23 24 18 32 19 40 5z m-85 -9 c13 -9 13 -11 0 -20
-8 -5 -17 -10 -20 -10 -3 0 -12 5 -20 10 -13 9 -13 11 0 20 8 5 17 10 20 10 3
0 12 -5 20 -10z m-60 -10 c0 -5 -4 -10 -10 -10 -5 0 -10 5 -10 10 0 6 5 10 10
10 6 0 10 -4 10 -10z"/>
<path d="M2470 3240 c0 -5 5 -10 10 -10 6 0 10 5 10 10 0 6 -4 10 -10 10 -5 0
-10 -4 -10 -10z"/>
<path d="M1952 4058 c-14 -14 -16 -28 -3 -28 9 0 24 30 18 36 -2 2 -9 -2 -15
-8z"/>
<path d="M1969 4043 c-9 -52 -5 -57 39 -56 11 1 16 -11 13 -29 -2 -11 17 -10
24 1 3 5 0 13 -6 16 -6 4 -8 18 -5 31 5 17 3 22 -7 18 -8 -3 -20 2 -27 11 -13
16 -29 20 -31 8z m44 -40 c-7 -2 -19 -2 -25 0 -7 3 -2 5 12 5 14 0 19 -2 13
-5z"/>
<path d="M2071 3816 c-15 -18 -5 -40 15 -32 8 3 14 1 14 -4 0 -6 -5 -10 -11
-10 -5 0 -7 -5 -4 -10 11 -18 34 8 28 30 -6 23 -14 25 -33 8 -12 -11 -12 -10
-1 5 17 21 9 33 -8 13z"/>
<path d="M2125 3795 c11 -29 7 -85 -7 -85 -11 0 -10 28 2 35 6 3 10 11 10 17
0 6 -9 3 -20 -7 -19 -17 -19 -18 2 -59 12 -22 22 -44 23 -48 1 -17 16 -18 40
-2 20 13 25 23 21 39 -4 15 2 32 15 49 l21 27 -24 -6 c-19 -5 -32 1 -58 27
-23 23 -31 27 -25 13z m36 -52 c-7 -13 -4 -25 11 -45 10 -15 15 -29 9 -29 -37
-5 -46 -2 -49 14 -2 9 1 17 7 17 6 0 8 -6 5 -13 -3 -8 2 -14 11 -14 19 0 19
11 0 31 -12 12 -14 20 -5 36 6 11 13 20 16 20 3 0 1 -8 -5 -17z m26 -18 c0 -8
-4 -12 -9 -9 -4 3 -8 9 -8 15 0 5 4 9 8 9 5 0 9 -7 9 -15z"/>
<path d="M2287 3619 c-10 -11 -24 -19 -31 -16 -7 3 -13 -4 -13 -15 -2 -19 -1
-19 16 -4 10 9 22 16 27 16 5 0 15 9 22 20 16 26 1 26 -21 -1z"/>
<path d="M2332 3580 c-7 -11 -9 -20 -4 -20 4 0 15 9 25 20 11 14 13 20 4 20
-7 0 -18 -9 -25 -20z"/>
<path d="M2441 3526 c-16 -19 14 -45 31 -28 9 9 8 12 -6 12 -15 0 -16 3 -6 15
7 8 8 15 2 15 -5 0 -15 -6 -21 -14z"/>
<path d="M1610 3518 c0 -5 -9 -7 -19 -3 -11 3 -22 1 -26 -5 -3 -6 -11 -8 -16
-5 -5 4 -9 2 -9 -3 0 -6 -11 -13 -25 -16 -14 -4 -23 -11 -20 -16 3 -6 -1 -10
-10 -10 -9 0 -15 -7 -13 -16 2 -10 -4 -19 -12 -21 -13 -4 -13 -3 0 6 9 7 10
11 3 11 -19 0 -27 -21 -12 -31 10 -6 8 -9 -9 -9 -14 0 -21 -4 -17 -11 4 -6 13
-8 20 -5 18 6 28 -21 15 -42 -5 -10 -10 -12 -10 -7 0 6 -4 4 -9 -4 -9 -14 19
-51 40 -51 6 0 3 7 -6 16 -15 15 -15 18 0 41 13 19 14 27 4 39 -9 11 -8 21 5
47 8 17 16 25 16 17 0 -9 -5 -21 -11 -27 -8 -8 -8 -17 1 -33 9 -17 8 -26 -4
-45 -14 -21 -14 -25 0 -36 12 -10 18 -9 31 4 9 9 13 20 9 24 -4 4 -11 1 -16
-7 -5 -8 -11 -12 -14 -9 -3 3 10 22 29 42 19 20 35 43 35 50 0 6 -9 1 -20 -13
-17 -21 -21 -23 -30 -10 -12 18 -12 21 0 40 5 8 12 11 17 7 4 -5 1 -12 -6 -16
-7 -5 -10 -14 -6 -21 5 -8 12 -5 22 10 12 16 12 24 3 35 -7 8 -16 12 -21 9 -5
-3 -9 0 -9 5 0 16 16 13 34 -5 11 -10 16 -11 16 -3 0 6 -8 18 -17 25 -17 13
-17 14 2 7 11 -3 17 -3 13 2 -4 4 -1 14 7 21 21 21 28 17 12 -7 -16 -22 -11
-60 7 -58 23 3 36 -1 36 -12 0 -8 -5 -8 -15 1 -25 20 -17 -5 9 -29 l24 -22 -3
32 c-2 32 -30 63 -46 53 -5 -3 -9 0 -9 5 0 16 14 13 43 -9 19 -15 27 -17 35
-7 14 18 11 49 -4 43 -9 -3 -11 1 -7 12 6 15 5 15 -10 3 -10 -7 -17 -9 -17 -3
0 18 24 20 44 3 18 -15 19 -15 13 2 -4 11 -3 16 3 12 6 -3 10 -1 10 4 0 6 -18
10 -40 9 -22 -1 -40 -5 -40 -10z m31 -48 c5 0 9 -4 9 -10 0 -5 -13 -2 -29 8
-16 9 -27 20 -25 24 3 5 12 1 20 -7 9 -8 20 -15 25 -15z"/>
<path d="M1696 3515 c-3 -8 -3 -22 1 -31 4 -10 -4 -24 -22 -38 -35 -28 -43
-88 -15 -116 10 -10 21 -14 24 -9 2 5 3 4 2 -3 -2 -7 -9 -12 -16 -10 -7 1 -18
-2 -26 -9 -11 -9 -11 -15 6 -36 22 -29 25 -43 9 -43 -5 0 -8 4 -5 8 10 17 -23
50 -44 45 -23 -6 -25 -14 -8 -31 17 -17 33 -15 18 3 -8 9 -8 15 -2 15 17 0 20
-24 6 -41 -12 -13 -9 -15 26 -15 31 1 39 4 35 16 -3 10 -1 10 9 -2 7 -10 19
-18 25 -18 6 0 -7 19 -29 41 -23 23 -38 44 -34 48 4 3 9 0 11 -7 3 -7 12 -20
21 -28 15 -15 17 -15 34 6 10 12 18 19 18 14 0 -4 -7 -15 -15 -24 -14 -15 -14
-19 -1 -29 12 -10 19 -10 36 2 16 11 18 17 9 23 -7 4 -15 2 -17 -4 -2 -7 -8
-12 -13 -12 -5 0 -4 9 3 19 9 15 15 17 25 9 9 -7 17 -7 28 2 13 10 12 15 -3
36 -23 31 -39 31 -18 -1 9 -14 12 -25 6 -25 -5 0 -10 5 -10 11 0 5 -5 7 -12 3
-7 -5 -9 -2 -5 9 3 9 -2 26 -12 39 -18 23 -18 48 1 48 6 0 6 -6 -2 -15 -7 -9
-8 -15 -2 -15 20 0 60 59 55 80 -3 11 -10 20 -17 19 -23 -3 -36 1 -36 12 0 8
6 7 16 -2 15 -12 16 -11 10 9 -5 14 -3 22 4 22 6 0 9 -4 6 -9 -3 -5 2 -15 11
-22 14 -12 15 -11 9 8 -4 12 -2 24 3 28 7 4 8 -1 4 -12 -6 -16 -5 -17 13 -3
18 14 18 14 5 -2 -11 -15 -11 -21 -1 -33 12 -14 15 -14 30 0 9 8 22 15 30 15
10 0 10 3 0 15 -7 8 -19 15 -27 15 -8 0 -28 7 -45 16 -18 9 -27 11 -23 4 4 -7
-4 -4 -19 5 -14 10 -26 13 -26 7 0 -6 6 -13 13 -15 9 -4 9 -6 -1 -6 -7 -1 -15
6 -18 14 -4 8 -12 15 -19 15 -7 0 -15 -7 -19 -15z m37 -44 c-14 -13 -13 -17 7
-33 12 -10 26 -15 31 -12 5 3 9 0 9 -5 0 -16 -14 -13 -43 9 -21 16 -27 17 -36
6 -6 -7 -9 -20 -6 -27 6 -18 -11 -46 -22 -36 -4 5 -1 12 6 16 7 5 10 14 6 20
-5 9 -11 7 -21 -6 -7 -10 -14 -15 -14 -11 0 3 19 26 41 49 23 24 36 45 30 47
-6 2 -11 8 -11 13 0 5 9 4 19 -3 17 -10 17 -13 4 -27z m121 -5 c-10 -8 -21
-12 -24 -10 -5 6 21 24 34 24 6 0 1 -6 -10 -14z m-84 -74 c3 -3 -5 -2 -18 1
-15 4 -27 -1 -37 -16 -8 -12 -15 -17 -15 -13 0 5 7 18 17 28 9 11 11 18 5 18
-7 0 -12 5 -12 10 0 9 40 -11 60 -28z m-87 -35 c4 3 7 1 7 -5 0 -14 -2 -14
-24 -6 -9 3 -16 11 -16 16 0 7 5 6 13 -1 8 -6 17 -8 20 -4z m41 -38 c-3 -5 0
-9 5 -9 6 0 11 -5 11 -11 0 -8 -5 -7 -16 2 -13 11 -15 11 -14 -2 4 -26 0 -39
-11 -39 -8 0 -7 6 2 17 12 15 12 16 -6 9 -17 -6 -17 -4 4 18 14 15 19 26 13
26 -7 0 -12 5 -12 11 0 8 5 8 15 -1 8 -7 12 -16 9 -21z"/>
<path d="M5260 3519 c-96 -26 -272 -151 -254 -181 4 -6 3 -8 -3 -5 -13 8 -46
-50 -37 -65 4 -6 3 -8 -3 -5 -12 8 -41 -51 -50 -101 -13 -76 -2 -189 17 -177
6 3 7 -1 4 -10 -4 -9 5 -32 21 -55 60 -87 148 -125 267 -116 94 7 129 16 121
29 -3 6 -1 7 6 3 6 -4 32 5 58 20 83 48 150 115 192 188 33 57 66 170 48 159
-9 -5 -9 -3 -2 8 6 8 10 23 9 34 -1 11 -2 37 -3 58 -1 26 -5 36 -13 31 -6 -4
-8 -3 -4 4 8 13 -24 83 -36 76 -4 -3 -8 2 -8 10 0 18 -40 57 -50 51 -5 -3 -10
1 -13 9 -14 35 -183 57 -267 35z m27 -144 c0 -8 -4 -12 -9 -9 -5 3 -6 10 -3
15 9 13 12 11 12 -6z m240 -50 c0 -8 -4 -12 -9 -9 -5 3 -6 10 -3 15 9 13 12
11 12 -6z m-282 -125 c3 -5 1 -10 -4 -10 -6 0 -11 5 -11 10 0 6 2 10 4 10 3 0
8 -4 11 -10z m85 6 c0 -3 -4 -8 -10 -11 -5 -3 -10 -1 -10 4 0 6 5 11 10 11 6
0 10 -2 10 -4z m-116 -124 c3 -5 -1 -9 -9 -9 -8 0 -12 4 -9 9 3 4 7 8 9 8 2 0
6 -4 9 -8z m-209 -42 c3 -5 1 -10 -4 -10 -6 0 -11 5 -11 10 0 6 2 10 4 10 3 0
8 -4 11 -10z m85 6 c0 -3 -4 -8 -10 -11 -5 -3 -10 -1 -10 4 0 6 5 11 10 11 6
0 10 -2 10 -4z m357 -21 c0 -8 -4 -12 -9 -9 -5 3 -6 10 -3 15 9 13 12 11 12
-6z m-117 -65 c0 -5 -5 -10 -11 -10 -5 0 -7 5 -4 10 3 6 8 10 11 10 2 0 4 -4
4 -10z m-85 -80 c3 -5 1 -10 -4 -10 -6 0 -11 5 -11 10 0 6 2 10 4 10 3 0 8 -4
11 -10z m85 6 c0 -3 -4 -8 -10 -11 -5 -3 -10 -1 -10 4 0 6 5 11 10 11 6 0 10
-2 10 -4z"/>
<path d="M1675 3481 c-3 -5 -1 -12 5 -16 5 -3 10 1 10 9 0 18 -6 21 -15 7z"/>
<path d="M2395 3480 c-3 -5 -2 -10 4 -10 5 0 13 5 16 10 3 6 2 10 -4 10 -5 0
-13 -4 -16 -10z"/>
<path d="M1884 3455 c-12 -6 -29 -16 -37 -23 -12 -10 -18 -10 -31 3 -12 13
-16 13 -16 3 0 -14 58 -54 66 -45 3 3 6 14 7 25 0 11 4 19 8 16 7 -4 35 24 28
30 -2 1 -14 -2 -25 -9z"/>
<path d="M1882 3406 l-30 -43 31 2 c31 2 67 37 66 65 0 12 -2 12 -13 -2 -7
-10 -16 -15 -19 -11 -4 3 -7 -3 -7 -15 0 -12 -4 -22 -9 -22 -14 0 0 41 15 47
16 6 19 23 5 23 -5 0 -23 -20 -39 -44z"/>
<path d="M1565 3412 c5 -17 1 -30 -15 -47 -12 -13 -19 -28 -16 -33 11 -18 -5
-40 -36 -53 -27 -11 -32 -10 -43 4 -11 16 -13 16 -27 -1 -8 -9 -21 -26 -27
-37 -10 -16 -11 -16 -7 -2 3 10 2 15 -4 12 -10 -6 -9 -40 2 -51 4 -3 4 -12 1
-20 -3 -8 1 -14 11 -14 9 0 16 -5 16 -11 0 -5 -4 -8 -8 -5 -12 7 -8 -25 7 -62
7 -17 18 -29 23 -26 5 3 8 0 7 -7 -3 -16 22 -64 48 -94 24 -28 119 -103 109
-87 -4 6 -3 12 3 12 5 0 13 -9 16 -20 3 -11 13 -20 21 -20 8 0 25 -7 37 -15
12 -8 39 -16 59 -19 21 -2 42 -7 48 -11 5 -3 10 -2 10 4 0 6 -12 17 -27 26
-27 15 -27 15 -3 9 22 -6 23 -5 11 9 -7 9 -17 14 -22 11 -5 -3 -9 0 -9 6 0 7
8 9 22 4 20 -6 21 -5 9 10 -9 10 -10 16 -2 16 11 0 15 -13 11 -39 -1 -13 1
-13 14 -2 11 9 16 10 16 2 0 -6 -4 -11 -9 -11 -5 0 -8 -8 -6 -17 2 -10 4 -23
4 -30 1 -14 31 -6 31 9 0 5 -4 6 -10 3 -5 -3 -10 -1 -10 4 0 6 5 11 11 11 5 0
7 5 4 10 -4 6 -3 10 2 9 16 -4 43 13 43 28 0 12 -2 12 -16 -1 -18 -18 -34 -21
-34 -5 0 5 4 8 9 5 5 -3 14 1 21 9 9 11 9 19 -3 35 -10 15 -17 18 -22 10 -4
-7 -1 -16 6 -21 7 -4 10 -11 6 -16 -11 -11 -28 19 -22 38 8 25 -19 43 -35 23
-8 -9 -22 -13 -36 -10 -29 8 -50 -16 -29 -34 8 -7 15 -17 15 -22 0 -6 -8 0
-18 12 -20 24 -24 23 -56 -24 -10 -15 -15 -16 -21 -6 -5 8 -4 11 2 7 11 -7 35
37 26 47 -12 11 -22 6 -17 -8 7 -19 -12 -29 -32 -18 -11 6 -13 11 -5 16 6 4
11 2 11 -3 0 -6 4 -11 9 -11 5 0 9 11 9 25 0 24 -12 34 -21 18 -2 -5 -2 -2 0
5 1 8 -2 12 -9 10 -6 -2 -12 -14 -13 -26 -1 -12 -5 -25 -10 -29 -4 -5 -6 -1
-2 8 3 9 -1 26 -9 38 -9 12 -11 21 -5 21 6 0 11 -5 11 -10 0 -6 12 -3 28 7 15
9 24 13 20 9 -4 -5 3 -17 15 -26 22 -18 37 -18 37 1 0 6 -4 8 -9 5 -5 -3 -14
1 -21 9 -9 10 -9 15 -1 15 6 0 11 -3 11 -7 0 -5 18 -8 40 -9 l40 0 -21 22
c-12 12 -18 27 -15 33 4 5 -3 16 -14 24 -11 7 -17 17 -14 20 4 3 15 -4 25 -16
10 -12 18 -17 19 -12 0 6 -5 16 -12 23 -8 8 -8 15 2 27 7 8 10 19 6 22 -4 4
-11 1 -16 -7 -6 -9 -10 -10 -10 -3 0 21 21 25 40 8 11 -10 18 -21 15 -24 -8
-15 14 -34 42 -36 l30 -2 -41 63 c-23 35 -45 63 -49 63 -5 1 -5 -3 -2 -9 3 -5
1 -10 -4 -10 -19 0 -12 19 15 37 43 30 107 93 94 93 -6 0 -24 -13 -38 -28 -42
-44 -77 -63 -107 -58 -22 4 -26 2 -21 -12 5 -14 4 -14 -8 2 -9 11 -22 16 -31
13 -18 -8 -45 1 -45 15 0 5 5 6 10 3 18 -11 11 5 -14 32 -23 25 -25 53 -4 53
6 0 5 -6 -2 -15 -16 -19 -7 -19 29 -1 40 21 56 42 36 50 -8 3 -15 12 -15 21 0
9 -6 15 -12 14 -25 -3 -38 1 -38 12 0 8 5 8 15 -1 26 -22 16 5 -11 31 l-26 24
7 -23z m48 -65 c4 3 7 1 7 -5 0 -18 -15 -15 -41 9 l-24 20 26 -15 c14 -9 29
-13 32 -9z m15 -26 c16 12 16 12 1 -5 -13 -14 -21 -16 -37 -7 -17 9 -23 7 -36
-11 -9 -12 -16 -18 -16 -14 0 5 7 18 17 28 9 11 11 18 5 18 -7 0 -12 5 -12 11
0 6 14 1 30 -11 26 -18 33 -20 48 -9z m-187 -55 c-6 -8 -10 -19 -9 -26 2 -7
-3 -14 -10 -15 -7 -2 -8 -1 -2 2 5 2 7 9 4 14 -5 9 12 39 23 39 3 0 0 -6 -6
-14z m89 4 c0 -5 -2 -10 -4 -10 -3 0 -8 5 -11 10 -3 6 -1 10 4 10 6 0 11 -4
11 -10z m0 -34 c0 -6 -5 -5 -12 2 -17 17 -25 15 -31 -8 -3 -13 2 -25 16 -35
12 -8 17 -15 13 -15 -5 0 -17 7 -26 15 -15 14 -18 14 -30 0 -9 -11 -9 -19 -2
-28 8 -9 3 -17 -21 -30 l-32 -17 24 21 c21 17 22 22 10 30 -7 5 -18 9 -23 9
-5 0 -6 3 -3 7 4 3 -1 12 -11 20 -15 13 -15 13 4 4 24 -12 44 2 44 31 0 10 4
18 9 18 13 0 2 -37 -15 -51 -8 -6 -14 -16 -14 -22 0 -17 37 23 50 53 10 25 14
27 31 17 10 -6 19 -16 19 -21z m34 3 c-3 -5 0 -9 5 -9 6 0 11 -5 11 -11 0 -8
-5 -7 -16 2 -13 11 -15 11 -14 -2 4 -26 0 -39 -11 -39 -8 0 -7 5 2 16 11 13
11 15 -2 14 -26 -4 -39 0 -39 11 0 9 4 9 13 0 11 -8 18 -6 32 9 10 11 13 20 7
20 -7 0 -12 5 -12 11 0 8 5 8 15 -1 8 -7 12 -16 9 -21z m10 -61 c-14 -23 -11
-49 8 -62 10 -7 15 -16 12 -19 -4 -3 -15 4 -25 16 -20 25 -25 17 -7 -12 9 -14
8 -23 -5 -42 -10 -13 -17 -19 -17 -13 0 5 5 15 11 21 8 8 8 17 0 32 -9 16 -9
27 0 44 7 12 12 24 12 27 -1 11 10 31 14 26 3 -3 1 -11 -3 -18z m-48 -11 c16
6 20 -22 4 -32 -5 -3 -7 0 -4 9 4 12 0 14 -21 10 -17 -3 -24 -1 -20 6 3 5 1
10 -4 10 -6 0 -11 5 -11 11 0 6 9 4 21 -5 12 -8 28 -12 35 -9z m84 19 c0 -2
-7 -9 -15 -16 -13 -11 -14 -10 -9 4 5 14 24 23 24 12z m48 -16 c14 -24 32 -26
32 -5 0 8 4 15 8 15 15 0 9 -27 -7 -37 -12 -7 -21 -3 -39 19 -13 15 -20 28
-15 28 4 0 14 -9 21 -20z m-9 -30 c10 -14 11 -21 4 -16 -9 5 -13 1 -13 -10 0
-10 3 -14 7 -11 3 4 12 -1 20 -11 14 -16 14 -16 9 2 -6 18 17 45 39 46 5 0 -1
-7 -13 -16 -12 -8 -20 -20 -17 -25 4 -5 -1 -19 -10 -31 -14 -20 -16 -20 -13
-4 2 10 -2 21 -9 23 -7 2 -10 -3 -8 -14 2 -10 4 -24 4 -31 1 -7 7 -12 14 -11
24 3 37 -1 37 -12 0 -8 -6 -7 -16 2 -15 12 -16 11 -9 -11 l8 -25 -21 25 c-12
14 -21 20 -22 15 0 -6 5 -16 12 -23 7 -7 8 -12 2 -12 -6 0 -16 12 -22 26 -7
14 -8 23 -2 19 5 -3 10 1 10 10 0 9 -4 14 -9 11 -5 -3 -11 1 -15 9 -3 9 -12
12 -23 9 -14 -5 -15 -4 -4 4 7 5 18 16 23 23 7 11 8 9 6 -5 -2 -10 2 -21 9
-23 7 -2 10 3 8 14 -2 10 -4 24 -4 31 -1 7 -7 12 -13 11 -25 -3 -38 1 -38 12
0 8 6 7 17 -2 15 -12 16 -12 11 3 -14 36 17 35 41 -2z m-179 -10 c-35 -24 -54
-31 -30 -11 14 11 30 21 35 21 6 0 3 -5 -5 -10z m53 -19 c16 -28 14 -61 -4
-61 -9 0 -13 15 -10 34 1 5 -5 6 -13 3 -11 -4 -13 -1 -9 11 6 15 5 15 -10 3
-9 -7 -17 -9 -17 -3 0 17 28 22 41 6 6 -8 14 -12 17 -9 3 3 -3 14 -13 25 -10
11 -14 20 -9 20 5 0 17 -13 27 -29z m237 7 c22 -34 31 -58 20 -58 -6 0 -10 8
-10 17 0 9 -10 27 -22 40 -12 13 -17 23 -12 23 5 0 16 -10 24 -22z m-310 -28
c0 -5 -5 -10 -11 -10 -5 0 -7 5 -4 10 3 6 8 10 11 10 2 0 4 -4 4 -10z m30 -25
c4 3 11 -2 14 -10 4 -13 2 -14 -14 -5 -11 6 -20 16 -19 23 0 9 2 9 6 -1 2 -6
8 -10 13 -7z m100 -15 c-8 -5 -11 -13 -6 -17 4 -4 15 1 23 12 11 14 14 15 10
4 -3 -9 1 -26 9 -37 12 -17 12 -21 -1 -26 -8 -3 -21 -3 -28 0 -8 3 -19 -1 -26
-9 -9 -11 -8 -17 4 -27 8 -7 15 -20 15 -29 0 -10 -5 -7 -13 9 -8 14 -19 24
-26 22 -19 -4 -43 19 -37 34 3 8 -4 18 -14 24 -11 6 -20 16 -20 23 0 7 4 6 10
-3 5 -8 10 -10 10 -5 0 6 5 2 11 -8 6 -9 15 -14 21 -11 7 5 8 2 3 -6 -6 -10
-4 -12 8 -7 12 4 14 2 10 -11 -6 -15 -5 -15 11 -3 17 14 17 16 0 28 -10 7 -15
15 -12 18 3 3 11 -1 18 -10 7 -8 17 -15 23 -15 5 0 2 9 -7 19 -18 20 -14 41 7
41 7 0 6 -4 -3 -10z m-50 -20 c0 -5 -4 -10 -10 -10 -5 0 -10 5 -10 10 0 6 5
10 10 10 6 0 10 -4 10 -10z m175 -40 c3 -5 1 -10 -4 -10 -6 0 -11 5 -11 10 0
6 2 10 4 10 3 0 8 -4 11 -10z m97 -59 c-10 -6 -10 -11 3 -21 8 -7 15 -17 15
-22 0 -6 -8 0 -18 12 -16 20 -20 21 -33 7 -14 -13 -17 -13 -27 4 -8 12 -8 19
-2 19 5 0 10 -5 10 -11 0 -6 12 -2 27 9 16 11 30 18 33 16 2 -3 -1 -9 -8 -13z
m-91 -43 c1 -7 0 -20 -1 -27 -1 -13 1 -13 14 -2 9 8 16 9 16 5 0 -5 -10 -15
-22 -23 -13 -7 -20 -10 -15 -6 4 5 -1 17 -10 27 -16 18 -16 18 3 12 17 -7 17
-6 5 9 -9 11 -10 17 -2 17 6 0 12 -6 12 -12z m44 -66 c-3 -3 -11 0 -18 7 -9
10 -8 11 6 5 10 -3 15 -9 12 -12z"/>
<path d="M1620 3145 c7 -9 15 -13 17 -11 7 7 -7 26 -19 26 -6 0 -6 -6 2 -15z"/>
<path d="M1515 3080 c-3 -5 -1 -10 4 -10 6 0 11 5 11 10 0 6 -2 10 -4 10 -3 0
-8 -4 -11 -10z"/>
<path d="M1593 3012 c0 -12 5 -22 9 -22 11 0 10 12 -2 30 -7 12 -9 10 -7 -8z"/>
<path d="M1510 2982 c0 -12 19 -26 26 -19 2 2 -2 10 -11 17 -9 8 -15 8 -15 2z"/>
<path d="M1798 3398 c0 -7 -2 -17 -3 -23 -2 -5 -3 -16 -4 -22 0 -7 -6 -13 -12
-13 -8 0 -8 5 1 15 15 18 -1 20 -18 3 -17 -17 -15 -25 8 -31 13 -3 25 2 35 16
8 12 15 17 15 13 0 -5 -7 -18 -16 -28 -27 -29 -4 -44 65 -42 41 1 64 -3 72
-12 7 -9 8 -14 1 -14 -6 0 -12 6 -15 13 -2 6 -8 9 -12 5 -4 -4 -3 -13 3 -20 6
-7 11 -17 12 -23 6 -25 13 -35 27 -35 12 0 12 2 -1 16 -18 18 -21 34 -5 34 5
0 8 -4 5 -9 -3 -5 1 -14 9 -21 11 -9 19 -9 35 3 15 10 18 17 10 22 -7 4 -16 1
-21 -6 -4 -7 -11 -10 -16 -6 -10 11 18 28 36 22 22 -8 44 15 30 31 -6 8 -16
14 -21 14 -6 0 -5 -7 2 -15 9 -10 9 -15 1 -15 -6 0 -11 5 -11 12 0 6 -7 4 -18
-5 -10 -10 -23 -17 -28 -17 -4 0 1 7 13 15 25 17 21 41 -8 50 -10 4 -19 11
-19 16 0 5 10 3 23 -4 12 -8 32 -13 45 -12 12 1 25 -2 29 -8 4 -6 1 -7 -7 -2
-8 5 -11 3 -8 -6 3 -8 11 -13 17 -11 7 1 10 -2 6 -8 -3 -5 -1 -10 4 -10 6 0
-8 -18 -30 -40 -23 -22 -36 -40 -30 -40 6 0 30 18 52 40 23 22 37 40 31 40 -6
0 -14 10 -18 22 -8 27 -83 108 -99 108 -12 0 -55 -53 -55 -67 1 -4 15 8 32 27
17 19 28 27 25 18 -7 -20 17 -42 38 -35 8 4 16 3 19 -1 9 -15 -38 -11 -55 4
-13 12 -18 12 -26 2 -15 -19 -12 -50 3 -44 8 3 11 0 7 -10 -3 -7 -1 -14 5 -14
6 0 13 6 15 13 4 9 6 9 6 0 2 -21 -20 -25 -40 -7 -10 9 -17 19 -15 21 9 9 -36
44 -50 39 -17 -7 -44 3 -44 16 0 5 5 6 10 3 17 -11 11 7 -7 21 -23 17 -33 17
-35 2z m22 -18 c0 -5 -2 -10 -4 -10 -3 0 -8 5 -11 10 -3 6 -1 10 4 10 6 0 11
-4 11 -10z m175 0 c3 -5 1 -10 -4 -10 -6 0 -11 5 -11 10 0 6 2 10 4 10 3 0 8
-4 11 -10z m-158 -48 c-10 -10 -14 -22 -10 -25 3 -4 1 -7 -5 -7 -7 0 -12 2
-12 5 0 11 25 45 34 45 5 0 2 -8 -7 -18z m59 1 c17 -22 17 -33 2 -33 -6 0 -8
3 -5 7 4 3 0 15 -10 25 -9 10 -13 18 -8 18 4 0 14 -8 21 -17z m-22 -12 c3 -5
0 -14 -8 -20 -10 -9 -15 -8 -19 3 -9 22 15 37 27 17z"/>
<path d="M2520 3379 c0 -5 5 -7 10 -4 6 3 10 8 10 11 0 2 -4 4 -10 4 -5 0 -10
-5 -10 -11z"/>
<path d="M1407 3358 c-3 -10 -1 -16 4 -12 5 3 6 -2 3 -10 -3 -9 -10 -13 -15
-10 -5 3 -9 0 -9 -5 0 -6 5 -11 10 -11 6 0 10 -5 10 -11 0 -5 -4 -7 -10 -4 -5
3 -10 -1 -10 -9 0 -33 36 -8 39 27 3 40 5 45 18 40 7 -3 13 -1 13 5 0 5 -11
12 -24 14 -18 4 -26 0 -29 -14z"/>
<path d="M2390 3322 c0 -4 10 -9 22 -9 18 -2 20 0 8 7 -18 12 -30 13 -30 2z"/>
<path d="M2000 3309 c0 -5 5 -7 10 -4 6 3 10 8 10 11 0 2 -4 4 -10 4 -5 0 -10
-5 -10 -11z"/>
<path d="M2370 3258 c-23 -38 -25 -48 -7 -49 6 0 20 -2 30 -4 21 -4 22 3 1 26
-16 18 -11 44 7 34 5 -4 9 -2 9 4 0 25 -22 19 -40 -11z"/>
<path d="M1847 3261 c-20 -13 -25 -21 -17 -26 7 -4 16 -1 21 6 4 7 11 10 16 6
10 -11 -19 -28 -38 -22 -9 3 -24 -4 -34 -15 -10 -11 -24 -20 -32 -20 -18 0
-16 -10 7 -45 11 -16 25 -39 32 -50 21 -31 35 -44 42 -38 3 4 6 2 6 -4 0 -14
-26 -24 -44 -17 -8 3 -23 -3 -33 -13 -21 -21 -27 -73 -8 -73 20 0 35 24 25 39
-10 17 -2 41 12 41 7 0 6 -5 -1 -14 -9 -11 -2 -24 34 -61 59 -63 65 -83 32
-107 -24 -18 -28 -48 -5 -48 5 0 6 5 3 10 -4 6 -1 18 6 26 10 12 14 12 20 2 5
-7 9 -17 9 -23 0 -5 -4 -3 -10 5 -5 8 -12 11 -15 8 -4 -4 -4 -11 0 -17 8 -14
35 -14 35 -1 0 5 8 9 18 8 43 -3 54 2 49 22 -3 11 -1 20 4 20 5 0 9 -7 9 -15
0 -9 6 -12 15 -9 8 4 15 10 15 16 0 5 -4 6 -10 3 -5 -3 -8 0 -5 7 4 9 -6 13
-35 14 l-40 0 21 -22 c18 -19 18 -22 4 -28 -24 -9 -32 -7 -15 4 8 5 11 12 7
16 -3 4 -14 1 -24 -7 -11 -9 -14 -10 -9 -1 4 6 2 12 -3 12 -6 0 -11 5 -11 11
0 8 5 8 15 -1 42 -35 -4 32 -72 106 -35 37 -39 44 -23 44 6 0 10 -8 10 -17 0
-13 3 -14 12 -5 8 8 8 15 -2 27 -7 8 -8 15 -2 15 13 0 23 -26 16 -43 -3 -8 1
-19 9 -26 11 -9 17 -8 27 4 14 17 40 20 40 4 0 -5 -5 -7 -10 -4 -17 10 -38
-14 -33 -35 6 -23 14 -25 31 -8 9 9 15 9 24 0 7 -7 17 -12 23 -12 5 1 0 9 -12
19 -12 10 -20 21 -16 24 3 4 13 -3 22 -15 16 -19 18 -19 34 -3 22 22 21 30 -4
32 -17 2 -18 -1 -9 -13 9 -10 9 -14 1 -14 -11 0 -15 13 -12 38 1 6 -2 12 -8
12 -5 0 -12 -6 -15 -12 -3 -7 -4 -4 -3 6 1 10 -4 21 -12 24 -9 3 -11 0 -6 -9
5 -8 4 -11 0 -6 -5 4 -19 0 -32 -8 -13 -9 -23 -11 -23 -5 0 5 5 10 12 10 6 0
4 7 -5 18 -10 10 -17 23 -17 28 0 4 7 -2 16 -14 12 -18 19 -20 35 -11 15 8 24
7 35 -2 8 -6 17 -9 20 -6 6 6 -54 47 -70 47 -5 0 -3 -7 4 -15 9 -10 9 -15 1
-15 -11 0 -15 13 -12 38 1 6 -2 12 -8 12 -5 0 -12 -6 -15 -12 -3 -7 -4 -4 -1
8 7 28 -22 54 -37 33 -8 -12 -9 -12 -5 1 2 9 14 14 27 12 19 -2 21 0 10 13 -9
10 -9 15 -1 15 11 0 15 -13 12 -37 -1 -7 2 -13 8 -13 5 0 12 6 15 13 2 6 4 1
3 -12 -1 -17 6 -29 23 -38 22 -11 27 -11 42 8 10 12 15 25 12 30 -3 5 0 9 5 9
16 0 13 -14 -9 -43 -17 -21 -18 -26 -5 -37 8 -6 19 -9 24 -6 5 4 12 2 16 -4 3
-5 11 -10 17 -10 6 0 3 9 -7 20 -18 20 -18 21 1 14 17 -7 17 -6 5 9 -9 11 -10
17 -2 17 11 0 15 -13 12 -37 -1 -7 2 -13 8 -13 5 0 12 6 15 13 3 6 4 4 3 -7
-1 -11 7 -22 21 -27 12 -5 22 -5 22 1 0 5 -8 11 -17 14 -15 4 -15 5 2 4 40 -1
47 2 41 17 -3 8 0 15 7 15 8 0 6 4 -3 10 -8 5 -10 10 -3 10 6 0 10 8 8 18 -2
9 -4 30 -4 45 -1 25 -4 27 -23 22 l-23 -7 22 17 c22 15 22 17 7 40 -9 14 -13
25 -10 25 4 0 2 9 -4 20 -6 11 -16 17 -25 14 -8 -4 -12 -10 -9 -15 3 -5 10 -7
15 -4 5 4 9 1 9 -5 0 -6 -8 -9 -18 -6 -12 4 -25 -1 -36 -13 -14 -15 -29 -19
-63 -17 -50 3 -104 -27 -84 -47 6 -6 11 -15 11 -21 0 -5 -6 -1 -14 10 -9 12
-11 23 -5 29 15 15 10 28 -6 15 -10 -9 -15 -9 -15 -1 0 11 13 15 39 11 13 -1
13 1 2 14 -8 9 -9 16 -3 16 6 0 12 -6 15 -12 2 -7 8 -10 12 -6 4 4 2 15 -6 24
-8 10 -13 19 -12 20 6 9 -10 34 -21 34 -6 0 -24 -9 -39 -19z m47 -7 c8 -22 8
-24 -6 -24 -6 0 -8 3 -5 7 4 3 2 12 -4 20 -7 8 -8 13 -1 13 5 0 13 -7 16 -16z
m-32 -50 c-18 -12 -20 -19 -12 -35 17 -31 -4 -21 -22 11 -9 17 -13 30 -8 30 6
0 10 -5 10 -12 0 -8 6 -6 17 5 10 9 22 17 27 17 6 0 0 -7 -12 -16z m208 -5 c0
-8 6 -7 18 2 15 12 16 12 5 -2 -7 -9 -10 -19 -6 -22 3 -4 0 -13 -7 -22 -15
-18 -10 -25 17 -28 11 0 20 -7 20 -13 0 -10 -5 -10 -20 -3 -10 6 -21 8 -24 6
-6 -7 39 -32 51 -29 5 2 4 -3 -3 -11 -6 -8 -11 -19 -10 -23 3 -20 -2 -34 -12
-34 -8 0 -8 5 1 15 8 10 9 15 2 15 -6 0 -16 -8 -22 -17 -10 -15 -11 -15 -7 -2
3 9 -1 26 -9 38 -9 12 -11 21 -5 21 6 0 11 -5 11 -11 0 -5 4 -7 10 -4 6 4 7
-1 3 -12 -6 -16 -5 -16 11 -4 17 14 16 16 -6 33 -28 21 -32 22 -47 4 -9 -10
-8 -16 4 -26 8 -7 15 -17 15 -22 0 -6 -8 0 -18 12 -17 21 -19 21 -34 6 -9 -8
-18 -21 -21 -28 -2 -7 -7 -10 -11 -7 -4 4 11 25 34 48 22 22 35 41 29 41 -6 0
-18 -8 -25 -17 -10 -13 -12 -13 -9 -3 4 12 -4 15 -35 16 -37 0 -38 -1 -24 -17
17 -18 12 -39 -9 -39 -7 0 -6 4 3 10 8 5 11 12 7 16 -3 4 -13 1 -22 -6 -10 -8
-15 -9 -15 -1 0 6 5 11 10 11 6 0 10 5 10 11 0 5 -4 7 -10 4 -5 -3 -10 -1 -10
4 0 6 5 11 11 11 6 0 3 8 -6 17 -16 16 -16 17 1 30 10 7 23 13 28 12 6 0 5 -3
-3 -6 -11 -5 -11 -7 0 -15 10 -6 6 -7 -11 -3 -24 7 -24 6 -8 -11 14 -14 20
-15 32 -5 9 8 14 16 12 20 -3 4 -1 13 3 19 6 10 11 9 21 -3 11 -13 10 -14 -5
-9 -12 5 -16 4 -12 -3 4 -6 0 -19 -9 -27 -10 -11 -11 -16 -3 -16 6 0 18 8 25
18 10 12 12 12 9 2 -4 -12 4 -15 35 -16 36 0 38 1 25 16 -8 9 -12 20 -9 23 4
4 1 15 -7 24 -13 16 -12 17 4 4 10 -8 16 -20 13 -28 -3 -7 -2 -13 3 -13 18 0
20 15 6 37 -9 13 -11 23 -5 23 5 0 10 -5 10 -11z m-257 -54 c-10 -8 -20 -11
-23 -9 -2 3 2 9 10 14 13 8 13 13 2 32 -13 22 -13 22 8 -1 19 -22 19 -24 3
-36z m-23 26 c0 -6 -4 -12 -8 -15 -5 -3 -9 1 -9 9 0 8 4 15 9 15 4 0 8 -4 8
-9z m237 -11 c-1 -11 -5 -20 -9 -20 -3 0 -6 9 -5 20 1 11 5 20 9 20 3 0 6 -9
5 -20z m-188 -23 c-2 -1 -13 -9 -24 -17 -19 -14 -19 -14 -6 3 7 9 18 17 24 17
6 0 8 -1 6 -3z m11 -57 c0 -5 -5 -10 -11 -10 -5 0 -7 5 -4 10 3 6 8 10 11 10
2 0 4 -4 4 -10z m-70 -100 c0 -5 -5 -10 -11 -10 -5 0 -7 5 -4 10 3 6 8 10 11
10 2 0 4 -4 4 -10z m140 -34 c0 -3 -4 -8 -10 -11 -5 -3 -10 -1 -10 4 0 6 5 11
10 11 6 0 10 -2 10 -4z"/>
<path d="M2505 3201 c-3 -5 -30 -8 -60 -7 -36 2 -54 -1 -52 -8 2 -6 13 -10 23
-9 11 2 14 0 5 -4 -9 -3 -10 -8 -3 -12 7 -4 5 -10 -6 -17 -14 -9 -22 -5 -42
20 -14 17 -20 27 -13 23 6 -4 14 -3 18 3 10 15 -18 12 -43 -6 -25 -18 -29 -46
-7 -64 8 -7 15 -18 15 -24 0 -6 -5 -4 -10 4 -7 11 -8 7 -6 -15 2 -17 8 -30 14
-30 6 0 14 -4 19 -9 5 -5 3 -6 -4 -2 -7 4 -13 2 -13 -4 0 -6 -5 -8 -12 -4 -7
4 -8 3 -4 -5 8 -13 37 -11 49 4 5 6 7 4 4 -5 -2 -8 -10 -14 -16 -12 -15 3 -14
-4 7 -35 9 -15 11 -24 5 -20 -9 5 -13 2 -13 -8 0 -9 5 -13 10 -10 6 3 10 1 10
-4 0 -21 3 -26 22 -39 15 -11 22 -11 34 -1 14 12 14 15 -5 30 -11 9 -18 19
-14 22 3 4 13 -3 22 -15 16 -19 18 -19 33 -4 9 8 18 21 21 28 2 7 7 10 11 7 4
-4 -11 -25 -34 -48 -22 -22 -35 -41 -29 -41 6 0 18 8 25 18 10 12 12 12 9 2
-4 -12 4 -15 35 -16 37 0 38 1 24 17 -17 18 -12 39 9 39 7 0 6 -4 -3 -10 -8
-5 -12 -12 -8 -15 8 -9 48 13 48 26 0 6 5 7 10 4 6 -3 10 1 10 10 0 9 -5 13
-10 10 -6 -4 -5 5 2 19 6 14 16 26 21 26 5 0 4 -7 -3 -15 -7 -9 -10 -18 -7
-21 3 -3 12 3 19 15 7 12 17 21 22 21 6 0 5 -5 -2 -12 -17 -17 -15 -33 3 -18
10 9 15 9 15 1 0 -11 -13 -15 -37 -12 -7 1 -13 -4 -14 -11 0 -7 -2 -21 -4 -31
-2 -11 1 -16 8 -14 7 2 11 13 9 23 -3 16 -1 16 13 -4 9 -12 14 -26 10 -31 -3
-5 5 -17 17 -25 12 -9 18 -16 13 -16 -22 1 -45 28 -39 46 5 18 5 18 -9 2 -8
-10 -17 -15 -20 -11 -4 3 -7 -1 -7 -11 0 -10 5 -14 11 -10 8 4 8 0 0 -15 -9
-15 -9 -27 -1 -41 8 -14 8 -26 -1 -41 -8 -15 -8 -24 0 -32 6 -6 11 -16 11 -21
0 -6 -7 0 -17 13 -13 19 -14 27 -4 43 7 11 10 22 7 25 -2 3 -10 -4 -17 -15
-12 -19 -39 -20 -39 -1 0 4 6 6 14 3 17 -7 29 10 31 48 3 28 2 28 -17 12 -15
-14 -18 -15 -13 -3 7 18 -23 22 -43 6 -13 -10 1 -37 20 -37 6 0 5 7 -2 15 -7
9 -8 15 -2 15 5 0 13 -7 16 -16 3 -8 10 -12 16 -9 5 3 10 1 10 -5 0 -7 -7 -10
-15 -7 -8 4 -17 1 -21 -4 -4 -6 -12 -2 -20 10 -10 13 -21 18 -32 14 -9 -4 -4
5 12 20 16 15 23 27 16 27 -7 0 -19 -8 -26 -17 -10 -13 -12 -13 -9 -3 4 12 -4
15 -35 16 -38 0 -39 -1 -23 -18 13 -15 14 -18 2 -13 -19 7 -23 -29 -5 -44 10
-8 17 -7 26 4 7 8 17 15 23 15 6 0 2 -7 -10 -15 -14 -10 -19 -22 -16 -35 6
-23 14 -25 31 -8 9 9 12 9 12 0 0 -7 -4 -12 -10 -12 -5 0 -10 -5 -10 -11 0 -5
5 -7 10 -4 6 3 10 1 10 -4 0 -6 -5 -11 -11 -11 -5 0 -7 -5 -4 -10 5 -7 11 -8
19 -1 8 7 15 4 23 -9 8 -12 19 -16 33 -13 23 6 25 14 8 31 -17 17 -33 15 -18
-3 9 -10 9 -15 1 -15 -11 0 -15 13 -12 38 1 6 -2 12 -8 12 -5 0 -12 -6 -15
-12 -3 -7 -4 -4 -1 8 7 28 -22 54 -37 33 -8 -12 -9 -12 -5 1 2 9 14 14 27 12
19 -2 21 0 10 13 -9 10 -9 15 -1 15 11 0 15 -13 12 -37 -1 -7 2 -13 8 -13 5 0
12 6 15 13 3 6 4 3 1 -9 -6 -22 39 -73 52 -60 4 4 1 11 -7 16 -9 6 -10 10 -3
10 21 0 26 -21 9 -39 -9 -10 -13 -21 -9 -24 10 -10 25 -8 19 2 -3 5 1 14 9 21
10 9 15 9 15 1 0 -6 -3 -11 -7 -11 -5 0 -8 -17 -9 -38 l0 -39 43 29 c24 16 41
34 38 39 -8 13 -26 11 -23 -2 2 -6 -7 -15 -19 -20 -14 -5 -23 -5 -23 1 0 6 9
10 20 10 11 0 19 3 19 8 -3 19 2 33 11 27 6 -3 10 1 10 10 0 9 -5 13 -11 9 -8
-4 -8 0 0 15 8 15 9 27 1 40 -11 21 5 71 23 71 5 0 2 -11 -7 -25 -22 -33 -20
-45 3 -18 10 12 21 19 25 16 3 -3 -2 -11 -11 -18 -8 -6 -17 -26 -18 -44 l-3
-32 24 22 c26 24 34 49 9 29 -10 -9 -15 -9 -15 -1 0 11 13 15 38 12 13 -2 17
15 5 22 -5 2 -2 2 5 1 17 -5 36 45 22 61 -5 6 -6 16 -2 21 4 5 -3 0 -16 -10
-14 -13 -20 -26 -16 -38 3 -10 1 -18 -5 -18 -21 0 -19 18 6 53 23 32 24 39 12
53 -8 10 -12 18 -9 18 9 3 -32 86 -42 86 -5 0 -6 4 -3 10 3 5 0 21 -8 35 -12
24 -15 25 -27 10 -7 -8 -10 -19 -6 -22 4 -4 11 -2 15 6 6 10 10 9 14 -4 5 -11
3 -14 -5 -9 -8 5 -9 1 -4 -11 7 -18 6 -18 -14 0 -19 17 -21 17 -39 1 -20 -18
-42 -14 -40 7 0 9 2 9 6 0 2 -7 9 -13 14 -13 6 0 9 6 8 13 -3 24 1 37 12 37 8
0 8 -5 -1 -15 -7 -8 -8 -15 -2 -15 5 0 15 6 21 14 10 12 8 17 -8 25 -16 9 -22
7 -34 -9 -7 -11 -17 -17 -20 -14 -3 4 4 15 16 25 12 10 17 18 10 19 -6 0 -15
-5 -18 -11 -4 -5 -12 -8 -18 -6 -7 2 -21 0 -32 -6 -11 -5 -17 -6 -13 -2 4 4
-3 16 -15 25 -22 18 -37 18 -37 -1 0 -6 4 -8 9 -5 5 3 14 0 20 -8 9 -11 8 -15
-5 -20 -15 -6 -15 -8 1 -26 21 -23 34 -18 15 5 -7 8 -8 15 -3 15 5 0 15 -12
21 -26 7 -14 8 -23 2 -19 -5 3 -10 -1 -10 -10 0 -9 5 -13 10 -10 9 6 14 -8 11
-27 0 -5 6 -8 14 -8 17 0 20 16 4 25 -6 4 -8 13 -5 20 2 7 -2 22 -10 33 -12
17 -12 21 1 25 10 4 12 1 8 -10 -5 -12 -3 -14 7 -8 10 6 12 4 7 -8 -4 -11 2
-22 16 -32 12 -8 17 -15 11 -15 -5 0 -15 5 -22 12 -9 9 -12 9 -12 0 0 -7 7
-15 15 -18 11 -5 12 -10 3 -24 -7 -10 -15 -17 -19 -14 -4 2 -10 0 -14 -6 -3
-5 1 -10 9 -10 9 0 16 -5 16 -10 0 -7 -6 -7 -19 0 -16 8 -23 6 -35 -12 -8 -12
-13 -25 -10 -30 3 -4 0 -8 -5 -8 -16 0 -13 14 9 43 17 21 18 26 5 37 -8 6 -19
9 -24 6 -5 -4 -12 -2 -16 4 -3 5 -11 10 -17 10 -6 0 -3 -9 7 -20 18 -20 18
-21 -1 -14 -17 7 -17 6 -5 -9 9 -11 10 -17 2 -17 -11 0 -15 13 -12 38 2 13
-15 17 -22 5 -2 -5 -2 -2 0 5 1 8 -2 12 -9 10 -6 -2 -12 -14 -13 -26 -1 -12
-5 -25 -10 -29 -4 -5 -5 -1 -3 7 3 8 1 23 -3 32 -5 9 -6 23 -3 32 5 14 8 14
29 0 18 -12 28 -13 44 -4 12 6 21 7 21 3 0 -4 5 -1 11 7 9 12 10 12 5 -3 -4
-12 -2 -17 6 -14 11 3 13 35 3 45 -2 2 -17 -4 -34 -12 -24 -13 -35 -14 -56 -4
-14 6 -25 16 -25 21 0 5 11 2 25 -7 25 -16 27 -16 74 11 7 4 -21 33 -31 33 -6
0 -6 -6 1 -14 9 -11 8 -15 -5 -20 -20 -8 -51 8 -35 18 6 4 11 2 11 -3 0 -6 4
-11 9 -11 5 0 9 11 9 25 0 24 -12 34 -21 18 -2 -5 -2 -2 0 5 1 8 -3 12 -9 10
-7 -3 -13 -11 -14 -19 -2 -29 -4 -31 -19 -19 -9 7 -19 9 -23 5 -4 -4 -1 -10 6
-12 6 -3 12 -9 12 -15 0 -7 -5 -6 -14 1 -7 6 -13 23 -13 37 0 15 -7 31 -14 36
-11 8 -10 8 4 4 12 -4 17 -2 14 6 -2 7 -13 11 -23 10 -15 -3 -16 -1 -7 8 13
14 29 7 44 -22 8 -15 8 -19 0 -14 -6 4 -11 0 -11 -10 0 -10 3 -14 7 -11 3 4
12 -1 20 -11 13 -16 14 -15 8 4 -4 16 1 24 22 33 16 7 25 10 21 6 -4 -4 3 -16
15 -25 22 -18 37 -18 37 1 0 6 -4 8 -9 5 -5 -3 -14 0 -20 8 -9 10 -8 15 4 20
17 6 12 26 -6 26 -6 0 -7 -4 -4 -10 3 -5 1 -10 -4 -10 -13 0 -14 10 -3 28 7 9
13 8 27 -8 20 -22 44 -28 26 -6 -9 11 -8 15 5 20 20 8 51 -8 35 -18 -6 -4 -11
-2 -11 3 0 6 -4 11 -9 11 -5 0 -8 -11 -8 -25 0 -24 11 -34 20 -17 2 4 2 1 1
-6 -3 -12 34 -11 56 3 5 3 19 1 30 -5 14 -7 20 -8 20 0 0 6 -7 13 -15 16 -8 4
-12 10 -9 15 8 14 -4 11 -32 -7 -28 -19 -43 -12 -24 11 7 9 11 16 9 18 -53 30
-55 31 -64 18z m155 -166 c8 -9 8 -15 2 -15 -6 0 -13 6 -16 13 -5 10 -7 10
-12 0 -3 -7 -10 -13 -16 -13 -6 0 -6 6 2 15 7 8 16 15 20 15 4 0 13 -7 20 -15z
m46 -30 c1 -10 9 -22 16 -26 9 -6 10 -9 1 -9 -7 0 -17 9 -23 20 -6 11 -7 20
-3 20 4 0 1 5 -7 11 -12 8 -12 10 -1 7 8 -2 15 -12 17 -23z m-18 -21 c8 -17 9
-31 2 -43 -9 -18 -4 -31 12 -31 4 0 7 3 7 8 -3 18 2 30 15 35 10 4 13 1 9 -9
-3 -7 -9 -14 -15 -14 -5 0 -7 -4 -4 -9 8 -12 -31 -44 -43 -36 -6 3 -11 12 -11
18 0 7 4 6 10 -3 5 -8 12 -11 16 -7 4 3 1 14 -6 22 -10 12 -10 19 -2 27 7 7
12 17 12 23 -1 5 -9 0 -19 -12 -10 -12 -21 -19 -25 -16 -3 3 3 13 14 20 16 11
18 18 10 34 -6 10 -7 19 -2 19 5 0 14 -12 20 -26z m-263 -64 c3 -5 2 -10 -4
-10 -5 0 -13 5 -16 10 -3 6 -2 10 4 10 5 0 13 -4 16 -10z m316 -7 c-17 -28
-38 -53 -45 -53 -4 0 6 16 21 35 31 38 39 45 24 18z m-84 -85 c-20 -31 -44
-15 -32 22 5 16 9 17 25 8 14 -9 16 -15 7 -30z m108 32 c3 -5 1 -10 -4 -10 -6
0 -11 5 -11 10 0 6 2 10 4 10 3 0 8 -4 11 -10z m-295 -13 c0 -7 -9 -18 -20
-25 -11 -7 -20 -8 -20 -3 0 5 7 12 16 15 8 3 12 10 9 16 -3 5 -1 10 4 10 6 0
11 -6 11 -13z m185 -67 c8 -13 -3 -50 -15 -50 -12 0 -20 28 -14 45 7 17 20 20
29 5z m-75 -26 c0 -2 -7 -4 -15 -4 -8 0 -15 4 -15 10 0 5 7 7 15 4 8 -4 15 -8
15 -10z m70 -44 c0 -5 -4 -10 -10 -10 -5 0 -10 5 -10 10 0 6 5 10 10 10 6 0
10 -4 10 -10z"/>
<path d="M2630 2834 c0 -8 5 -12 10 -9 6 3 10 10 10 16 0 5 -4 9 -10 9 -5 0
-10 -7 -10 -16z"/>
<path d="M2636 2771 c-4 -7 -5 -15 -2 -18 9 -9 19 4 14 18 -4 11 -6 11 -12 0z"/>
<path d="M2380 3165 c7 -8 17 -15 22 -15 6 0 5 7 -2 15 -7 8 -17 15 -22 15 -6
0 -5 -7 2 -15z"/>
<path d="M1727 3084 c-3 -4 -2 -15 4 -25 6 -13 6 -25 0 -38 -10 -18 -6 -31 11
-31 4 0 7 3 7 8 -3 19 2 33 11 27 14 -9 12 7 -5 29 -8 10 -12 23 -9 27 6 10
-10 12 -19 3z"/>
<path d="M1981 3001 c-11 -7 -11 -10 0 -17 8 -5 20 -9 27 -10 24 -4 23 -10
-11 -46 -29 -31 -35 -34 -52 -22 -20 15 -38 9 -32 -9 2 -7 24 -12 49 -12 25 0
52 -6 60 -13 12 -9 19 -7 38 13 13 14 19 25 14 25 -5 0 0 7 10 15 19 14 18 15
-5 25 -23 10 -23 10 4 5 15 -3 27 -1 27 4 0 5 3 18 6 28 5 14 4 15 -4 4 -14
-19 -50 -21 -57 -3 -3 8 -12 12 -21 8 -9 -4 -22 -2 -28 3 -6 6 -18 6 -25 2z
m65 -47 c-5 -19 -3 -22 11 -17 11 4 9 -1 -7 -14 -14 -12 -21 -25 -16 -30 5 -4
11 -2 13 5 3 6 10 12 16 12 6 0 4 -8 -6 -17 -15 -16 -18 -16 -36 1 -12 11 -21
13 -24 6 -3 -6 -4 -5 -3 2 2 7 10 12 18 10 14 -2 17 4 21 52 1 13 6 22 10 19
5 -3 6 -16 3 -29z"/>
<path d="M2323 2995 c0 -8 4 -12 8 -9 4 2 10 0 14 -6 3 -5 -2 -10 -11 -10 -14
0 -15 -3 -6 -12 7 -7 12 -17 12 -22 0 -6 -5 -4 -10 4 -7 12 -9 10 -7 -7 1 -18
4 -20 22 -11 11 6 17 7 13 3 -4 -5 -3 -14 3 -21 12 -14 -8 -74 -24 -74 -4 0 0
13 10 30 12 21 14 33 7 40 -18 18 -37 1 -84 -71 -46 -71 -101 -130 -133 -142
-14 -5 -16 -11 -7 -27 8 -14 8 -26 0 -40 -8 -14 -8 -26 1 -41 8 -15 8 -19 0
-15 -6 4 -11 0 -11 -9 0 -9 4 -14 9 -10 5 3 13 -5 17 -17 l7 -22 17 22 c10 11
20 18 24 15 3 -4 6 1 6 11 0 10 -5 14 -11 10 -8 -4 -8 0 0 15 9 15 9 27 1 41
-7 14 -7 26 -1 39 6 10 7 21 4 25 -3 3 -1 6 5 6 15 0 15 -23 0 -38 -8 -8 -8
-15 1 -26 7 -9 10 -24 6 -37 -5 -14 -3 -19 3 -15 6 3 22 2 36 -4 21 -8 28 -6
40 12 8 12 13 25 10 30 -3 4 0 8 5 8 16 0 13 -14 -9 -43 -17 -21 -17 -27 -6
-36 8 -7 20 -10 27 -9 8 2 14 -4 14 -12 0 -8 -6 -14 -14 -12 -7 1 -19 -2 -27
-9 -11 -9 -11 -15 6 -36 22 -29 25 -43 9 -43 -5 0 -8 4 -5 8 3 5 -2 18 -10 30
-16 24 -40 20 -49 -9 -4 -10 -11 -19 -16 -19 -5 0 -3 10 4 23 13 21 14 44 5
77 -3 8 -3 12 -1 8 2 -4 10 -5 18 -2 22 9 30 -18 10 -32 -10 -8 -16 -16 -13
-19 10 -10 51 31 44 43 -8 13 -66 45 -71 40 -9 -9 -13 -58 -4 -58 5 0 9 -5 9
-11 0 -8 -5 -7 -16 2 -13 11 -15 11 -14 -2 4 -26 0 -39 -11 -39 -8 0 -7 6 2
17 12 15 12 16 -6 9 -17 -6 -17 -4 4 18 14 15 20 26 14 26 -6 0 -16 -7 -23
-15 -7 -8 -16 -12 -22 -9 -5 3 -15 0 -23 -6 -13 -11 -12 -16 5 -37 22 -29 25
-43 9 -43 -5 0 -8 4 -5 9 3 5 -2 19 -12 31 -16 20 -20 21 -33 7 -14 -13 -17
-13 -27 4 -7 10 -8 19 -3 19 5 0 11 -5 13 -10 2 -6 19 3 38 19 19 17 30 30 24
31 -6 0 -17 -7 -25 -16 -7 -9 -21 -13 -35 -10 -29 8 -50 -16 -29 -34 8 -7 15
-17 15 -23 0 -6 -7 -2 -15 10 -10 14 -22 19 -35 16 -23 -6 -25 -14 -8 -31 9
-9 9 -12 0 -12 -7 0 -12 5 -12 10 0 6 -5 10 -11 10 -5 0 -7 -4 -4 -10 3 -5 1
-10 -4 -10 -6 0 -11 5 -11 11 0 6 -7 3 -16 -5 -8 -9 -20 -14 -25 -11 -5 4 -9
2 -9 -4 0 -15 18 -23 25 -11 3 5 11 10 18 10 6 0 2 -6 -9 -14 -12 -9 -23 -11
-29 -5 -15 15 -28 10 -15 -6 8 -9 8 -15 2 -15 -19 0 -19 25 -1 48 10 13 15 30
12 39 -4 11 -3 14 6 9 7 -5 9 -17 5 -29 -6 -21 -5 -21 12 -5 17 17 16 19 -19
54 -20 21 -37 32 -37 26 0 -6 5 -14 10 -17 6 -3 10 -11 10 -18 0 -6 -7 -2 -15
10 -12 17 -13 27 -4 47 7 14 19 28 27 31 12 4 11 1 -3 -15 -19 -21 -19 -22 18
-56 20 -20 37 -30 37 -24 0 6 -12 21 -27 34 -28 24 -25 50 5 39 15 -6 15 -5 3
10 -9 11 -10 17 -2 17 11 0 15 -13 11 -39 -1 -13 1 -13 14 -2 11 9 16 10 16 2
0 -6 -3 -11 -7 -11 -5 0 -8 -17 -9 -38 l0 -39 43 29 c24 16 41 34 38 39 -8 13
-26 11 -23 -2 2 -6 -7 -15 -19 -20 -14 -5 -23 -5 -23 1 0 6 9 10 21 10 11 0
17 5 14 10 -3 6 1 13 9 16 9 3 16 13 16 21 0 12 -2 12 -16 -1 -18 -18 -34 -21
-34 -5 0 5 4 8 9 5 5 -3 14 1 21 10 10 11 10 18 2 26 -7 7 -12 16 -12 22 0 5
7 1 16 -10 13 -16 15 -16 10 -1 -3 9 -1 17 4 17 6 0 10 -7 10 -15 0 -10 7 -14
23 -12 12 2 16 2 10 0 -17 -6 -16 -13 3 -34 9 -10 13 -22 10 -28 -8 -12 -36
-3 -36 11 0 6 6 5 15 -2 25 -20 17 5 -9 29 l-24 22 3 -32 c2 -22 9 -36 23 -42
41 -18 63 29 28 56 -7 5 -4 7 7 3 15 -5 17 -2 12 15 -4 11 -1 27 6 35 10 12 9
18 -5 32 -17 16 -18 16 -12 -3 3 -11 2 -24 -2 -30 -9 -13 -42 -16 -42 -4 0 5
9 9 20 9 21 0 27 15 10 25 -5 3 -10 1 -10 -5 0 -6 -5 -8 -11 -4 -6 3 -14 2
-18 -3 -3 -5 -21 -14 -40 -19 -32 -9 -33 -10 -18 -26 19 -18 22 -28 9 -28 -5
0 -15 12 -22 28 -7 16 -14 22 -17 14 -3 -7 1 -19 7 -28 7 -8 11 -17 8 -19 -3
-3 -11 6 -18 20 -7 14 -20 25 -27 25 -15 0 -63 -47 -63 -61 0 -5 -5 -9 -10 -9
-6 0 -3 11 5 24 17 26 5 45 -18 29 -7 -4 -42 -8 -79 -8 -41 0 -69 -4 -72 -11
-5 -13 42 -12 65 1 11 6 12 5 2 -6 -24 -24 -13 -33 11 -9 24 21 65 22 52 1 -4
-5 -1 -12 4 -14 6 -3 5 -4 -2 -2 -7 1 -12 8 -10 14 3 15 -25 14 -35 -1 -24
-39 0 -105 27 -73 7 8 17 15 23 15 6 0 2 -7 -10 -15 -14 -10 -19 -22 -16 -35
6 -23 14 -25 31 -8 9 9 12 9 12 0 0 -7 -4 -12 -10 -12 -5 0 -10 -5 -10 -11 0
-5 5 -7 10 -4 6 3 10 1 10 -4 0 -6 -5 -11 -11 -11 -6 0 -3 -7 6 -16 9 -9 14
-23 10 -32 -3 -8 0 -21 6 -28 9 -11 16 -10 36 6 24 19 26 19 39 3 7 -10 10
-20 8 -23 -3 -2 -9 2 -14 10 -15 23 -42 0 -45 -38 -3 -30 -1 -32 14 -19 9 8
23 12 31 9 13 -4 13 -3 1 11 -7 9 -17 14 -22 11 -5 -3 -9 0 -9 5 0 14 13 14
28 -1 8 -8 15 -8 27 2 14 12 14 15 0 30 -8 9 -15 21 -15 26 0 4 7 -1 15 -13
10 -14 22 -19 35 -16 23 6 25 14 8 31 -9 9 -9 12 0 12 7 0 12 -4 12 -10 0 -5
5 -10 11 -10 5 0 7 5 4 10 -3 6 -1 10 4 10 15 0 14 -11 -5 -31 -14 -16 -13
-17 22 -14 20 2 44 11 53 21 15 16 14 16 -4 10 -15 -6 -17 -4 -8 5 15 15 34 3
26 -19 -6 -15 -5 -15 10 -3 11 9 17 10 17 2 0 -11 -13 -15 -37 -12 -7 1 -13
-3 -13 -9 0 -5 5 -10 12 -10 6 0 8 -3 5 -6 -4 -4 -13 -1 -22 6 -15 12 -22 0
-7 -14 4 -4 7 -11 8 -14 3 -21 18 -42 31 -42 12 0 12 2 -1 16 -18 18 -21 34
-5 34 5 0 8 -4 5 -9 -3 -5 1 -14 9 -21 11 -9 19 -9 35 3 15 10 18 17 10 22 -7
4 -16 1 -21 -6 -4 -7 -11 -10 -16 -6 -10 11 18 28 36 22 7 -3 20 0 27 6 11 9
10 15 -6 36 -22 29 -25 43 -9 43 5 0 8 -4 5 -8 -3 -5 2 -18 10 -30 16 -24 40
-20 49 9 4 10 11 19 17 19 6 0 5 -6 -2 -16 -8 -8 -14 -32 -14 -52 -1 -28 -5
-36 -17 -34 -26 4 -43 -23 -24 -38 8 -7 15 -17 15 -23 0 -6 -7 -2 -15 10 -14
20 -55 22 -55 3 0 -13 30 -33 37 -26 4 4 1 12 -7 17 -13 9 -13 10 0 6 8 -2 14
-13 13 -25 -2 -20 20 -33 45 -24 7 2 24 20 37 40 14 20 25 32 25 27 0 -6 -7
-19 -15 -29 -19 -26 -19 -42 0 -26 10 9 15 9 15 1 0 -11 -13 -15 -37 -12 -7 1
-13 -3 -13 -9 0 -5 5 -10 12 -10 6 0 8 -3 5 -6 -4 -4 -13 -1 -22 6 -15 12 -22
0 -7 -14 4 -4 7 -11 8 -14 3 -21 18 -42 31 -42 12 0 12 2 -1 16 -18 18 -21 34
-5 34 5 0 8 -4 5 -9 -3 -5 1 -14 9 -21 12 -10 18 -10 30 0 8 7 15 17 15 23 0
7 -4 7 -12 -1 -7 -7 -16 -12 -21 -12 -5 0 -2 7 7 15 8 8 22 12 30 9 24 -9 30
21 11 50 -10 14 -13 26 -9 26 5 0 15 -14 23 -30 10 -24 10 -34 1 -45 -15 -18
0 -40 31 -50 10 -4 19 -11 19 -16 0 -6 -7 -6 -18 0 -24 13 -42 -4 -42 -36 0
-28 11 -29 35 -3 10 11 20 18 23 16 2 -3 -3 -13 -13 -22 -15 -16 -15 -18 -1
-26 9 -5 20 -7 25 -4 5 3 11 -1 15 -9 3 -8 11 -15 17 -15 8 0 8 4 -1 14 -9 12
-7 21 11 45 12 17 26 28 31 25 5 -3 15 0 23 6 13 11 12 16 -5 37 -22 29 -25
43 -9 43 5 0 8 -4 5 -8 -9 -16 24 -51 42 -46 14 5 15 4 2 -5 -12 -8 -12 -11 3
-17 10 -4 16 -12 13 -19 -2 -7 2 -22 10 -34 15 -21 9 -27 -20 -22 -5 1 -5 -6
-2 -16 6 -15 4 -14 -15 3 -20 17 -22 17 -16 2 9 -25 0 -22 -14 3 -8 15 -8 19
0 15 6 -4 11 0 11 9 0 9 -4 14 -9 10 -5 -3 -13 4 -16 16 -6 17 -9 19 -16 8
-12 -19 -11 -32 1 -24 6 3 10 1 10 -5 0 -7 -8 -9 -20 -5 -11 3 -20 3 -20 0 0
-11 32 -39 49 -43 50 -10 85 -13 79 -7 -4 5 0 14 9 20 15 11 15 17 5 40 -7 14
-8 23 -2 20 5 -3 10 -1 10 4 0 6 5 11 11 11 5 0 7 -4 4 -10 -3 -5 -1 -10 4
-10 6 0 11 5 11 10 0 6 5 10 11 10 8 0 7 -5 -1 -15 -7 -9 -19 -14 -27 -11 -10
4 -12 -1 -7 -18 3 -13 1 -27 -5 -30 -23 -14 -10 -25 29 -23 22 1 40 5 40 8 0
4 9 5 21 2 16 -5 20 -2 18 12 -2 10 -11 21 -19 23 -13 5 -13 3 -1 -14 14 -18
14 -18 -4 -2 -24 22 -11 37 16 19 12 -7 23 -10 26 -7 3 2 -4 10 -15 17 -19 12
-19 14 -4 37 9 14 17 31 18 39 2 8 6 18 10 21 4 4 4 -1 1 -11 -6 -15 -3 -17
14 -12 13 4 27 0 40 -11 17 -15 19 -15 19 -1 0 9 -9 19 -20 22 -11 4 -18 10
-15 15 3 5 1 11 -4 14 -5 4 -12 -2 -14 -11 -4 -17 -5 -17 -6 0 0 9 -5 17 -11
17 -5 0 -14 -8 -20 -17 -10 -15 -11 -15 -7 -2 3 9 -1 26 -8 36 -13 18 -12 21
10 33 26 14 25 30 -2 30 -9 0 -13 -3 -10 -7 4 -3 -1 -12 -10 -18 -15 -11 -15
-17 -5 -40 7 -14 8 -23 2 -20 -5 3 -10 1 -10 -4 0 -6 -5 -11 -11 -11 -5 0 -7
5 -4 10 3 6 1 10 -4 10 -6 0 -11 -4 -11 -10 0 -5 -5 -10 -11 -10 -8 0 -7 5 1
15 7 9 20 13 27 11 10 -4 13 -1 8 14 -9 30 23 73 50 66 30 -8 51 16 30 34 -8
7 -15 17 -15 23 0 6 7 2 15 -10 10 -14 22 -19 35 -16 23 6 25 14 8 31 -17 17
-33 15 -18 -3 9 -10 9 -15 1 -15 -11 0 -15 13 -11 39 1 13 -1 13 -14 2 -9 -8
-16 -9 -16 -3 0 25 31 18 64 -15 20 -20 36 -32 36 -27 0 6 -5 15 -12 22 -9 9
-9 12 0 12 7 0 12 -5 12 -11 0 -6 7 -3 16 5 8 9 20 16 26 16 6 0 0 -8 -13 -19
-20 -16 -21 -21 -10 -35 7 -9 18 -13 24 -9 6 3 7 1 3 -5 -9 -15 -12 -15 -30 4
-10 9 -16 11 -16 4 0 -7 8 -19 18 -28 9 -10 13 -14 8 -9 -21 15 -28 6 -11 -13
11 -12 13 -20 6 -20 -7 0 -10 -4 -7 -8 10 -17 -11 -35 -29 -25 -12 7 -14 13
-6 17 6 4 11 2 11 -5 0 -18 13 -1 17 21 3 19 -11 28 -20 13 -2 -5 -2 -1 1 7 6
18 5 51 -2 57 -9 10 -66 -29 -80 -55 -8 -15 -18 -26 -22 -24 -5 2 -10 -2 -13
-10 -2 -7 0 -10 4 -5 5 4 17 -1 28 -10 19 -17 19 -17 13 4 -8 27 16 69 44 76
11 3 20 1 20 -4 0 -5 -10 -9 -22 -9 -12 0 -18 -3 -15 -7 4 -3 -1 -12 -11 -19
-16 -12 -16 -15 2 -48 10 -19 22 -33 27 -31 4 3 10 -4 14 -15 3 -11 9 -20 13
-20 8 0 35 39 39 58 6 24 10 37 17 53 4 9 8 27 10 41 1 13 6 29 10 36 9 16 -6
16 -22 0 -7 -7 -12 -8 -12 -4 0 5 8 14 17 21 23 17 25 42 2 40 -10 -1 -22 -4
-25 -8 -4 -4 -12 -7 -18 -7 -6 0 -2 6 9 13 20 11 25 13 45 16 6 0 10 6 10 12
0 6 -9 8 -22 4 -16 -6 -20 -4 -15 8 3 8 -1 24 -9 36 -9 12 -11 21 -5 21 6 0
11 -5 11 -11 0 -5 4 -8 9 -5 4 3 7 -6 5 -19 -1 -14 2 -23 6 -20 13 8 -2 152
-19 184 -5 9 -6 22 -4 29 3 6 0 12 -7 12 -6 0 -8 5 -5 11 4 5 -1 20 -12 31
-10 12 -12 18 -5 14 6 -4 12 -2 12 3 0 6 -7 11 -15 11 -8 0 -15 5 -15 11 0 5
5 7 11 3 18 -11 -1 39 -20 53 -21 15 -44 -3 -35 -29 3 -11 -1 -27 -10 -37 -13
-15 -14 -20 -4 -28 12 -10 48 -14 48 -6 0 3 -5 13 -11 24 -7 15 -7 24 2 35 8
10 8 14 0 14 -6 0 -11 5 -11 11 0 8 4 8 15 -1 10 -9 12 -17 5 -30 -7 -13 -5
-24 8 -42 30 -41 45 -71 31 -62 -9 5 -10 2 -6 -11 4 -9 2 -24 -4 -31 -15 -19
6 -45 29 -37 9 4 -5 -14 -32 -40 -27 -26 -44 -47 -37 -47 7 0 26 14 42 31 16
18 32 29 36 25 3 -3 0 -6 -8 -6 -10 -1 -8 -5 6 -16 20 -16 20 -16 -1 -10 -29
9 -50 -16 -29 -34 8 -7 15 -17 15 -23 0 -6 -6 -3 -13 7 -8 10 -28 20 -46 21
l-32 3 22 -24 c24 -26 49 -34 29 -9 -9 10 -9 15 -1 15 11 0 15 -13 11 -39 -1
-13 1 -13 14 -2 9 8 16 9 16 3 0 -21 -28 -19 -53 4 -27 25 -43 32 -32 14 3 -5
1 -10 -5 -10 -7 0 -9 8 -5 19 8 28 -30 34 -58 9 -20 -18 -20 -19 -2 -13 15 5
17 3 8 -6 -15 -15 -34 -3 -26 19 6 15 5 15 -10 3 -11 -9 -17 -10 -17 -2 0 11
13 15 39 11 13 -1 13 1 2 14 -8 9 -9 16 -3 16 6 0 12 -6 15 -12 2 -7 8 -10 12
-6 4 4 3 13 -1 20 -5 7 -9 15 -10 18 -4 21 -19 40 -31 40 -12 0 -12 -2 1 -16
18 -18 21 -34 5 -34 -5 0 -8 4 -5 9 3 5 -1 14 -9 21 -11 9 -19 9 -35 -3 -15
-10 -18 -17 -10 -22 7 -4 16 -1 21 6 4 7 11 10 16 6 10 -11 -18 -28 -36 -22
-7 3 -20 0 -27 -6 -11 -9 -10 -15 6 -36 22 -29 25 -43 9 -43 -5 0 -8 4 -5 8 3
5 -2 18 -10 30 -12 18 -19 20 -35 11 -16 -8 -25 -7 -39 6 -21 19 -34 6 -35
-32 -1 -27 7 -29 25 -8 9 10 9 15 1 15 -6 0 -11 4 -11 10 0 5 15 1 33 -10 38
-24 54 -26 37 -5 -8 9 -8 15 -2 15 17 0 20 -24 6 -41 -12 -13 -9 -15 26 -15
31 1 39 4 35 16 -3 10 -1 10 9 -2 7 -10 19 -18 25 -18 8 0 7 5 -3 16 -23 22
-20 30 4 9 16 -15 22 -15 35 -5 8 7 15 19 15 26 0 8 5 14 10 14 15 0 7 -22
-15 -42 -11 -9 -15 -17 -8 -18 6 0 15 5 18 10 3 6 11 10 18 10 6 0 2 -7 -10
-15 -12 -9 -29 -12 -40 -8 -16 6 -16 5 -4 -10 7 -9 17 -14 22 -11 5 3 9 0 9
-6 0 -7 -8 -9 -22 -4 -20 6 -21 5 -9 -10 9 -10 10 -16 2 -16 -11 0 -15 13 -12
38 1 6 -4 12 -11 13 -7 0 -21 2 -31 4 -14 3 -17 -1 -13 -13 5 -15 4 -15 -8 1
-7 9 -19 17 -25 17 -6 0 7 -19 29 -41 23 -23 38 -44 34 -48 -4 -3 -9 0 -11 7
-3 7 -12 20 -21 28 -15 15 -17 15 -34 -6 -10 -12 -18 -18 -18 -12 0 5 7 15 15
22 11 10 12 16 4 26 -22 27 -73 4 -64 -29 2 -12 2 -16 -1 -9 -3 6 -10 12 -15
12 -6 0 -9 -6 -8 -12 3 -25 -1 -38 -12 -38 -8 0 -8 5 1 15 11 13 9 15 -10 13
-13 -2 -25 3 -27 12 -4 13 -3 13 5 1 15 -21 44 5 37 33 -3 12 -2 15 1 9 3 -7
10 -13 15 -13 6 0 9 6 8 13 -3 24 1 37 12 37 8 0 8 -5 -1 -15 -15 -18 1 -20
18 -3 17 17 15 25 -8 31 -14 3 -25 -1 -33 -13 -8 -13 -15 -16 -23 -9 -8 7 -14
6 -19 -1 -3 -5 -1 -10 4 -10 6 0 11 -5 11 -11 0 -5 -4 -7 -10 -4 -5 3 -10 1
-10 -4 0 -6 5 -11 10 -11 6 0 10 -5 10 -12 0 -9 -3 -9 -12 0 -17 17 -25 15
-31 -8 -3 -13 2 -25 16 -35 12 -8 16 -15 10 -15 -6 0 -16 7 -23 15 -9 11 -16
12 -26 4 -18 -15 -14 -51 5 -44 12 5 11 2 -2 -13 -16 -17 -15 -18 23 -18 31 1
39 4 35 16 -3 10 -1 10 9 -2 7 -10 19 -18 26 -18 7 0 0 12 -16 27 -17 16 -22
24 -11 20 11 -4 21 0 29 13 9 14 16 16 25 9 10 -9 11 -3 8 28 -3 26 -2 33 5
23 5 -9 7 -28 6 -43 -2 -19 4 -31 21 -43 19 -12 23 -21 19 -40 -4 -16 -2 -23
6 -20 7 1 10 1 5 -1 -4 -3 -5 -9 -1 -14 3 -5 0 -9 -5 -9 -6 0 -11 5 -11 11 0
5 -5 7 -10 4 -6 -4 -5 5 2 20 11 24 9 29 -12 45 -14 11 -26 15 -28 10 -2 -6
-8 -10 -14 -10 -6 0 -6 6 2 15 7 8 8 15 2 15 -5 0 -15 -6 -21 -14 -9 -10 -8
-16 3 -26 9 -6 19 -9 25 -6 5 3 16 3 25 0 14 -5 14 -9 2 -26 -8 -11 -12 -28
-9 -37 4 -11 1 -10 -10 4 -8 11 -19 16 -23 12 -5 -4 -2 -12 6 -17 9 -6 10 -10
3 -10 -21 0 -26 21 -9 39 14 16 13 17 -24 17 -31 -1 -39 -4 -35 -16 3 -10 1
-10 -9 3 -7 9 -19 17 -25 17 -6 0 7 -19 29 -41 23 -23 38 -44 34 -48 -4 -3 -9
0 -11 7 -3 7 -12 20 -21 28 -15 15 -17 15 -33 -4 -9 -12 -19 -18 -23 -15 -3 3
3 13 15 21 16 11 17 17 8 28 -6 8 -14 14 -18 14 -13 -1 -44 -30 -38 -36 4 -4
13 -1 22 6 9 7 18 10 21 7 3 -3 -4 -11 -16 -17 -28 -15 -47 0 -32 27 6 10 13
17 16 16 3 -2 9 -3 14 -2 4 0 -2 4 -13 9 -18 8 -18 9 -2 9 11 1 17 7 15 18 -4
20 -34 53 -49 53 -6 0 -3 -7 5 -16 9 -8 14 -19 11 -24 -3 -5 0 -11 5 -13 6 -3
5 -4 -2 -3 -7 2 -13 8 -13 14 0 6 -5 16 -12 23 -10 10 -15 9 -27 -1 -14 -11
-13 -15 5 -41 11 -16 16 -29 10 -29 -6 0 -11 6 -11 13 -1 6 -9 2 -19 -10 -10
-12 -21 -19 -25 -16 -3 3 3 13 14 20 16 11 18 18 10 33 -7 14 -6 23 6 34 8 9
11 16 5 16 -6 0 -11 5 -11 11 0 5 5 7 10 4 6 -3 10 -1 10 4 0 6 -4 11 -10 11
-5 0 -10 5 -10 12 0 9 3 9 12 0 17 -17 25 -15 31 8 3 13 -2 25 -16 35 -12 8
-16 15 -10 15 6 0 16 -7 23 -15 9 -11 16 -12 26 -4 18 15 14 51 -5 44 -12 -5
-11 -2 2 13 16 17 15 18 -23 18 -31 -1 -39 -4 -35 -16 3 -10 1 -10 -9 3 -7 9
-19 17 -26 17 -7 0 0 -12 16 -27 16 -15 21 -24 12 -20 -12 4 -23 -1 -33 -16
-8 -12 -15 -16 -15 -10 0 6 7 16 15 23 11 9 12 16 4 26 -13 16 -51 14 -45 -3
3 -7 -1 -10 -10 -6 -7 3 -14 1 -14 -5 0 -6 6 -13 13 -15 9 -4 9 -6 0 -6 -20
-2 -26 20 -9 38 14 16 13 17 -24 17 -31 -1 -39 -4 -35 -16 3 -10 1 -10 -9 3
-7 9 -19 17 -25 17 -8 0 -7 -5 3 -16 23 -22 20 -30 -4 -9 -16 15 -22 15 -35 5
-8 -7 -15 -19 -15 -26 0 -8 -5 -14 -10 -14 -15 0 -7 22 15 42 11 9 15 17 8 18
-6 0 -15 -4 -18 -10 -3 -5 -12 -10 -18 -10 -7 0 0 8 16 18 15 9 27 20 27 25 0
4 -4 5 -10 2 -5 -3 -10 -1 -10 5 0 7 8 9 22 4 20 -6 21 -5 9 10 -8 9 -9 16 -3
16 17 0 20 -24 6 -41 -12 -13 -9 -15 26 -15 31 1 39 4 35 16 -3 10 -1 10 9 -2
7 -10 19 -18 25 -18 6 0 -7 19 -29 41 -23 23 -38 44 -34 48 4 3 9 0 11 -7 3
-7 12 -20 21 -28 15 -15 17 -15 34 6 10 12 18 18 18 12 0 -5 -7 -15 -15 -22
-11 -9 -12 -16 -4 -26 13 -16 51 -14 45 3 -3 7 1 10 10 6 7 -3 14 -1 14 5 0 6
-6 13 -12 15 -10 4 -10 6 -1 6 20 2 26 -20 9 -38 -14 -16 -13 -17 24 -17 31 1
39 4 35 16 -3 10 -1 10 9 -2 7 -10 19 -18 25 -18 6 0 -7 19 -29 41 -23 23 -38
44 -34 48 4 3 9 0 11 -7 3 -7 12 -20 21 -28 15 -15 17 -15 32 3 16 20 16 20
40 1 24 -20 24 -20 41 1 11 13 20 17 24 11 3 -6 11 -8 16 -5 5 4 9 2 9 -4 0
-5 -5 -11 -12 -13 -6 -2 -8 -10 -4 -17 6 -9 12 -7 23 9 12 16 12 24 3 35 -7 8
-16 12 -21 9 -5 -3 -9 0 -9 5 0 16 16 13 34 -5 11 -10 16 -11 16 -3 0 6 -8 18
-17 25 -17 13 -17 15 0 28 9 7 17 19 17 25 0 8 -5 7 -16 -3 -18 -18 -34 -21
-34 -5 0 5 4 8 9 5 5 -3 14 1 21 9 9 11 9 19 -3 35 -11 16 -17 18 -23 9 -4 -7
-2 -15 4 -17 7 -2 12 -8 12 -13 0 -6 -4 -8 -9 -4 -5 3 -13 1 -16 -5 -4 -6 -13
-2 -24 11 -15 19 -19 20 -32 6 -14 -13 -17 -13 -27 4 -8 12 -8 19 -2 19 5 0
10 -5 10 -11 0 -6 14 -1 30 11 17 12 30 17 30 11 0 -6 -5 -11 -11 -11 -8 0 -8
-5 1 -15 18 -21 26 -19 25 8 -1 38 -14 51 -35 32 -11 -10 -26 -14 -38 -11 -27
9 -48 -17 -27 -34 8 -7 15 -17 15 -22 0 -6 -8 0 -18 12 -17 21 -19 21 -34 6
-9 -8 -18 -21 -21 -28 -2 -7 -7 -10 -11 -7 -4 4 11 25 34 48 22 22 35 41 29
41 -6 0 -18 -8 -25 -17 -10 -13 -12 -13 -9 -3 4 12 -4 15 -35 16 -37 0 -38 -1
-24 -17 17 -18 12 -39 -9 -39 -7 0 -6 4 3 10 8 5 11 12 7 16 -4 4 -13 2 -19
-4 -7 -7 -17 -12 -23 -12 -5 0 -2 5 8 11 9 5 17 15 17 21 0 7 -4 7 -14 -1 -10
-9 -15 -8 -20 4 -10 27 4 46 26 34 14 -7 23 -7 34 2 13 10 13 14 -1 29 -8 9
-15 21 -15 26 0 4 7 -1 15 -13 10 -15 21 -20 33 -16 9 4 4 -5 -12 -20 -16 -15
-23 -27 -16 -27 7 0 19 8 26 18 10 12 12 12 9 2 -4 -12 4 -15 35 -16 38 0 39
1 23 18 -13 15 -14 18 -2 13 19 -7 23 29 5 44 -10 8 -17 7 -26 -4 -7 -8 -17
-15 -23 -15 -6 0 -2 7 10 15 14 10 19 22 16 35 -6 23 -14 25 -31 8 -9 -9 -12
-9 -12 0 0 7 5 12 10 12 6 0 10 5 10 11 0 5 -4 7 -10 4 -5 -3 -10 -1 -10 4 0
6 6 11 13 11 7 0 8 3 2 8 -17 12 -41 47 -27 38 11 -7 17 5 13 27 -1 5 3 6 9 2
5 -3 10 -1 10 4 0 6 5 11 11 11 6 0 1 -13 -10 -29 -18 -25 -19 -30 -6 -41 12
-10 18 -10 30 0 8 6 13 17 12 22 -1 6 4 12 11 14 7 1 8 0 2 -3 -5 -2 -8 -8 -5
-13 3 -5 -2 -16 -11 -24 -8 -9 -11 -16 -5 -16 15 0 45 33 49 52 1 9 -5 19 -15
21 -17 4 -17 5 0 6 10 0 15 6 12 11 -4 6 -11 8 -16 5 -8 -6 -13 8 -6 20 1 2
-7 10 -17 18 -13 9 -17 20 -12 32 3 10 1 24 -5 31 -15 18 -26 18 -26 -1z m-23
-188 c0 -7 -4 -6 -10 3 -5 8 -10 13 -11 10 0 -3 -2 -15 -5 -27 -4 -24 10 -32
20 -10 3 6 4 3 1 -9 -7 -28 22 -54 37 -33 8 12 9 12 5 -1 -2 -9 -14 -14 -27
-12 -19 2 -21 0 -10 -13 9 -10 9 -15 1 -15 -11 0 -15 13 -12 38 2 13 -15 17
-22 5 -2 -5 -2 -2 0 6 2 7 -2 20 -8 27 -9 11 -8 14 1 14 8 0 10 3 7 7 -9 9 13
34 24 27 5 -3 9 -11 9 -17z m-57 -54 c-7 -3 -13 -9 -13 -14 0 -6 5 -7 10 -4 6
3 10 1 10 -4 0 -14 -17 -14 -25 -1 -8 13 15 44 24 34 3 -4 0 -9 -6 -11z m-18
-46 c6 -5 1 -6 -11 -2 -18 5 -55 -20 -46 -32 1 -1 2 -7 2 -13 0 -15 -17 -12
-23 4 -4 11 -1 13 11 9 9 -3 14 -2 9 2 -4 5 3 19 15 32 12 12 24 20 27 16 3
-4 11 -11 16 -16z m38 -37 c-3 -3 -8 0 -10 7 -2 7 -12 9 -21 6 -14 -6 -15 -5
-2 9 13 14 16 14 27 -1 6 -9 9 -18 6 -21z m94 19 c-9 -6 -15 -14 -12 -20 4 -5
1 -9 -4 -9 -6 0 -11 5 -11 11 0 14 33 40 40 32 3 -2 -3 -9 -13 -14z m433 -49
c0 -5 -5 -10 -11 -10 -5 0 -7 5 -4 10 3 6 8 10 11 10 2 0 4 -4 4 -10z m-616
-25 c6 -17 -2 -45 -14 -45 -4 0 -10 7 -14 15 -6 17 2 45 14 45 4 0 10 -7 14
-15z m-323 -48 c-10 -9 -11 -8 -5 6 3 10 9 15 12 12 3 -3 0 -11 -7 -18z m500
1 c1 -7 1 -19 0 -25 -1 -7 2 -13 8 -13 5 0 11 6 14 13 2 6 4 -4 4 -23 0 -19
-2 -29 -4 -22 -3 6 -9 12 -14 12 -6 0 -9 -6 -8 -12 3 -25 -1 -38 -12 -38 -8 0
-7 6 2 17 12 15 12 16 -5 9 -19 -7 -19 -6 -1 14 18 19 18 21 0 40 -18 20 -18
21 1 14 17 -7 17 -6 5 9 -9 11 -10 17 -2 17 6 0 12 -6 12 -12z m80 0 c1 -7 1
-19 0 -25 -1 -7 2 -13 8 -13 5 0 11 6 14 13 2 6 4 -4 4 -23 0 -19 -2 -29 -4
-22 -3 6 -9 12 -14 12 -6 0 -9 -6 -8 -12 3 -25 -1 -38 -12 -38 -8 0 -7 6 2 16
12 15 11 16 -9 10 -14 -5 -22 -3 -22 4 0 6 4 9 9 6 5 -3 14 1 21 9 10 12 10
18 0 30 -7 8 -16 12 -21 9 -5 -3 -9 0 -9 6 0 7 8 9 22 4 20 -6 21 -5 9 10 -9
10 -10 16 -2 16 6 0 12 -6 12 -12z m-261 -18 c0 -5 -4 -10 -10 -10 -5 0 -10 5
-10 10 0 6 5 10 10 10 6 0 10 -4 10 -10z m-340 -30 c0 -3 -9 -11 -20 -18 -11
-7 -20 -8 -20 -3 0 5 6 12 13 15 10 5 10 7 0 12 -7 3 -13 10 -13 15 0 5 9 4
20 -3 11 -7 20 -15 20 -18z m30 0 c0 -5 -4 -10 -10 -10 -5 0 -10 5 -10 10 0 6
5 10 10 10 6 0 10 -4 10 -10z m550 0 c0 -5 -4 -10 -10 -10 -5 0 -10 5 -10 10
0 6 5 10 10 10 6 0 10 -4 10 -10z m457 -5 c0 -8 -4 -15 -9 -15 -10 0 -11 14
-1 23 9 10 10 9 10 -8z m-996 -27 c1 -7 0 -20 -1 -27 -1 -13 1 -13 14 -2 11 9
16 10 16 2 0 -6 -5 -11 -11 -11 -5 0 -8 -4 -5 -9 3 -5 -1 -14 -9 -21 -10 -9
-15 -9 -15 -1 0 6 5 11 12 11 6 0 3 9 -7 20 -14 15 -21 17 -32 9 -9 -9 -13 -9
-13 0 0 11 13 15 39 11 13 -1 13 1 2 14 -9 11 -10 16 -2 16 6 0 12 -6 12 -12z
m160 -40 c1 -7 0 -20 -1 -27 -1 -13 1 -13 14 -2 11 9 16 10 16 2 0 -11 -13
-15 -39 -11 -13 1 -13 -1 -2 -14 9 -11 10 -16 2 -16 -6 0 -11 5 -11 12 0 6 -9
3 -20 -7 -15 -14 -17 -21 -9 -32 9 -9 9 -13 0 -13 -11 0 -15 13 -11 39 1 13
-1 13 -14 2 -11 -9 -16 -10 -16 -2 0 11 13 15 39 11 13 -1 13 1 2 14 -9 11
-10 16 -2 16 6 0 11 -5 11 -12 0 -6 9 -3 20 7 15 14 17 21 9 32 -9 9 -9 13 0
13 6 0 12 -6 12 -12z m632 -43 c-14 -10 -20 -22 -17 -33 4 -11 -2 -8 -14 8
-12 14 -18 27 -16 30 3 2 9 -1 13 -8 6 -10 11 -10 21 3 7 8 17 15 23 15 6 0 2
-7 -10 -15z m-752 -35 c31 17 21 -4 -11 -22 -17 -9 -30 -13 -30 -8 0 6 5 10
12 10 6 0 4 7 -5 18 -10 10 -17 23 -17 28 0 4 7 -2 16 -14 12 -18 19 -20 35
-12z m434 0 c-3 -6 1 -13 9 -16 9 -3 16 -10 16 -15 0 -5 -9 -4 -20 3 -21 14
-27 38 -9 38 5 0 7 -5 4 -10z m-161 -60 c-3 -2 -9 1 -13 8 -6 10 -11 10 -21
-3 -7 -8 -17 -15 -23 -15 -6 0 -2 7 10 15 14 10 20 22 17 33 -4 11 2 8 14 -8
12 -14 18 -27 16 -30z m116 15 c-11 -13 -9 -15 10 -13 13 2 25 -3 27 -12 4
-13 3 -13 -5 -1 -15 21 -44 -5 -37 -33 3 -12 2 -15 -1 -8 -3 6 -10 12 -15 12
-6 0 -9 -6 -8 -12 3 -25 -1 -38 -12 -38 -8 0 -7 6 2 17 12 15 12 16 -5 9 -19
-7 -19 -6 -3 12 10 11 16 25 14 33 -2 8 -2 11 0 7 7 -13 24 -9 22 5 -3 24 1
37 12 37 8 0 8 -5 -1 -15z m490 4 c0 -5 4 -8 9 -5 5 3 14 -1 21 -9 9 -10 9
-15 1 -15 -6 0 -11 5 -11 11 0 5 -4 8 -9 5 -5 -3 -14 1 -21 9 -9 10 -9 15 -1
15 6 0 11 -5 11 -11z m-124 -38 c-3 -5 2 -19 12 -31 16 -20 20 -21 33 -7 14
13 17 13 27 -4 8 -12 8 -19 2 -19 -5 0 -10 5 -10 11 0 16 -58 -29 -65 -50 -3
-10 -13 -18 -22 -17 -17 1 -67 45 -60 52 2 2 12 -5 22 -16 10 -11 27 -20 38
-20 11 0 18 2 16 4 -2 2 -7 4 -10 3 -4 -1 -16 6 -27 16 -20 18 -20 47 0 47 6
0 4 -8 -3 -17 -12 -15 -12 -16 3 -10 11 4 15 2 12 -7 -6 -15 25 -18 43 -4 10
8 8 16 -7 35 -22 29 -25 43 -9 43 5 0 8 -4 5 -9z m-76 -5 c0 -3 -4 -8 -10 -11
-5 -3 -10 -1 -10 4 0 6 5 11 10 11 6 0 10 -2 10 -4z m-355 -56 c3 -11 12 -20
18 -20 7 0 3 -7 -7 -15 -11 -8 -25 -15 -30 -15 -6 0 -3 5 7 11 17 10 17 12 2
35 -8 13 -11 24 -6 24 5 0 13 -9 16 -20z m235 -37 c0 -7 -5 -13 -11 -13 -5 0
-7 5 -4 10 3 6 -1 13 -9 16 -9 3 -16 10 -16 15 0 5 9 4 20 -3 11 -7 20 -18 20
-25z m340 -24 c0 -5 -4 -7 -10 -4 -19 12 -10 -14 12 -35 12 -11 29 -18 37 -15
11 4 12 3 1 -9 -10 -13 -17 -10 -46 21 -26 27 -31 39 -22 45 18 11 28 10 28
-3z m-157 -16 c-7 -2 -19 -2 -25 0 -7 3 -2 5 12 5 14 0 19 -2 13 -5z m-13 -58
c19 1 29 0 23 -2 -22 -8 -14 -20 12 -20 14 0 25 3 25 8 0 5 -5 9 -11 9 -5 0
-7 5 -3 11 10 16 26 -15 18 -35 -5 -13 -9 -14 -21 -5 -12 11 -13 8 -8 -17 l7
-29 -14 25 c-10 17 -22 24 -39 23 -13 -1 -18 1 -11 3 21 9 13 22 -13 22 -14 0
-25 -4 -25 -9 0 -5 5 -9 11 -9 5 0 7 -5 3 -11 -5 -8 -9 -7 -15 4 -12 20 0 50
15 39 6 -5 27 -8 46 -7z m-181 -12 c-12 -15 -12 -16 4 -10 14 5 12 -1 -9 -28
-15 -20 -30 -33 -33 -29 -3 4 0 9 7 11 10 4 10 8 1 19 -7 8 -9 17 -5 21 3 3 6
1 6 -5 0 -7 5 -12 10 -12 6 0 10 6 9 13 -3 24 1 37 12 37 8 0 7 -6 -2 -17z
m-69 -27 c0 -2 -7 -9 -15 -16 -13 -11 -14 -10 -9 4 5 14 24 23 24 12z m266
-42 c-4 -9 -1 -23 5 -30 6 -8 8 -14 3 -15 -5 0 -19 -2 -31 -3 -14 -2 -19 2
-16 11 4 10 9 11 19 2 10 -8 14 -8 14 -1 0 6 -8 16 -17 21 -17 10 -17 10 0 11
9 0 17 5 17 10 0 6 3 10 6 10 3 0 3 -7 0 -16z"/>
<path d="M2150 2600 c0 -5 5 -10 10 -10 6 0 10 5 10 10 0 6 -4 10 -10 10 -5 0
-10 -4 -10 -10z"/>
<path d="M2390 2999 c0 -5 5 -7 10 -4 6 3 10 8 10 11 0 2 -4 4 -10 4 -5 0 -10
-5 -10 -11z"/>
<path d="M2516 3001 c-3 -5 1 -14 9 -21 11 -9 14 -8 12 9 -1 22 -12 28 -21 12z"/>
<path d="M1692 2940 c-7 -11 -9 -20 -4 -20 4 0 15 9 25 20 11 14 13 20 4 20
-7 0 -18 -9 -25 -20z"/>
<path d="M2577 2924 c-3 -3 -4 -11 -3 -17 2 -7 1 -9 -1 -4 -9 14 -22 7 -20
-11 1 -20 37 -28 38 -9 0 7 2 20 4 30 3 17 -6 23 -18 11z"/>
<path d="M2386 2804 c-4 -11 -13 -14 -31 -10 l-24 6 30 -45 c16 -24 34 -47 40
-50 14 -10 11 11 -5 24 -17 14 -28 51 -15 51 5 0 9 -9 9 -19 0 -24 14 -33 52
-36 27 -3 28 -1 14 14 -9 10 -16 22 -16 28 0 5 -11 20 -24 32 -21 20 -24 20
-30 5z m40 -45 c0 -10 -4 -19 -8 -19 -4 0 -8 8 -8 18 0 10 -6 24 -12 31 -11
11 -9 11 7 1 12 -7 21 -21 21 -31z"/>
<path d="M2741 2779 l-33 -40 25 -27 c24 -26 26 -52 5 -52 -6 0 -4 7 3 17 12
15 12 16 -4 10 -10 -4 -21 -7 -23 -7 -3 0 -2 -4 1 -10 3 -5 0 -7 -8 -5 -7 3
-22 -3 -32 -15 -10 -11 -22 -20 -27 -20 -14 0 -38 -27 -31 -34 4 -3 2 -6 -4
-6 -14 0 -24 26 -16 45 7 19 -26 46 -48 39 -9 -2 -22 2 -29 11 -18 21 -26 19
-25 -7 1 -39 14 -52 35 -33 19 17 60 13 60 -6 0 -5 -9 -4 -19 3 -25 15 -51 -4
-44 -32 5 -19 26 -22 51 -7 7 5 12 4 12 -2 0 -10 -14 -15 -32 -12 -11 2 -10
-17 1 -24 5 -3 12 -1 16 5 3 5 11 10 18 10 6 0 2 -6 -9 -14 -17 -13 -22 -12
-41 6 -13 12 -23 28 -23 35 0 8 -5 11 -10 8 -8 -5 -7 -12 2 -22 18 -22 20
-113 2 -140 -8 -13 -11 -23 -7 -23 5 0 -7 -9 -26 -21 -18 -11 -31 -23 -27 -26
9 -10 56 26 65 50 5 13 16 29 25 36 14 12 16 12 11 0 -7 -19 30 -22 44 -5 8
10 7 17 -4 26 -8 7 -15 17 -15 23 0 6 7 2 15 -10 10 -14 22 -19 35 -16 23 6
25 14 8 31 -9 9 -9 12 0 12 7 0 12 -4 12 -10 0 -5 5 -10 11 -10 5 0 7 5 4 10
-3 6 -1 10 4 10 20 0 11 -19 -16 -37 -14 -10 -39 -31 -55 -47 -16 -16 -31 -26
-35 -22 -3 3 0 6 7 6 19 0 3 13 -19 17 -23 3 -35 -32 -15 -48 10 -8 20 -6 44
11 16 12 30 25 30 30 0 15 64 48 92 48 15 0 33 -7 39 -14 7 -9 8 -14 1 -14 -6
0 -12 6 -15 13 -2 6 -8 9 -12 5 -4 -4 -3 -13 1 -20 5 -7 9 -15 9 -18 0 -3 6
-14 12 -25 12 -20 12 -20 48 -1 25 14 32 23 25 30 -8 8 -13 7 -20 -4 -5 -8
-12 -11 -17 -7 -10 11 18 28 36 22 7 -3 20 0 28 6 11 10 11 15 -3 30 -10 12
-13 23 -7 36 5 10 8 25 7 33 -1 8 -2 23 -3 33 -1 13 -7 16 -28 13 -20 -4 -37
2 -58 21 -16 14 -22 23 -13 20 21 -7 41 17 34 40 -3 10 -2 23 2 28 11 16 47
41 39 28 -4 -6 -2 -15 4 -19 9 -5 10 0 5 17 -4 13 -8 29 -8 36 -1 7 -5 10 -10
7 -5 -4 -8 2 -6 11 6 32 -17 25 -51 -16z m29 -9 c-8 -5 -11 -12 -7 -16 3 -4
12 -3 20 2 7 5 6 2 -3 -6 -10 -9 -20 -22 -23 -30 -3 -8 -5 -1 -4 15 1 31 16
60 26 50 3 -3 -1 -10 -9 -15z m-30 -30 c0 -5 -2 -10 -4 -10 -3 0 -8 5 -11 10
-3 6 -1 10 4 10 6 0 11 -4 11 -10z m-210 -74 c0 -3 -4 -8 -10 -11 -5 -3 -10
-1 -10 4 0 6 5 11 10 11 6 0 10 -2 10 -4z m193 -38 c12 -13 21 -27 19 -32 -2
-5 4 -6 12 -3 11 5 14 -2 11 -31 l-3 -37 29 33 c16 18 29 29 29 24 0 -4 -5
-13 -12 -20 -9 -9 -9 -12 0 -12 7 0 12 -5 12 -11 0 -8 -5 -8 -15 1 -21 17 -19
1 5 -37 11 -18 15 -33 10 -33 -6 0 -10 5 -10 12 0 6 -7 4 -18 -5 -10 -10 -23
-17 -28 -17 -4 0 1 7 13 15 14 10 19 22 16 35 -6 23 -14 25 -31 8 -17 -17 -15
-33 3 -18 9 7 15 8 15 2 0 -20 -28 -20 -46 -1 -13 15 -14 18 -3 14 19 -7 23
29 5 44 -10 8 -17 7 -26 -4 -7 -8 -17 -15 -23 -15 -6 0 -2 7 10 15 15 10 20
21 16 33 -4 9 5 4 20 -12 18 -20 27 -24 27 -14 0 9 -7 19 -16 22 -8 3 -12 10
-9 16 3 5 0 10 -7 10 -7 0 -19 9 -26 20 -16 26 -7 25 21 -2z m-153 -11 c0 -7
-4 -6 -10 3 -8 12 -10 12 -10 1 0 -8 -3 -12 -6 -8 -9 9 6 28 17 22 5 -4 9 -12
9 -18z m129 -11 c-3 -3 -11 5 -18 17 -13 21 -12 21 5 5 10 -10 16 -20 13 -22z
m-28 2 c1 -7 0 -20 -1 -27 -1 -13 1 -13 14 -2 11 9 16 10 16 2 0 -11 -13 -15
-39 -11 -13 1 -13 -1 -2 -14 9 -11 10 -16 2 -16 -6 0 -11 5 -11 12 0 6 -9 3
-20 -7 -15 -14 -17 -21 -9 -32 9 -9 9 -13 0 -13 -11 0 -15 13 -11 39 1 13 -1
13 -14 2 -11 -9 -16 -10 -16 -2 0 11 13 15 39 11 13 -1 13 1 2 14 -9 11 -10
16 -2 16 6 0 11 -5 11 -12 0 -6 9 -3 20 7 15 14 17 21 9 32 -9 9 -9 13 0 13 6
0 12 -6 12 -12z m-26 -8 c3 -5 1 -10 -4 -10 -6 0 -11 5 -11 10 0 6 2 10 4 10
3 0 8 -4 11 -10z m155 -14 c0 -3 -4 -8 -10 -11 -5 -3 -10 -1 -10 4 0 6 5 11
10 11 6 0 10 -2 10 -4z m-230 -57 c0 -4 -7 -6 -15 -3 -8 4 -15 10 -15 15 0 4
7 6 15 3 8 -4 15 -10 15 -15z m153 4 c-7 -3 -13 -11 -13 -19 0 -8 -4 -14 -10
-14 -5 0 -9 6 -7 12 3 16 30 38 37 31 3 -3 -1 -8 -7 -10z m-145 -43 c7 -11 8
-20 3 -20 -5 0 -12 7 -15 16 -3 8 -10 12 -16 9 -5 -3 -10 -1 -10 4 0 18 24 12
38 -9z m179 -47 c-4 -3 -2 -12 4 -20 9 -9 8 -13 0 -13 -6 0 -11 2 -11 4 0 2
-3 11 -6 20 -4 10 -1 16 7 16 7 0 9 -3 6 -7z m-203 -29 c3 -8 2 -12 -4 -9 -6
3 -10 10 -10 16 0 14 7 11 14 -7z"/>
<path d="M2690 2715 c0 -8 0 -18 -1 -22 -1 -12 15 -13 30 -4 12 8 12 12 2 25
-17 20 -31 20 -31 1z"/>
<path d="M2410 2701 c-18 -21 -25 -51 -10 -51 5 0 10 5 10 12 0 6 3 8 7 4 5
-4 -1 -14 -11 -22 -16 -11 -17 -14 -4 -14 22 0 39 23 28 39 -10 17 -2 41 12
41 6 0 5 -6 -2 -15 -10 -12 -7 -20 18 -45 17 -16 35 -30 41 -30 18 0 12 9 -16
28 -28 17 -41 42 -23 42 6 0 10 -8 10 -17 0 -14 2 -15 13 -4 10 10 7 16 -12
32 -28 23 -41 23 -61 0z"/>
<path d="M2220 2640 c0 -5 4 -10 9 -10 6 0 13 5 16 10 3 6 -1 10 -9 10 -9 0
-16 -4 -16 -10z"/>
<path d="M1885 2600 c-3 -5 -1 -10 4 -10 6 0 11 5 11 10 0 6 -2 10 -4 10 -3 0
-8 -4 -11 -10z"/>
<path d="M1001 2585 c-1 -6 -42 -10 -106 -9 -105 1 -122 -5 -86 -28 15 -9 17
-15 9 -25 -7 -9 -7 -13 0 -13 6 0 16 8 21 18 6 9 11 12 11 7 0 -6 -5 -16 -12
-23 -6 -6 -8 -15 -4 -19 4 -4 11 -1 16 7 6 9 10 10 10 3 0 -21 -21 -26 -39 -9
-10 9 -21 13 -24 9 -10 -10 -8 -25 2 -19 5 3 14 -1 21 -9 9 -10 9 -15 1 -15
-6 0 -11 3 -11 8 0 4 -18 7 -40 8 -35 0 -38 -2 -26 -15 7 -9 19 -27 26 -41 12
-23 12 -24 -3 -11 -10 7 -17 20 -17 27 0 18 -11 18 -35 1 -22 -17 -12 -37 18
-36 12 1 33 -2 47 -5 14 -4 40 -8 58 -10 18 -2 35 -6 39 -10 13 -13 35 -6 29
10 -3 8 -2 12 4 9 6 -3 10 1 10 10 0 9 -4 14 -9 10 -5 -3 -12 4 -16 15 -7 23
-21 26 -28 8 -2 -7 -8 -9 -13 -5 -11 11 17 28 35 22 7 -3 20 0 28 6 11 10 11
15 -3 30 -9 10 -13 23 -9 28 3 6 2 11 -3 11 -19 0 -21 -14 -7 -37 9 -13 11
-23 5 -23 -5 0 -10 5 -10 12 0 6 -7 4 -18 -5 -10 -10 -23 -17 -28 -17 -4 0 2
7 14 16 12 8 20 20 16 25 -3 5 0 17 7 25 6 8 9 18 5 21 -4 4 -12 1 -17 -7 -9
-12 -10 -12 -5 3 3 10 6 21 6 25 0 3 11 -5 24 -17 14 -13 22 -29 20 -36 -7
-16 11 -28 46 -30 l28 -2 -24 35 c-13 19 -24 40 -23 46 0 6 3 5 6 -2 4 -10 8
-10 21 0 14 10 15 10 6 -1 -12 -13 -8 -51 5 -51 10 0 31 22 31 33 0 5 -7 4
-15 -3 -10 -9 -15 -9 -15 -1 0 11 13 15 38 12 6 -1 12 3 12 9 0 6 5 8 10 5 6
-3 10 1 10 10 0 12 -4 14 -19 5 -14 -7 -21 -6 -24 3 -3 6 -6 7 -6 2z m-151
-27 c0 -4 -7 -8 -15 -8 -8 0 -15 4 -15 8 0 5 7 9 15 9 8 0 15 -4 15 -9z m77 5
c-4 -3 -3 -11 2 -17 14 -19 21 -46 11 -46 -6 0 -10 9 -10 19 0 11 -5 23 -10
26 -10 6 -5 25 7 25 4 0 3 -3 0 -7z m-137 -117 c0 -8 7 -16 15 -20 8 -3 15
-11 14 -18 0 -10 -2 -10 -6 0 -2 6 -8 10 -12 7 -5 -2 -13 7 -19 20 -7 15 -8
25 -2 25 6 0 10 -6 10 -14z m46 -5 c-9 -13 19 -32 38 -25 9 3 16 1 16 -6 0 -6
-4 -9 -9 -5 -5 3 -13 1 -16 -5 -4 -7 -14 -3 -26 11 -21 25 -24 39 -8 39 5 0 8
-4 5 -9z m-96 -21 c0 -5 -8 -10 -17 -10 -15 0 -16 2 -3 10 19 12 20 12 20 0z"/>
<path d="M1041 2550 c-50 -40 -63 -59 -38 -61 6 0 20 -2 30 -4 11 -2 16 1 14
8 -2 7 -13 10 -23 9 -16 -3 -16 -1 5 17 13 12 29 21 35 21 6 0 3 -5 -6 -11
-15 -8 -16 -13 -5 -29 6 -11 18 -20 25 -20 10 0 10 4 -2 16 -23 23 -20 30 4 9
19 -17 21 -17 40 0 11 10 17 21 15 26 -3 4 4 10 14 14 13 4 18 12 15 23 -5 14
-4 14 4 3 12 -16 4 -44 -9 -35 -5 3 -9 1 -9 -4 0 -4 -9 -18 -20 -30 -12 -12
-16 -22 -10 -22 5 0 10 -5 10 -12 0 -9 -3 -9 -12 0 -7 7 -16 12 -22 12 -5 0 7
-17 28 -37 37 -37 41 -54 15 -61 -12 -3 -12 -2 1 7 8 5 12 13 8 16 -9 9 -68
-23 -75 -41 -4 -10 -9 -11 -18 -4 -6 5 -14 8 -17 5 -3 -3 -13 4 -22 14 -18 20
-14 42 7 40 9 0 9 -2 0 -6 -7 -2 -13 -9 -13 -15 0 -6 7 -8 14 -5 9 4 13 1 10
-6 -6 -17 32 -19 45 -3 8 10 7 17 -4 26 -8 7 -15 17 -15 23 0 6 7 2 15 -10 10
-14 22 -19 35 -16 23 6 25 14 8 31 -17 17 -33 15 -18 -3 9 -10 9 -15 1 -15
-11 0 -15 13 -12 38 1 6 -4 12 -11 13 -7 0 -21 2 -31 4 -11 2 -16 -1 -14 -8 2
-7 13 -11 23 -9 18 2 18 2 1 -9 -17 -10 -17 -12 -2 -35 8 -13 11 -24 6 -24 -5
0 -12 9 -16 19 -9 29 -33 33 -50 8 -8 -12 -15 -16 -15 -10 0 6 7 16 15 23 12
10 13 16 4 26 -7 9 -8 14 -1 14 5 0 12 -7 16 -15 3 -8 10 -15 16 -15 6 0 6 7
-2 20 -15 24 -79 21 -108 -5 -17 -16 -18 -19 -5 -29 9 -6 14 -22 13 -36 -2
-19 2 -25 17 -25 11 0 25 -4 32 -8 6 -4 14 -3 18 3 3 5 1 10 -4 10 -6 0 -11 6
-11 13 1 6 9 2 18 -9 24 -29 94 -41 112 -20 13 16 2 22 -16 9 -5 -5 -4 -2 2 5
9 11 17 11 32 3 17 -9 23 -7 36 11 9 12 16 18 16 13 -1 -12 -36 -55 -45 -55
-3 0 -3 5 1 11 4 7 1 10 -6 7 -8 -2 -16 -10 -18 -18 -3 -7 0 -10 6 -6 6 3 13
2 17 -4 3 -6 18 4 33 22 15 18 31 36 37 40 6 5 5 8 -2 8 -7 0 -13 5 -13 12 0
9 3 9 12 0 7 -7 16 -12 22 -12 5 0 -7 17 -28 37 -36 36 -41 54 -18 59 7 1 8 0
2 -3 -14 -7 -13 -24 3 -22 24 3 37 -1 37 -12 0 -8 -5 -8 -15 1 -18 15 -20 -1
-3 -18 17 -17 25 -15 31 8 3 13 -2 25 -16 35 -12 8 -17 15 -13 15 5 0 17 -7
26 -15 15 -14 19 -14 31 1 11 14 11 18 -6 30 -27 20 -11 17 25 -4 16 -10 27
-22 23 -25 -3 -4 1 -7 11 -7 9 0 14 5 11 10 -4 6 5 5 19 -2 14 -6 26 -16 26
-21 0 -5 -7 -4 -15 3 -23 19 -28 6 -5 -15 18 -16 20 -16 26 -1 5 13 9 14 20 5
8 -6 11 -15 8 -20 -3 -5 -1 -9 5 -9 19 0 19 15 1 37 -9 12 -21 19 -25 15 -4
-4 -3 3 4 15 16 32 13 41 -7 17 -16 -19 -21 -20 -37 -8 -10 8 -14 14 -9 14 6
0 17 11 24 25 7 14 17 25 22 25 5 0 0 -13 -12 -30 -12 -16 -17 -30 -11 -30 5
0 16 9 24 20 12 18 15 18 20 5 4 -8 4 -22 1 -30 -4 -10 -1 -14 7 -12 8 2 11 2
7 0 -17 -9 -7 -20 17 -20 14 0 25 3 25 8 0 5 -5 9 -11 9 -5 0 -7 5 -3 11 10
16 26 -15 18 -35 -5 -13 -9 -14 -20 -5 -10 8 -14 8 -14 1 0 -6 8 -16 18 -22
16 -11 16 -11 -1 -6 -11 3 -20 0 -24 -9 -4 -12 -9 -13 -19 -4 -8 6 -11 15 -8
20 3 5 1 9 -5 9 -19 0 -19 -15 -1 -37 9 -12 21 -19 25 -15 4 4 2 -3 -4 -16 -7
-12 -9 -27 -6 -33 10 -16 13 -59 4 -54 -8 5 -9 15 -11 67 0 14 -5 25 -12 24
-6 -2 -8 -1 -3 1 16 9 6 21 -18 21 -14 0 -25 -4 -25 -9 0 -5 5 -9 11 -9 5 0 7
-5 3 -11 -10 -16 -26 15 -18 35 5 13 9 14 20 5 8 -7 14 -7 14 -1 0 10 -29 38
-33 31 -27 -48 -28 -51 -15 -67 7 -9 16 -19 20 -22 4 -3 -2 -11 -12 -18 -12
-7 -20 -8 -20 -2 0 5 5 10 10 10 6 0 3 11 -5 24 -15 22 -15 27 -1 55 9 16 16
32 16 34 0 11 -39 14 -49 4 -17 -17 -13 -31 4 -17 9 7 18 10 22 6 3 -3 1 -6
-6 -6 -7 0 -10 -4 -7 -9 3 -4 -1 -17 -9 -27 -16 -21 -20 -38 -6 -30 11 7 23
-22 15 -35 -3 -6 0 -18 8 -27 12 -16 11 -16 -6 -2 -17 13 -19 13 -14 0 5 -17
47 -22 65 -8 7 5 18 6 24 2 9 -5 10 -2 6 9 -3 10 -2 17 4 17 6 0 9 -8 7 -17
-2 -11 -11 -17 -21 -15 -9 2 -17 -2 -17 -7 0 -6 10 -10 23 -10 12 0 36 -2 53
-6 26 -5 32 -2 44 21 13 24 12 27 -10 44 -31 23 -43 15 -14 -9 18 -14 19 -20
9 -34 -6 -9 -15 -14 -18 -10 -11 10 -8 25 3 18 6 -3 10 -1 10 4 0 6 -4 11 -9
11 -15 0 -22 30 -11 48 8 14 9 14 10 2 0 -13 2 -13 11 0 9 12 10 12 5 -3 -4
-11 -2 -17 5 -15 6 2 10 7 10 11 -1 4 -1 14 -1 23 0 11 -6 14 -20 9 -11 -3
-20 -2 -20 3 0 6 11 9 25 7 21 -2 24 1 19 17 -3 10 -1 25 6 33 8 10 8 19 -2
34 -7 12 -17 21 -22 21 -6 0 -1 6 9 14 17 12 21 11 36 -8 24 -29 32 -16 9 14
-17 22 -21 24 -41 12 -11 -7 -23 -12 -25 -9 -2 2 8 10 22 18 24 12 28 12 46
-11 23 -28 43 -32 76 -13 12 8 22 9 22 4 0 -5 -8 -12 -18 -15 -27 -9 -46 -45
-32 -61 7 -8 9 -23 5 -34 -5 -17 -3 -20 12 -15 12 4 14 3 6 -3 -17 -12 -26
-66 -10 -60 7 3 11 10 9 16 -1 7 5 22 14 34 10 13 14 16 11 5 -3 -9 0 -24 8
-34 11 -16 10 -20 -6 -32 -30 -21 -22 -35 8 -15 15 10 24 12 20 6 -5 -9 -2
-13 9 -13 10 0 14 3 11 7 -4 3 1 12 11 20 16 13 15 14 -4 8 -15 -4 -24 1 -32
20 -7 15 -8 24 -2 20 5 -3 10 1 10 10 0 9 -4 14 -9 11 -5 -3 -11 1 -15 9 -3 9
-12 12 -23 9 -14 -5 -15 -4 -4 4 7 5 18 16 23 23 7 11 8 9 6 -5 -2 -10 2 -21
9 -23 7 -2 10 3 8 14 -2 10 -4 23 -4 29 -1 13 -51 16 -51 3 0 -5 5 -9 11 -9 5
0 7 -5 3 -11 -5 -8 -9 -7 -15 4 -11 20 -1 49 14 40 19 -11 48 -11 44 1 -2 6
-13 10 -23 8 -18 -3 -18 -3 1 11 17 13 18 17 5 33 -9 11 -10 15 -2 10 7 -4 12
-2 12 7 0 10 -8 13 -24 10 -13 -3 -23 -11 -22 -20 0 -9 -6 -18 -14 -20 -13 -4
-13 -3 0 6 13 9 13 13 -4 28 -18 17 -19 17 -12 -1 5 -16 4 -17 -9 -6 -22 18
-56 19 -84 2 -17 -10 -26 -11 -35 -2 -8 8 -7 10 7 5 9 -4 17 -3 17 2 0 10
-210 10 -227 0 -6 -4 -14 -2 -16 3 -3 6 -4 5 -3 -2 3 -14 56 -15 91 -3 16 5
17 5 5 -4 -8 -5 -11 -13 -7 -17 3 -4 14 -1 24 7 14 12 15 12 9 0 -6 -9 -5 -12
5 -9 8 3 13 11 11 17 -1 7 2 10 8 6 6 -4 5 -13 -2 -25 -8 -13 -16 -16 -24 -10
-6 6 -14 7 -17 3 -4 -3 -13 0 -22 7 -18 15 -20 0 -2 -19 10 -11 8 -11 -10 0
-12 7 -19 17 -17 21 3 4 -2 8 -11 8 -9 0 -13 -5 -10 -10 4 -6 -5 -5 -19 2 -14
6 -26 16 -26 23 0 12 -55 14 -66 2 -11 -11 -26 -8 -19 3 13 22 -16 8 -64 -30z
m383 -10 c-6 -5 -24 21 -24 34 0 6 6 1 14 -10 8 -10 12 -21 10 -24z m111 20
c10 -11 14 -20 9 -20 -5 0 -15 9 -22 20 -7 11 -11 20 -9 20 2 0 12 -9 22 -20z
m-425 -44 c-12 -12 -30 2 -23 19 3 10 -1 15 -13 15 -15 0 -16 2 -5 9 17 11 55
-29 41 -43z m35 44 c-3 -5 -14 -10 -23 -10 -15 0 -15 2 -2 10 20 13 33 13 25
0z m94 -48 c7 -7 11 -15 9 -17 -2 -3 -14 4 -26 15 -23 21 -37 27 -27 10 3 -5
1 -10 -4 -10 -13 0 -13 3 -5 24 7 17 15 13 53 -22z m81 8 c0 -5 -4 -10 -10
-10 -5 0 -10 5 -10 10 0 6 5 10 10 10 6 0 10 -4 10 -10z m120 0 c0 -5 -4 -10
-10 -10 -5 0 -10 5 -10 10 0 6 5 10 10 10 6 0 10 -4 10 -10z m-282 -20 c-7
-10 -14 -17 -17 -15 -4 4 18 35 25 35 2 0 -1 -9 -8 -20z m-188 -34 c0 -2 -12
-11 -27 -20 l-28 -17 24 20 c23 21 31 25 31 17z m194 -27 c-3 -5 0 -9 5 -9 6
0 11 -5 11 -11 0 -8 -5 -8 -15 1 -8 7 -12 16 -9 21 3 5 0 9 -5 9 -6 0 -11 5
-11 11 0 8 5 8 15 -1 8 -7 12 -16 9 -21z m-186 -9 c-7 -11 -15 -15 -17 -9 -2
8 -7 7 -13 -2 -8 -11 -9 -11 -5 1 2 8 10 14 16 13 6 -2 11 2 11 7 0 6 5 10 10
10 6 0 5 -8 -2 -20z m-8 -38 c0 -15 -11 -21 -27 -15 -12 5 -12 7 -1 14 17 11
28 11 28 1z m410 -32 c0 -5 -4 -10 -10 -10 -5 0 -10 5 -10 10 0 6 5 10 10 10
6 0 10 -4 10 -10z m-21 -23 c-2 -1 -13 -9 -24 -17 -19 -14 -19 -14 -6 3 7 9
18 17 24 17 6 0 8 -1 6 -3z"/>
<path d="M1639 2568 c-6 -11 -6 -18 0 -18 5 0 12 6 14 13 4 9 6 9 6 0 1 -7 -5
-18 -13 -25 -11 -11 -11 -17 3 -37 9 -15 11 -22 4 -18 -9 5 -13 2 -13 -9 0
-10 3 -14 7 -11 3 4 12 -1 20 -11 13 -16 14 -15 8 4 -4 15 1 24 20 32 15 7 24
8 20 2 -3 -5 1 -10 10 -10 9 0 14 4 10 9 -3 5 4 12 15 16 11 3 20 10 20 15 0
5 -9 12 -20 15 -11 4 -18 11 -15 16 4 5 -1 9 -10 9 -9 0 -13 -5 -10 -10 4 -6
-5 -5 -19 2 -14 6 -26 15 -26 20 0 5 5 6 10 3 6 -3 10 -2 10 4 0 17 -41 8 -51
-11z m71 -48 c0 -3 -9 -11 -19 -17 -15 -10 -20 -9 -25 2 -3 8 -3 22 0 30 5 11
10 12 25 2 10 -6 19 -14 19 -17z m30 0 c0 -5 -4 -10 -10 -10 -5 0 -10 5 -10
10 0 6 5 10 10 10 6 0 10 -4 10 -10z"/>
<path d="M1670 2520 c0 -5 5 -10 10 -10 6 0 10 5 10 10 0 6 -4 10 -10 10 -5 0
-10 -4 -10 -10z"/>
<path d="M700 2556 c-9 -15 -7 -22 11 -42 12 -13 19 -24 15 -24 -4 0 -18 12
-31 28 -13 15 -25 22 -25 16 0 -6 7 -17 15 -24 8 -7 15 -17 15 -23 0 -6 -7 -1
-16 11 -12 17 -19 20 -33 12 -10 -5 -21 -7 -24 -3 -4 3 -13 0 -22 -7 -14 -12
-14 -15 0 -30 9 -10 15 -23 13 -30 -2 -7 2 -14 9 -17 15 -5 9 33 -8 53 -8 10
-8 14 0 14 6 0 11 -4 11 -8 0 -4 9 -8 21 -9 17 -2 18 1 9 13 -9 10 -9 14 -1
14 11 0 15 -13 11 -39 -1 -13 1 -13 14 -2 9 8 16 9 16 4 0 -5 -11 -16 -25 -23
-30 -16 -33 -29 -6 -27 11 0 18 4 16 8 -3 3 7 12 20 19 14 7 25 17 25 22 0 5
-4 6 -10 3 -5 -3 -10 -2 -10 3 0 13 24 22 47 16 11 -2 25 5 37 22 18 26 18 26
-2 47 -27 26 -76 28 -92 3z m49 -22 c-6 -8 -8 -14 -4 -14 5 0 6 -3 2 -6 -3 -4
-13 1 -22 9 -20 21 -19 33 2 16 15 -12 16 -12 10 3 -4 12 -2 15 9 11 11 -4 12
-9 3 -19z m27 -20 c-3 -9 -6 -18 -6 -20 0 -2 -5 -4 -11 -4 -8 0 -9 4 0 13 6 8
8 17 4 20 -3 4 -1 7 6 7 8 0 11 -6 7 -16z"/>
<path d="M497 2564 c-4 -4 -37 -8 -75 -10 -37 -1 -67 -3 -67 -4 0 -1 -9 -3
-19 -5 -21 -4 -37 -24 -30 -37 3 -4 12 -4 21 -1 11 4 14 3 9 -5 -4 -7 -2 -13
3 -13 26 -3 30 -4 37 -11 11 -12 46 -10 39 2 -10 16 7 11 19 -6 7 -8 27 -17
46 -19 19 -2 44 -6 55 -10 16 -6 17 -5 5 4 -8 6 -10 11 -4 11 6 0 17 -7 24
-15 14 -17 36 -20 45 -5 17 28 -49 47 -86 25 -12 -7 -12 -6 -1 7 16 20 -5 40
-34 32 -15 -4 -26 2 -39 23 -15 22 -15 25 -2 15 12 -10 21 -11 36 -2 14 7 21
7 21 0 0 -5 -6 -10 -14 -10 -8 0 -18 -4 -21 -10 -9 -14 18 -12 37 3 10 7 13
19 9 30 -4 10 -10 15 -14 11z m-56 -55 c24 -23 45 -36 47 -30 2 6 8 11 14 11
6 0 6 -6 -2 -15 -9 -10 -17 -12 -30 -5 -9 5 -21 6 -25 2 -5 -4 -5 -2 -2 4 8
14 -18 38 -32 30 -5 -4 -13 -2 -16 4 -4 6 -15 8 -26 5 -10 -4 -19 -2 -19 3 0
18 14 22 36 8 26 -18 41 -9 16 10 -9 7 -14 14 -10 14 3 0 26 -19 49 -41z
m-101 27 c0 -2 -8 -10 -17 -17 -16 -13 -17 -12 -4 4 13 16 21 21 21 13z m50
-41 c11 -13 10 -14 -4 -9 -9 3 -16 10 -16 15 0 13 6 11 20 -6z m205 -45 c3 -6
-1 -7 -9 -4 -18 7 -21 14 -7 14 6 0 13 -4 16 -10z"/>
<path d="M520 2557 c0 -8 7 -18 16 -21 8 -3 12 -10 9 -16 -12 -19 32 -10 50
10 10 11 20 18 22 16 2 -2 -7 -15 -20 -28 -19 -19 -30 -23 -46 -16 -13 4 -19
13 -15 19 4 7 2 10 -5 8 -21 -7 -15 -23 12 -39 24 -13 28 -13 51 9 13 13 29
21 34 17 5 -3 24 8 41 23 l33 29 -80 -1 c-63 -2 -78 -5 -70 -14 15 -18 2 -16
-16 3 -14 13 -16 13 -16 1z m80 0 c0 -2 -9 -12 -20 -22 -24 -21 -27 -14 -4 9
15 15 24 20 24 13z m49 -19 c-5 -10 -11 -18 -12 -18 -2 0 -3 8 -4 18 -1 10 5
19 12 19 10 0 11 -5 4 -19z"/>
<path d="M1920 2543 c0 -13 29 -38 35 -31 3 3 -4 13 -15 23 -11 10 -20 13 -20
8z"/>
<path d="M1485 2506 c13 -19 14 -29 5 -45 -8 -16 -8 -27 1 -42 8 -15 8 -19 0
-15 -6 4 -11 0 -11 -9 0 -9 5 -13 10 -10 9 6 14 -8 11 -27 0 -5 8 -8 19 -8 11
0 20 -4 20 -8 0 -4 -9 -8 -20 -8 -18 0 -24 8 -21 29 0 4 -3 7 -7 7 -17 0 -21
-13 -9 -31 9 -14 9 -21 -1 -31 -19 -19 -14 -38 11 -37 12 1 32 -2 45 -5 25 -5
27 14 2 22 -8 3 -10 0 -5 -8 5 -8 4 -11 -3 -6 -6 4 -9 13 -5 21 3 10 -1 15
-13 16 -12 0 -14 3 -6 6 7 3 22 -3 33 -13 20 -18 20 -18 15 11 -6 29 -6 29 5
5 6 -14 12 -34 13 -45 1 -21 20 -27 89 -26 22 0 35 -3 32 -9 -3 -6 1 -10 9
-10 9 0 15 3 14 8 0 4 2 15 6 24 8 17 9 17 32 0 13 -9 24 -21 24 -26 0 -5 -6
-3 -14 3 -8 7 -16 8 -18 4 -3 -4 -3 -2 -2 5 4 14 -12 17 -20 3 -10 -15 22 -33
58 -34 19 0 33 -4 31 -8 -6 -8 25 -5 47 5 24 11 17 81 -11 109 -11 12 -21 16
-21 10 0 -7 4 -15 10 -18 5 -3 15 -16 20 -28 9 -17 6 -16 -10 5 -14 18 -27 24
-40 21 -11 -3 -20 -10 -19 -17 3 -23 -1 -36 -12 -36 -8 0 -7 6 2 16 12 15 11
16 -9 10 -14 -5 -22 -3 -22 4 0 6 4 9 9 6 5 -3 15 2 22 11 12 15 12 16 -4 10
-11 -4 -28 -1 -40 8 -12 8 -16 15 -10 15 7 0 15 -4 18 -10 3 -5 12 -10 18 -10
7 1 2 9 -9 18 -18 15 -19 21 -9 35 6 9 15 14 18 10 13 -12 6 12 -8 31 -8 10
-12 23 -9 27 3 5 1 9 -4 9 -16 0 -21 -13 -12 -31 11 -19 -6 -69 -23 -69 -5 0
-2 12 8 26 13 20 14 28 4 40 -9 11 -9 17 1 29 16 19 32 15 36 -9 3 -24 9 -29
43 -31 l29 -2 -30 43 c-35 52 -44 59 -52 39 -4 -10 -16 -15 -33 -13 -19 2 -27
-1 -25 -10 1 -7 -5 -23 -13 -35 -14 -19 -16 -20 -13 -3 2 10 -2 21 -7 23 -6 2
-10 -15 -10 -39 0 -31 5 -43 15 -44 30 -2 32 -4 20 -19 -7 -9 -9 -19 -5 -23 4
-4 10 -1 12 6 3 6 9 12 15 12 7 0 6 -5 -1 -14 -8 -9 -28 -14 -53 -13 -36 2
-41 -1 -43 -20 -1 -13 -5 -26 -10 -30 -4 -5 -6 -1 -2 9 3 9 0 24 -7 34 -12 15
-11 20 7 34 17 14 18 20 8 36 -9 14 -11 15 -7 2 2 -9 -1 -22 -9 -28 -16 -14
-39 -4 -29 12 5 7 1 9 -9 5 -11 -4 -14 -2 -10 8 3 8 9 12 14 9 5 -3 9 2 9 11
0 9 -5 13 -11 9 -8 -4 -8 0 0 15 9 15 9 27 1 41 -8 14 -8 26 0 40 13 25 -5 27
-19 3 -9 -17 -11 -16 -26 5 -22 30 -40 28 -20 -2z m298 -66 c3 -11 1 -20 -4
-20 -5 0 -9 8 -9 18 0 10 -6 24 -12 32 -11 12 -10 12 3 2 9 -7 19 -22 22 -32z
m-249 15 c6 -17 -2 -45 -14 -45 -12 0 -20 28 -14 45 4 8 10 15 14 15 4 0 10
-7 14 -15z m168 -71 c-6 -11 -12 -13 -16 -6 -4 6 -14 9 -24 6 -14 -5 -14 -4
-3 4 8 6 20 8 28 5 7 -3 13 0 13 6 0 6 -5 11 -11 11 -5 0 -7 5 -3 11 11 19 27
-18 16 -37z m-172 6 c0 -5 -4 -10 -10 -10 -5 0 -10 5 -10 10 0 6 5 10 10 10 6
0 10 -4 10 -10z m206 -88 c1 -7 0 -8 -3 -2 -9 18 -25 11 -18 -9 8 -27 -13 -36
-36 -15 -10 9 -22 14 -26 10 -4 -4 -1 -12 7 -17 13 -9 13 -10 0 -6 -24 6 -18
32 7 30 11 -1 27 4 34 13 13 16 31 14 35 -4z m-226 -6 c0 -2 -7 -7 -16 -10 -8
-3 -12 -2 -9 4 6 10 25 14 25 6z m320 -10 c-1 -5 4 -12 11 -17 8 -4 10 -11 6
-16 -9 -8 -28 17 -21 28 2 4 -1 10 -6 12 -7 4 -6 5 1 4 6 -2 10 -6 9 -11z
m-197 -20 c4 -10 1 -13 -8 -9 -8 3 -12 9 -9 14 7 12 11 11 17 -5z m185 -27
c-3 -8 -7 -3 -11 10 -4 17 -3 21 5 13 5 -5 8 -16 6 -23z m-21 -11 c-3 -8 -6
-5 -6 6 -1 11 2 17 5 13 3 -3 4 -12 1 -19z m63 2 c-20 -13 -30 -12 -30 1 0 5
4 8 9 4 5 -3 13 0 16 6 4 5 10 8 13 4 4 -3 0 -10 -8 -15z"/>
<path d="M1510 2440 c0 -5 5 -10 10 -10 6 0 10 5 10 10 0 6 -4 10 -10 10 -5 0
-10 -4 -10 -10z"/>
<path d="M1690 2280 c0 -5 5 -10 10 -10 6 0 10 5 10 10 0 6 -4 10 -10 10 -5 0
-10 -4 -10 -10z"/>
<path d="M2240 2520 c0 -5 5 -10 10 -10 6 0 10 5 10 10 0 6 -4 10 -10 10 -5 0
-10 -4 -10 -10z"/>
<path d="M2500 2520 c0 -5 5 -10 10 -10 6 0 10 5 10 10 0 6 -4 10 -10 10 -5 0
-10 -4 -10 -10z"/>
<path d="M1268 2483 c-16 -19 -38 -57 -38 -67 0 -3 8 -6 18 -7 12 0 10 -3 -8
-10 -28 -11 -58 -37 -70 -59 -6 -12 -3 -16 13 -17 12 -1 27 3 34 9 8 6 16 8
20 4 3 -3 1 -6 -5 -6 -7 0 -12 -4 -12 -9 0 -5 11 -8 24 -8 33 0 54 44 30 61
-15 12 -15 15 2 41 11 16 14 26 7 22 -20 -13 -26 13 -7 34 9 10 15 21 12 24
-3 3 -12 -3 -20 -12z m-14 -109 c8 -22 8 -24 -6 -24 -6 0 -8 3 -5 7 4 3 2 12
-4 20 -7 8 -8 13 -1 13 5 0 13 -7 16 -16z m-24 -12 c0 -5 -12 -14 -27 -21
l-28 -13 20 21 c21 21 35 26 35 13z"/>
<path d="M643 2451 c1 -11 6 -17 14 -14 10 4 11 9 2 19 -15 19 -18 18 -16 -5z"/>
<path d="M2360 2445 c-10 -12 -6 -18 24 -36 20 -11 36 -26 35 -32 0 -8 -2 -8
-6 1 -7 18 -24 15 -21 -5 4 -20 34 -53 49 -53 6 0 3 7 -5 16 -12 11 -13 20 -6
33 10 20 -4 40 -29 42 -12 0 -12 2 -3 6 7 3 21 -2 32 -12 21 -19 34 -7 35 33
1 26 -3 27 -27 5 -17 -15 -19 -15 -36 0 -23 21 -26 21 -42 2z m30 -5 c0 -5 -5
-10 -11 -10 -5 0 -7 5 -4 10 3 6 8 10 11 10 2 0 4 -4 4 -10z m60 -20 c0 -5 -2
-10 -4 -10 -3 0 -8 5 -11 10 -3 6 -1 10 4 10 6 0 11 -4 11 -10z"/>
<path d="M1767 2378 c-36 -38 27 -74 64 -37 l22 22 -23 19 c-28 22 -40 22 -63
-4z m31 -8 c-7 -11 -16 -20 -20 -20 -5 0 -3 9 4 20 7 11 16 20 20 20 5 0 3 -9
-4 -20z m20 -20 c-7 -11 -16 -20 -20 -20 -5 0 -3 9 4 20 7 11 16 20 20 20 5 0
3 -9 -4 -20z"/>
<path d="M2437 2366 c-3 -8 1 -20 9 -27 21 -17 55 14 36 33 -9 9 -12 8 -12 -5
0 -9 -5 -17 -11 -17 -5 0 -8 4 -4 9 3 5 1 12 -4 15 -5 3 -11 -1 -14 -8z"/>
<path d="M2389 2323 c-8 -10 -25 -33 -37 -51 l-23 -33 25 7 c19 4 28 2 32 -10
6 -15 9 -15 30 5 13 12 24 27 24 32 0 6 8 19 17 29 17 19 16 19 -9 13 -19 -5
-29 -2 -35 10 -8 14 -11 14 -24 -2z m13 -15 c-7 -7 -12 -20 -12 -30 0 -10 -4
-18 -10 -18 -5 0 -7 8 -3 18 7 20 23 42 31 42 3 0 1 -5 -6 -12z m24 -27 c0
-10 -9 -24 -21 -31 -16 -10 -18 -10 -7 1 6 7 12 21 12 31 0 10 4 18 8 18 4 0
8 -9 8 -19z"/>
<path d="M1958 2287 c-15 -16 -32 -26 -38 -22 -5 3 -10 2 -10 -4 0 -25 23 -19
55 14 20 19 39 35 43 35 4 0 -1 -7 -11 -14 -13 -10 -15 -16 -6 -21 6 -4 15 -1
20 6 4 7 11 10 16 6 11 -11 -19 -28 -38 -22 -25 8 -43 -19 -24 -35 17 -14 20
-40 4 -40 -5 0 -7 5 -4 10 9 15 -13 40 -30 34 -7 -3 -16 -1 -20 5 -10 17 -22
13 -28 -9 -7 -26 12 -48 45 -54 15 -2 33 -8 39 -12 8 -4 9 -3 5 4 -4 7 -2 12
3 12 6 0 11 -7 11 -15 0 -11 11 -15 36 -15 19 0 33 4 30 8 -2 4 -1 14 3 21 6
9 11 10 15 2 4 -6 3 -11 -1 -11 -5 0 -9 -9 -10 -20 -1 -11 2 -18 6 -16 4 3 20
-1 35 -9 15 -8 35 -16 44 -17 9 -2 19 -5 22 -8 7 -8 154 -70 164 -70 4 0 6 6
3 13 -3 7 4 19 15 26 19 12 19 14 5 28 -14 14 -18 14 -43 -6 -14 -11 -33 -21
-40 -21 -14 0 -40 39 -36 53 1 4 -5 10 -13 13 -8 3 -12 10 -9 15 3 5 -2 9 -11
9 -10 0 -13 -5 -9 -12 4 -7 3 -8 -4 -4 -6 4 -24 -1 -39 -10 l-28 -16 25 21
c30 25 15 28 -20 4 -24 -16 -24 -16 -11 0 15 19 2 24 -16 6 -8 -8 -13 -8 -18
0 -3 6 -3 11 2 10 20 -4 27 2 13 12 -12 9 -11 10 5 4 11 -4 35 -8 53 -10 l34
-3 -23 24 c-24 26 -50 34 -29 9 9 -10 9 -15 1 -15 -6 0 -11 5 -11 11 0 5 -6 7
-12 4 -7 -4 3 7 22 24 75 65 102 93 96 98 -3 3 -18 -8 -33 -24 -38 -40 -80
-66 -97 -60 -17 7 -56 -19 -56 -37 0 -8 -7 -20 -17 -27 -15 -13 -15 -12 0 18
21 40 21 49 2 33 -10 -9 -15 -9 -15 -1 0 11 13 15 39 11 13 -1 13 1 2 14 -8 9
-9 16 -3 16 6 0 12 -6 15 -12 2 -7 8 -10 12 -6 4 4 3 13 -1 20 -5 7 -9 15 -10
18 -10 48 -74 52 -116 7z m96 7 c8 -22 8 -24 -6 -24 -6 0 -8 3 -5 7 4 3 2 12
-4 20 -7 8 -8 13 -1 13 5 0 13 -7 16 -16z m-32 -50 c-17 -11 -20 -19 -13 -33
6 -10 6 -23 0 -32 -6 -10 -9 -10 -9 -1 0 24 -1 27 -16 50 -8 12 -10 22 -4 22
5 0 10 -5 10 -12 0 -8 6 -6 17 5 10 9 22 17 27 17 6 0 0 -7 -12 -16z m-107
-24 c3 -5 1 -10 -4 -10 -6 0 -11 5 -11 10 0 6 2 10 4 10 3 0 8 -4 11 -10z m35
-14 c0 -20 -13 -27 -30 -14 -12 8 -11 9 4 4 13 -5 17 -2 12 9 -3 8 -1 15 4 15
6 0 10 -6 10 -14z m154 -1 c-7 -18 -20 -19 -30 -3 -4 7 -3 8 4 4 7 -4 12 -2
12 3 0 6 4 11 10 11 5 0 7 -7 4 -15z m83 -90 c0 -8 -4 -12 -9 -9 -4 3 -8 9 -8
15 0 5 4 9 8 9 5 0 9 -7 9 -15z m33 5 c0 -5 -4 -10 -10 -10 -5 0 -10 5 -10 10
0 6 5 10 10 10 6 0 10 -4 10 -10z m15 -30 c3 -6 -1 -7 -9 -4 -18 7 -21 14 -7
14 6 0 13 -4 16 -10z m110 -10 c-3 -5 -14 -10 -23 -10 -15 0 -15 2 -2 10 20
13 33 13 25 0z"/>
<path d="M2225 2280 c3 -5 8 -10 11 -10 2 0 4 5 4 10 0 6 -5 10 -11 10 -5 0
-7 -4 -4 -10z"/>
<path d="M1860 2200 c0 -5 5 -10 10 -10 6 0 10 5 10 10 0 6 -4 10 -10 10 -5 0
-10 -4 -10 -10z"/>
<path d="M2553 2148 c-2 -18 0 -20 7 -8 12 18 13 30 2 30 -4 0 -9 -10 -9 -22z"/>
<path d="M2730 2060 c-24 -24 -25 -33 -5 -50 12 -10 13 -16 4 -26 -6 -8 -8
-14 -3 -14 14 1 64 48 64 60 0 5 5 9 11 8 6 -2 14 3 16 10 3 7 -1 10 -10 6 -8
-3 -17 2 -20 10 -9 22 -33 20 -57 -4z m43 -4 c4 -9 1 -13 -6 -10 -8 2 -13 -4
-14 -17 -2 -18 0 -19 15 -7 15 12 16 11 4 -4 -8 -9 -20 -14 -28 -11 -12 4 -12
8 -2 21 11 14 10 15 -7 9 -16 -6 -15 -3 5 13 30 24 27 23 33 6z"/>
<path d="M2516 2051 c-15 -17 -15 -19 -1 -24 8 -4 15 -13 15 -21 0 -9 8 -14
20 -13 14 1 19 6 14 17 -3 8 -7 20 -7 25 0 6 -6 16 -13 22 -9 9 -16 8 -28 -6z"/>
</g>
</svg>
