<?xml version="1.0" encoding="UTF-8"?>
<svg width="170px" height="180px" viewBox="0 0 170 180" version="1.1" xmlns="http://www.w3.org/2000/svg" xmlns:xlink="http://www.w3.org/1999/xlink">
    <!-- Generator: Sketch 55.1 (78136) - https://sketchapp.com -->
    <title>Group</title>
    <desc>Created with Sketch.</desc>
    <g id="Page-1" stroke="none" stroke-width="1" fill="none" fill-rule="evenodd">
        <g id="Group" transform="translate(4.000000, 8.000000)" fill="#FFFFFF">
            <path d="M21.159,133 L21.159,103.096 L33.927,103.096 L33.927,107.128 L25.443,107.128 L25.443,116.2 L32.835,116.2 L32.835,120.232 L25.443,120.232 L25.443,133 L21.159,133 Z M45.351,122.542 L43.251,111.706 L43.167,111.706 L41.067,122.542 L45.351,122.542 Z M34.767,133 L41.445,103.096 L45.015,103.096 L51.693,133 L47.409,133 L46.149,126.574 L40.311,126.574 L39.051,133 L34.767,133 Z M56.607,133 L56.607,107.128 L51.651,107.128 L51.651,103.096 L65.847,103.096 L65.847,107.128 L60.891,107.128 L60.891,133 L56.607,133 Z M76.389,122.542 L74.289,111.706 L74.205,111.706 L72.105,122.542 L76.389,122.542 Z M65.805,133 L72.483,103.096 L76.053,103.096 L82.731,133 L78.447,133 L77.187,126.574 L71.349,126.574 L70.089,133 L65.805,133 Z M84.831,133 L84.831,103.096 L88.947,103.096 L94.449,118.93 L94.533,118.93 L99.993,103.096 L104.151,103.096 L104.151,133 L99.867,133 L99.867,114.814 L99.783,114.814 L95.541,127.666 L93.399,127.666 L89.199,114.814 L89.115,114.814 L89.115,133 L84.831,133 Z M107.931,133 L107.931,128.716 L112.215,128.716 L112.215,133 L107.931,133 Z M129.855,103.096 L129.855,126.28 C129.855,127.260005 129.680002,128.162996 129.33,128.989 C128.979998,129.815004 128.483003,130.549997 127.839,131.194 C127.194997,131.838003 126.453004,132.341998 125.613,132.706 C124.772996,133.070002 123.877005,133.252 122.925,133.252 C121.972995,133.252 121.084004,133.070002 120.258,132.706 C119.431996,132.341998 118.697003,131.838003 118.053,131.194 C117.408997,130.549997 116.905002,129.815004 116.541,128.989 C116.176998,128.162996 115.995,127.260005 115.995,126.28 L115.995,103.096 L120.279,103.096 L120.279,125.86 C120.279,126.924005 120.530997,127.707997 121.035,128.212 C121.539003,128.716003 122.168996,128.968 122.925,128.968 C123.681004,128.968 124.310997,128.716003 124.815,128.212 C125.319003,127.707997 125.571,126.924005 125.571,125.86 L125.571,103.096 L129.855,103.096 Z M132.501,133 L132.501,129.22 L140.565,107.128 L132.921,107.128 L132.921,103.096 L145.227,103.096 L145.227,106.498 L136.995,128.968 L145.227,128.968 L145.227,133 L132.501,133 Z" id="FATAM.UZ" fill-rule="nonzero"></path>
            <path d="M25.6445312,157.03125 C25.6445312,156.588539 25.5299491,156.238283 25.3007812,155.980469 C25.0716134,155.722655 24.6679716,155.468751 24.0898438,155.21875 C22.9075462,154.80729 22.0208363,154.339846 21.4296875,153.816406 C20.8385387,153.292966 20.5429688,152.559901 20.5429688,151.617188 C20.5429688,150.684891 20.8867153,149.925784 21.5742188,149.339844 C22.2617222,148.753903 23.1393176,148.460938 24.2070312,148.460938 C25.29037,148.460938 26.1705695,148.787757 26.8476562,149.441406 C27.524743,150.095055 27.8528647,150.919266 27.8320312,151.914062 L27.8164062,151.960938 L25.6601562,151.960938 C25.6601562,151.440102 25.5299492,151.018231 25.2695312,150.695312 C25.0091133,150.372394 24.6419295,150.210938 24.1679688,150.210938 C23.7252582,150.210938 23.3802096,150.345051 23.1328125,150.613281 C22.8854154,150.881512 22.7617188,151.218748 22.7617188,151.625 C22.7617188,152.000002 22.8997382,152.308593 23.1757812,152.550781 C23.4518243,152.79297 23.9309862,153.062499 24.6132812,153.359375 C25.6914116,153.72396 26.5026014,154.186195 27.046875,154.746094 C27.5911486,155.305992 27.8632812,156.062495 27.8632812,157.015625 C27.8632812,158.000005 27.5351595,158.770831 26.8789062,159.328125 C26.222653,159.885419 25.3502659,160.164062 24.2617188,160.164062 C23.17838,160.164062 22.2395873,159.847659 21.4453125,159.214844 C20.6510377,158.582028 20.266927,157.674485 20.2929688,156.492188 L20.3085938,156.445312 L22.4726562,156.445312 C22.4726562,157.148441 22.6210923,157.653644 22.9179688,157.960938 C23.2148452,158.268231 23.6627574,158.421875 24.2617188,158.421875 C24.7304711,158.421875 25.0781239,158.296876 25.3046875,158.046875 C25.5312511,157.796874 25.6445312,157.458335 25.6445312,157.03125 Z M37.2304688,160 L35.0117188,160 L35.0117188,155.289062 L31.4804688,155.289062 L31.4804688,160 L29.2539062,160 L29.2539062,148.625 L31.4804688,148.625 L31.4804688,153.515625 L35.0117188,153.515625 L35.0117188,148.625 L37.2304688,148.625 L37.2304688,160 Z M46.5429688,148.625 L46.5429688,156.367188 C46.5429688,157.580735 46.1875036,158.516924 45.4765625,159.175781 C44.7656214,159.834639 43.8346412,160.164062 42.6835938,160.164062 C41.5325463,160.164062 40.6015661,159.833337 39.890625,159.171875 C39.1796839,158.510413 38.8242188,157.575527 38.8242188,156.367188 L38.8242188,148.625 L41.0429688,148.625 L41.0429688,156.367188 C41.0429688,157.059899 41.1861965,157.570311 41.4726562,157.898438 C41.759116,158.226564 42.1627578,158.390625 42.6835938,158.390625 C43.2200548,158.390625 43.6289048,158.234377 43.9101562,157.921875 C44.1914077,157.609373 44.3320312,157.091149 44.3320312,156.367188 L44.3320312,148.625 L46.5429688,148.625 Z M51.6367188,152.601562 L51.6835938,152.601562 L53.2304688,148.625 L55.8007812,148.625 L53.0429688,154.265625 L55.9882812,160 L53.3085938,160 L51.7148438,155.9375 L51.6679688,155.9375 L50.0742188,160 L47.4882812,160 L50.3164062,154.265625 L47.5585938,148.625 L50.1132812,148.625 L51.6367188,152.601562 Z M59.1679688,155.476562 L59.1679688,160 L56.9492188,160 L56.9492188,148.632812 L60.6601562,148.632812 C61.7799535,148.632812 62.658851,148.928382 63.296875,149.519531 C63.934899,150.11068 64.2539062,150.932286 64.2539062,151.984375 C64.2539062,152.578128 64.1210951,153.089842 63.8554688,153.519531 C63.5898424,153.949221 63.2018255,154.291665 62.6914062,154.546875 C63.2747425,154.744793 63.6953112,155.072914 63.953125,155.53125 C64.2109388,155.989586 64.3398438,156.562497 64.3398438,157.25 L64.3398438,158.054688 C64.3398438,158.367189 64.3763017,158.701821 64.4492188,159.058594 C64.5221358,159.415366 64.6497387,159.674478 64.8320312,159.835938 L64.8320312,160 L62.5351562,160 C62.3528637,159.833333 62.2382815,159.562502 62.1914062,159.1875 C62.144531,158.812498 62.1210938,158.429689 62.1210938,158.039062 L62.1210938,157.265625 C62.1210938,156.697914 62.0052095,156.257814 61.7734375,155.945312 C61.5416655,155.632812 61.2096376,155.476562 60.7773438,155.476562 L59.1679688,155.476562 Z M59.1679688,153.703125 L60.6523438,153.703125 C61.105471,153.703125 61.4492176,153.565106 61.6835938,153.289062 C61.9179699,153.013019 62.0351562,152.619794 62.0351562,152.109375 C62.0351562,151.588539 61.9179699,151.174481 61.6835938,150.867188 C61.4492176,150.559894 61.1080752,150.40625 60.6601562,150.40625 L59.1679688,150.40625 L59.1679688,153.703125 Z M71.1367188,157.585938 L68.1367188,157.585938 L67.5273438,160 L65.2851562,160 L68.4882812,148.625 L70.8007812,148.625 L73.9960938,160 L71.7539062,160 L71.1367188,157.585938 Z M68.5898438,155.796875 L70.6835938,155.796875 L69.6601562,151.773438 L69.6132812,151.773438 L68.5898438,155.796875 Z M81.5742188,150.40625 L79.0117188,150.40625 L79.0117188,160 L76.7929688,160 L76.7929688,150.40625 L74.2460938,150.40625 L74.2460938,148.625 L81.5742188,148.625 L81.5742188,150.40625 Z M89.6523438,153.5 L89.6992188,153.5 L91.5976562,148.625 L94.0117188,148.625 L90.7617188,155.953125 L90.7617188,160 L88.5429688,160 L88.5429688,155.8125 L85.3476562,148.625 L87.7773438,148.625 L89.6523438,153.5 Z M102.597656,155.914062 C102.597656,157.247402 102.235681,158.289059 101.511719,159.039062 C100.787757,159.789066 99.8242248,160.164062 98.6210938,160.164062 C97.4179627,160.164062 96.4570348,159.789066 95.7382812,159.039062 C95.0195277,158.289059 94.6601562,157.247402 94.6601562,155.914062 L94.6601562,152.726562 C94.6601562,151.398431 95.0195277,150.355473 95.7382812,149.597656 C96.4570348,148.83984 97.4153586,148.460938 98.6132812,148.460938 C99.8112039,148.460938 100.774736,148.83984 101.503906,149.597656 C102.233077,150.355473 102.597656,151.398431 102.597656,152.726562 L102.597656,155.914062 Z M100.386719,152.710938 C100.386719,151.898433 100.235679,151.285158 99.9335938,150.871094 C99.6315089,150.457029 99.1914091,150.25 98.6132812,150.25 C98.029945,150.25 97.5924494,150.455727 97.3007812,150.867188 C97.0091131,151.278648 96.8632812,151.893225 96.8632812,152.710938 L96.8632812,155.914062 C96.8632812,156.736983 97.0117173,157.354165 97.3085938,157.765625 C97.6054702,158.177085 98.0429659,158.382812 98.6210938,158.382812 C99.1940133,158.382812 99.6315089,158.177085 99.9335938,157.765625 C100.235679,157.354165 100.386719,156.736983 100.386719,155.914062 L100.386719,152.710938 Z M111.574219,158.3125 C111.266926,158.802086 110.805993,159.233071 110.191406,159.605469 C109.57682,159.977866 108.798182,160.164062 107.855469,160.164062 C106.636713,160.164062 105.658858,159.807295 104.921875,159.09375 C104.184892,158.380205 103.816406,157.36459 103.816406,156.046875 L103.816406,152.578125 C103.816406,151.270827 104.171871,150.257816 104.882812,149.539062 C105.593754,148.820309 106.53515,148.460938 107.707031,148.460938 C108.967454,148.460938 109.912757,148.769528 110.542969,149.386719 C111.17318,150.003909 111.501302,150.888015 111.527344,152.039062 L111.511719,152.085938 L109.425781,152.085938 C109.410156,151.445309 109.268231,150.977866 109,150.683594 C108.731769,150.389321 108.321617,150.242188 107.769531,150.242188 C107.227862,150.242188 106.803387,150.433592 106.496094,150.816406 C106.188801,151.199221 106.035156,151.781246 106.035156,152.5625 L106.035156,156.046875 C106.035156,156.843754 106.190103,157.433592 106.5,157.816406 C106.809897,158.199221 107.261716,158.390625 107.855469,158.390625 C108.298179,158.390625 108.624999,158.33073 108.835938,158.210938 C109.046876,158.091145 109.220051,157.914064 109.355469,157.679688 L109.355469,155.640625 L107.855469,155.640625 L107.855469,154.078125 L111.574219,154.078125 L111.574219,158.3125 Z M114.988281,149.3125 L113.847656,152 L112.777344,152 L113.160156,149.3125 L113.160156,147.8125 L114.988281,147.8125 L114.988281,149.3125 Z M116.113281,160 L116.113281,148.625 L119.550781,148.625 C120.717454,148.625 121.680986,149.066402 122.441406,149.949219 C123.201827,150.832036 123.582031,151.968743 123.582031,153.359375 L123.582031,155.273438 C123.582031,156.664069 123.201827,157.799475 122.441406,158.679688 C121.680986,159.5599 120.717454,160 119.550781,160 L116.113281,160 Z M118.339844,150.40625 L118.339844,158.226562 L119.425781,158.226562 C120.045576,158.226562 120.523436,157.957034 120.859375,157.417969 C121.195314,156.878904 121.363281,156.164067 121.363281,155.273438 L121.363281,153.34375 C121.363281,152.458329 121.195314,151.747399 120.859375,151.210938 C120.523436,150.674476 120.045576,150.40625 119.425781,150.40625 L118.339844,150.40625 Z M132.699219,148.625 L132.699219,156.367188 C132.699219,157.580735 132.343754,158.516924 131.632812,159.175781 C130.921871,159.834639 129.990891,160.164062 128.839844,160.164062 C127.688796,160.164062 126.757816,159.833337 126.046875,159.171875 C125.335934,158.510413 124.980469,157.575527 124.980469,156.367188 L124.980469,148.625 L127.199219,148.625 L127.199219,156.367188 C127.199219,157.059899 127.342446,157.570311 127.628906,157.898438 C127.915366,158.226564 128.319008,158.390625 128.839844,158.390625 C129.376305,158.390625 129.785155,158.234377 130.066406,157.921875 C130.347658,157.609373 130.488281,157.091149 130.488281,156.367188 L130.488281,148.625 L132.699219,148.625 Z M139.347656,157.03125 C139.347656,156.588539 139.233074,156.238283 139.003906,155.980469 C138.774738,155.722655 138.371097,155.468751 137.792969,155.21875 C136.610671,154.80729 135.723961,154.339846 135.132812,153.816406 C134.541664,153.292966 134.246094,152.559901 134.246094,151.617188 C134.246094,150.684891 134.58984,149.925784 135.277344,149.339844 C135.964847,148.753903 136.842443,148.460938 137.910156,148.460938 C138.993495,148.460938 139.873695,148.787757 140.550781,149.441406 C141.227868,150.095055 141.55599,150.919266 141.535156,151.914062 L141.519531,151.960938 L139.363281,151.960938 C139.363281,151.440102 139.233074,151.018231 138.972656,150.695312 C138.712238,150.372394 138.345054,150.210938 137.871094,150.210938 C137.428383,150.210938 137.083335,150.345051 136.835938,150.613281 C136.58854,150.881512 136.464844,151.218748 136.464844,151.625 C136.464844,152.000002 136.602863,152.308593 136.878906,152.550781 C137.154949,152.79297 137.634111,153.062499 138.316406,153.359375 C139.394537,153.72396 140.205726,154.186195 140.75,154.746094 C141.294274,155.305992 141.566406,156.062495 141.566406,157.015625 C141.566406,158.000005 141.238285,158.770831 140.582031,159.328125 C139.925778,159.885419 139.053391,160.164062 137.964844,160.164062 C136.881505,160.164062 135.942712,159.847659 135.148438,159.214844 C134.354163,158.582028 133.970052,157.674485 133.996094,156.492188 L134.011719,156.445312 L136.175781,156.445312 C136.175781,157.148441 136.324217,157.653644 136.621094,157.960938 C136.91797,158.268231 137.365882,158.421875 137.964844,158.421875 C138.433596,158.421875 138.781249,158.296876 139.007812,158.046875 C139.234376,157.796874 139.347656,157.458335 139.347656,157.03125 Z M145.285156,160 L143.074219,160 L143.074219,148.625 L145.285156,148.625 L145.285156,160 Z" id="SHUXRATYOG’DUSI" fill-rule="nonzero" opacity="0.700079055"></path>
            <g id="center" transform="translate(40.952059, 0.000000)">
                <path d="M1.76485522,5.68434189e-14 C4.7428252,0.975893403 8.07758072,6.32325917 11.7691218,16.0420973 C17.3064334,30.6203545 25.5557573,49.377583 33.6553662,50.7675243 C41.7549752,52.1574656 47.0908903,51.7014814 60.6630123,35.904858 C66.3474207,29.2887623 76.8806833,17.7998259 86.9407771,7.78811866 C89.243334,5.49663638 90.9257369,3.43297371 92.4169254,4.53525392 C93.9081139,5.63753412 73.8657803,36.8929406 70.2116127,42.5316158 C56.4921237,63.7018938 55.9194953,74.3055674 53.5725257,78.525204 C52.0078793,81.3382951 49.8473342,83.5501041 47.0908903,85.160631 C41.9893905,86.2256578 37.5108825,84.9962768 33.6553662,81.4724879 C29.79985,77.9486991 25.0291176,70.7246414 19.3431691,59.8003148 C9.97743348,36.5810383 4.11799551,20.9687826 1.76485522,12.9635478 C-0.588285073,4.95831297 -0.588285073,0.637130377 1.76485522,5.68434189e-14 Z" id="Path"></path>
                <ellipse id="Oval" cx="38.547941" cy="27.329548" rx="12" ry="15.5"></ellipse>
            </g>
            <g id="right" transform="translate(121.000000, 79.500000) rotate(48.000000) translate(-121.000000, -79.500000) translate(90.000000, 51.000000)" fill-opacity="0.7">
                <path d="M1.22773911,0.442519679 C3.19167399,1.08146662 5.39090458,4.58254877 7.82543089,10.9457661 C11.4772203,20.4905922 16.9175489,32.7715172 22.2591422,33.6815538 C27.6007355,34.5915904 31.1197064,34.2930438 40.0703553,23.9505165 C43.8191533,19.6187585 50.7657116,12.0966042 57.4002207,5.5416366 C58.9187289,4.04133382 60.0282531,2.69019143 61.0116737,3.41188763 C61.9950943,4.13358383 48.7774198,24.5974441 46.3675409,28.2892554 C37.3197052,42.1500769 36.9420637,49.0926228 35.3942659,51.8553465 C34.3624007,53.6971624 32.9375475,55.1453007 31.1197064,56.1997614 C27.7553295,56.8970666 24.8018081,56.0921537 22.2591422,53.7850225 C19.7164762,51.4778913 16.5702364,46.7480822 12.8204227,39.595595 C6.6438343,24.3932322 2.77960643,14.171416 1.22773911,8.93014662 C-0.324128216,3.68887719 -0.324128216,0.859668213 1.22773911,0.442519679 Z" id="Path"></path>
                <ellipse id="Oval" cx="25.4743475" cy="19.1502067" rx="8" ry="10"></ellipse>
            </g>
            <g id="left" transform="translate(42.000000, 79.500000) scale(-1, 1) rotate(48.000000) translate(-42.000000, -79.500000) translate(11.000000, 51.000000)" fill-opacity="0.5">
                <path d="M1.22773911,0.442519679 C3.19167399,1.08146662 5.39090458,4.58254877 7.82543089,10.9457661 C11.4772203,20.4905922 16.9175489,32.7715172 22.2591422,33.6815538 C27.6007355,34.5915904 31.1197064,34.2930438 40.0703553,23.9505165 C43.8191533,19.6187585 50.7657116,12.0966042 57.4002207,5.5416366 C58.9187289,4.04133382 60.0282531,2.69019143 61.0116737,3.41188763 C61.9950943,4.13358383 48.7774198,24.5974441 46.3675409,28.2892554 C37.3197052,42.1500769 36.9420637,49.0926228 35.3942659,51.8553465 C34.3624007,53.6971624 32.9375475,55.1453007 31.1197064,56.1997614 C27.7553295,56.8970666 24.8018081,56.0921537 22.2591422,53.7850225 C19.7164762,51.4778913 16.5702364,46.7480822 12.8204227,39.595595 C6.6438343,24.3932322 2.77960643,14.171416 1.22773911,8.93014662 C-0.324128216,3.68887719 -0.324128216,0.859668213 1.22773911,0.442519679 Z" id="Path"></path>
                <ellipse id="Oval" cx="25.4743475" cy="19.1502067" rx="8" ry="10"></ellipse>
            </g>
        </g>
        <g id="Group-2" transform="translate(43.000000, 147.000000)" stroke="#979797">
            <path d="M0.31147541,2.5 L37.425218,2.5" id="Line" stroke-linecap="square"></path>
            <path d="M48.3114754,2.5 L85.425218,2.5" id="Line" stroke-linecap="square"></path>
            <circle id="Oval" fill="#D8D8D8" cx="43.5" cy="2.5" r="2.5"></circle>
        </g>
    </g>
</svg>