<?xml version="1.0" encoding="UTF-8"?>
<svg width="170px" height="170px" viewBox="0 0 170 170" version="1.1" xmlns="http://www.w3.org/2000/svg" xmlns:xlink="http://www.w3.org/1999/xlink">
    <!-- Generator: Sketch 55.1 (78136) - https://sketchapp.com -->
    <title>favicon</title>
    <desc>Created with Sketch.</desc>
    <g id="Page-1" stroke="none" stroke-width="1" fill="none" fill-rule="evenodd">
        <g id="logo" transform="translate(4.000000, 24.000000)" fill="#FFFFFF">
            <g id="center" transform="translate(40.952059, 0.000000)">
                <path d="M1.76485522,5.68434189e-14 C4.7428252,0.975893403 8.07758072,6.32325917 11.7691218,16.0420973 C17.3064334,30.6203545 25.5557573,49.377583 33.6553662,50.7675243 C41.7549752,52.1574656 47.0908903,51.7014814 60.6630123,35.904858 C66.3474207,29.2887623 76.8806833,17.7998259 86.9407771,7.78811866 C89.243334,5.49663638 90.9257369,3.43297371 92.4169254,4.53525392 C93.9081139,5.63753412 73.8657803,36.8929406 70.2116127,42.5316158 C56.4921237,63.7018938 55.9194953,74.3055674 53.5725257,78.525204 C52.0078793,81.3382951 49.8473342,83.5501041 47.0908903,85.160631 C41.9893905,86.2256578 37.5108825,84.9962768 33.6553662,81.4724879 C29.79985,77.9486991 25.0291176,70.7246414 19.3431691,59.8003148 C9.97743348,36.5810383 4.11799551,20.9687826 1.76485522,12.9635478 C-0.588285073,4.95831297 -0.588285073,0.637130377 1.76485522,5.68434189e-14 Z" id="Path"></path>
                <ellipse id="Oval" cx="38.547941" cy="27.329548" rx="12" ry="15.5"></ellipse>
            </g>
            <g id="right" transform="translate(121.000000, 79.500000) rotate(48.000000) translate(-121.000000, -79.500000) translate(90.000000, 51.000000)" fill-opacity="0.7">
                <path d="M1.22773911,0.442519679 C3.19167399,1.08146662 5.39090458,4.58254877 7.82543089,10.9457661 C11.4772203,20.4905922 16.9175489,32.7715172 22.2591422,33.6815538 C27.6007355,34.5915904 31.1197064,34.2930438 40.0703553,23.9505165 C43.8191533,19.6187585 50.7657116,12.0966042 57.4002207,5.5416366 C58.9187289,4.04133382 60.0282531,2.69019143 61.0116737,3.41188763 C61.9950943,4.13358383 48.7774198,24.5974441 46.3675409,28.2892554 C37.3197052,42.1500769 36.9420637,49.0926228 35.3942659,51.8553465 C34.3624007,53.6971624 32.9375475,55.1453007 31.1197064,56.1997614 C27.7553295,56.8970666 24.8018081,56.0921537 22.2591422,53.7850225 C19.7164762,51.4778913 16.5702364,46.7480822 12.8204227,39.595595 C6.6438343,24.3932322 2.77960643,14.171416 1.22773911,8.93014662 C-0.324128216,3.68887719 -0.324128216,0.859668213 1.22773911,0.442519679 Z" id="Path"></path>
                <ellipse id="Oval" cx="25.4743475" cy="19.1502067" rx="8" ry="10"></ellipse>
            </g>
            <g id="left" transform="translate(42.000000, 79.500000) scale(-1, 1) rotate(48.000000) translate(-42.000000, -79.500000) translate(11.000000, 51.000000)" fill-opacity="0.5">
                <path d="M1.22773911,0.442519679 C3.19167399,1.08146662 5.39090458,4.58254877 7.82543089,10.9457661 C11.4772203,20.4905922 16.9175489,32.7715172 22.2591422,33.6815538 C27.6007355,34.5915904 31.1197064,34.2930438 40.0703553,23.9505165 C43.8191533,19.6187585 50.7657116,12.0966042 57.4002207,5.5416366 C58.9187289,4.04133382 60.0282531,2.69019143 61.0116737,3.41188763 C61.9950943,4.13358383 48.7774198,24.5974441 46.3675409,28.2892554 C37.3197052,42.1500769 36.9420637,49.0926228 35.3942659,51.8553465 C34.3624007,53.6971624 32.9375475,55.1453007 31.1197064,56.1997614 C27.7553295,56.8970666 24.8018081,56.0921537 22.2591422,53.7850225 C19.7164762,51.4778913 16.5702364,46.7480822 12.8204227,39.595595 C6.6438343,24.3932322 2.77960643,14.171416 1.22773911,8.93014662 C-0.324128216,3.68887719 -0.324128216,0.859668213 1.22773911,0.442519679 Z" id="Path"></path>
                <ellipse id="Oval" cx="25.4743475" cy="19.1502067" rx="8" ry="10"></ellipse>
            </g>
        </g>
    </g>
</svg>